<svg width="42" height="51" viewBox="0 0 42 51" fill="none" xmlns="http://www.w3.org/2000/svg">
<g filter="url(#filter0_d_901_223)">
<path d="M29.1255 27.8141C29.0028 26.0317 28.2037 24.362 26.8897 23.1419C25.5757 21.9218 23.8445 21.2423 22.0456 21.2405C21.8874 21.2405 21.7311 21.2405 21.5768 21.2562V19.7179C22.5473 19.542 23.425 19.0339 24.0575 18.282C24.6899 17.5301 25.0371 16.5818 25.0386 15.6021C25.0386 15.5451 25.0386 15.4861 25.0386 15.4311C24.9926 14.5964 24.6319 13.8095 24.0282 13.227C23.4244 12.6446 22.622 12.3092 21.7805 12.2878H21.5827C21.3463 12.304 21.1164 12.372 20.9095 12.4868C20.7026 12.6016 20.5238 12.7604 20.3859 12.9518C20.1881 13.2248 20.0816 13.5526 20.0813 13.8889V18.3427C19.9962 18.3427 19.9092 18.3565 19.8222 18.3682C19.2197 18.4371 18.6263 18.5688 18.0517 18.7612C16.1225 19.3967 14.4732 20.674 13.3825 22.3773C12.2918 24.0807 11.8264 26.1057 12.0649 28.1104C12.3035 30.1151 13.2314 31.9766 14.6919 33.3805C16.1524 34.7844 18.0561 35.6446 20.0813 35.816C20.0813 36.2328 19.9146 36.6326 19.6178 36.9273C19.321 37.2221 18.9185 37.3877 18.4988 37.3877C18.4599 37.3897 18.4209 37.3897 18.382 37.3877C17.9221 37.334 17.4776 37.1897 17.0745 36.9633V38.535C17.5433 38.7777 18.0672 38.8962 18.5957 38.8794C19.1241 38.8625 19.6392 38.7107 20.0915 38.4387C20.5437 38.1667 20.9177 37.7835 21.1775 37.3262C21.4373 36.8689 21.5742 36.3529 21.5748 35.8278H21.5887C23.0953 35.7005 24.5429 35.1874 25.7903 34.3386C26.1467 34.0981 26.484 33.8308 26.7992 33.539L26.9376 33.4133L27.0623 33.2915C27.1434 33.2129 27.2185 33.1323 27.2957 33.0498C27.6087 32.7155 27.8951 32.3575 28.1522 31.9791V31.8985C28.801 30.8137 29.1428 29.5749 29.1413 28.3131C29.1433 28.1284 29.1394 27.9693 29.1255 27.8141ZM21.5768 13.9596C21.5768 13.9117 21.596 13.8657 21.6301 13.8318C21.6642 13.7979 21.7105 13.7789 21.7588 13.7789C22.2204 13.795 22.6593 13.9822 22.9888 14.3036C23.3184 14.6251 23.5147 15.0575 23.5391 15.5156C23.5391 15.547 23.5391 15.5785 23.5391 15.6119C23.5391 15.6453 23.5391 15.6748 23.5391 15.7062C23.5184 16.2736 23.318 16.82 22.9663 17.2676C22.6147 17.7152 22.1298 18.0413 21.5807 18.1993L21.5768 13.9596ZM20.0754 30.8357C19.4037 30.7038 18.7794 30.397 18.2662 29.9469C17.7531 29.4967 17.3696 28.9192 17.1549 28.2736C16.9402 27.6279 16.902 26.9372 17.0443 26.272C17.1866 25.6069 17.5042 24.9912 17.9646 24.488L18.0893 24.3603L18.1605 24.2916L18.2297 24.2267C18.7637 23.7303 19.3908 23.3431 20.0754 23.0872V30.8357ZM20.0754 21.5175C19.0619 21.8105 18.1272 22.3247 17.3395 23.0224L17.3198 23.0401C17.3 23.0578 17.2782 23.0735 17.2584 23.0931C17.2387 23.1128 17.1872 23.156 17.1516 23.1894C17.0784 23.2582 17.0092 23.3269 16.938 23.3996C16.9103 23.4291 16.8806 23.4586 16.8529 23.49C16.1982 24.2071 15.7525 25.0877 15.5638 26.0374C15.3751 26.987 15.4504 27.9698 15.7817 28.8801C16.113 29.7905 16.6878 30.594 17.4443 31.2043C18.2007 31.8147 19.1103 32.2089 20.0754 32.3445V34.3091C18.2556 34.1459 16.563 33.3125 15.3305 31.9729C14.098 30.6333 13.4145 28.8842 13.4145 27.0695C13.4145 25.2548 14.098 23.5058 15.3305 22.1661C16.563 20.8265 18.2556 19.9932 20.0754 19.8299V21.5175ZM26.1958 32.0145C26.1345 32.0813 26.0712 32.1481 25.998 32.2109C25.9664 32.2443 25.9327 32.2758 25.8991 32.3072C25.8849 32.3226 25.8697 32.337 25.8536 32.3504L25.7765 32.4211C24.6167 33.4847 23.1411 34.1464 21.5709 34.3072V32.3426C22.618 32.1977 23.598 31.7463 24.3858 31.0459L24.5342 30.9103L24.6133 30.8337L24.7478 30.6942C25.161 30.2424 25.4689 29.7058 25.6499 29.1225H24.0297C23.9332 29.3073 23.815 29.4801 23.6776 29.6373L23.553 29.7709C23.5194 29.8023 23.4877 29.8357 23.4521 29.8671C22.9265 30.3532 22.2752 30.6845 21.5709 30.8239V22.7493C21.7252 22.7375 21.8814 22.7297 22.0397 22.7297C22.9744 22.7286 23.8943 22.9617 24.7142 23.4075C25.8911 24.0455 26.7996 25.0802 27.2759 26.3249C27.4583 26.8033 27.5728 27.3045 27.6162 27.8141C27.63 27.9713 27.6359 28.1284 27.6359 28.2876C27.6396 29.6642 27.1269 30.9929 26.1978 32.0145H26.1958Z" fill="url(#paint0_linear_901_223)"/>
</g>
<defs>
<filter id="filter0_d_901_223" x="0.00390625" y="0.28775" width="41.1377" height="50.5932" filterUnits="userSpaceOnUse" color-interpolation-filters="sRGB">
<feFlood flood-opacity="0" result="BackgroundImageFix"/>
<feColorMatrix in="SourceAlpha" type="matrix" values="0 0 0 0 0 0 0 0 0 0 0 0 0 0 0 0 0 0 127 0" result="hardAlpha"/>
<feOffset/>
<feGaussianBlur stdDeviation="6"/>
<feComposite in2="hardAlpha" operator="out"/>
<feColorMatrix type="matrix" values="0 0 0 0 0.631373 0 0 0 0 0.917647 0 0 0 0 0.0156863 0 0 0 0.4 0"/>
<feBlend mode="normal" in2="BackgroundImageFix" result="effect1_dropShadow_901_223"/>
<feBlend mode="normal" in="SourceGraphic" in2="effect1_dropShadow_901_223" result="shape"/>
</filter>
<linearGradient id="paint0_linear_901_223" x1="29.1433" y1="25.5705" x2="12.0005" y2="25.5705" gradientUnits="userSpaceOnUse">
<stop stop-color="#A1EA04"/>
<stop offset="1" stop-color="#DAEB02"/>
</linearGradient>
</defs>
</svg>
