<svg width="24" height="24" viewBox="0 0 24 24" fill="none" xmlns="http://www.w3.org/2000/svg">
<path fill-rule="evenodd" clip-rule="evenodd" d="M6.16607 5.10541C5.87318 4.81252 5.39831 4.81252 5.10541 5.10541C4.81252 5.39831 4.81252 5.87318 5.10541 6.16607L10.9391 11.9998L5.10552 17.8333C4.81262 18.1262 4.81262 18.6011 5.10552 18.894C5.39841 19.1869 5.87328 19.1869 6.16618 18.894L11.9998 13.0604L17.8333 18.894C18.1262 19.1869 18.6011 19.1869 18.894 18.894C19.1869 18.6011 19.1869 18.1262 18.894 17.8333L13.0604 11.9998L18.8941 6.16607C19.187 5.87318 19.187 5.39831 18.8941 5.10541C18.6012 4.81252 18.1263 4.81252 17.8334 5.10541L11.9998 10.9391L6.16607 5.10541Z" fill="#8C8C8C"/>
</svg>
