<svg width="11" height="10" viewBox="0 0 11 10" fill="none" xmlns="http://www.w3.org/2000/svg">
<path d="M8.87522 5.00011C8.87522 6.86413 7.36413 8.37522 5.50011 8.37522C3.63609 8.37522 2.125 6.86413 2.125 5.00011C2.125 3.13609 3.63609 1.625 5.50011 1.625C7.36413 1.625 8.87522 3.13609 8.87522 5.00011Z" stroke="#8C8C8C" stroke-width="0.75"/>
<path d="M5.49695 2.99438C5.64343 2.99438 5.7655 3.04932 5.86316 3.15613C5.94556 3.24463 5.98523 3.35144 5.98523 3.47046C5.98523 3.60168 5.93945 3.7146 5.84485 3.80615C5.75024 3.90076 5.63123 3.94653 5.4939 3.94653C5.35962 3.94653 5.2467 3.90076 5.1521 3.80615C5.0575 3.71155 5.01172 3.59863 5.01172 3.46436C5.01172 3.33618 5.06055 3.22632 5.15515 3.13171C5.24976 3.04016 5.36572 2.99438 5.49695 2.99438ZM5.10022 4.4165H5.89978V7.1875H5.10022V4.4165Z" fill="#8C8C8C"/>
</svg>
