<svg width="51" height="13" viewBox="0 0 51 13" fill="none" xmlns="http://www.w3.org/2000/svg">
<path d="M2.01611 0C1.86791 0 1.74203 0.101833 1.71885 0.240495L0.00336428 10.5375C-0.0028692 10.5751 -0.000419898 10.6136 0.010541 10.6502C0.0215019 10.6868 0.0407194 10.7208 0.0668648 10.7497C0.0930102 10.7786 0.125457 10.8019 0.161992 10.8178C0.198528 10.8337 0.238281 10.842 0.278507 10.842H2.31294C2.46093 10.842 2.58702 10.74 2.6102 10.6015L3.11412 7.5777C3.13709 7.43924 3.26318 7.3372 3.41138 7.3372H5.26103C7.42219 7.3372 9.25676 5.84473 9.59187 3.82236C9.92973 1.78288 8.24635 0.00442752 5.86044 0H2.01611ZM3.99378 2.29869H5.47366C6.69203 2.29869 7.0888 2.97912 6.96335 3.73159C6.8379 4.48568 6.2217 5.04113 5.0431 5.04113H3.53683L3.99378 2.29869ZM13.7296 2.99864C13.2159 3.00045 12.6248 3.10007 11.9612 3.36169C10.439 3.96223 9.70796 5.20334 9.39752 6.10816C9.39752 6.10816 8.40944 8.86872 10.6418 10.3853C10.6418 10.3853 12.7122 11.8454 15.0428 10.2954L15.0026 10.5375C14.9964 10.5751 14.9988 10.6135 15.0098 10.6501C15.0207 10.6867 15.0399 10.7206 15.066 10.7495C15.0921 10.7785 15.1245 10.8017 15.161 10.8177C15.1975 10.8336 15.2371 10.8419 15.2773 10.842H17.2086C17.3569 10.842 17.4827 10.74 17.5059 10.6015L18.6807 3.55006C18.687 3.51245 18.6846 3.474 18.6737 3.43735C18.6628 3.40069 18.6436 3.36671 18.6175 3.33774C18.5914 3.30876 18.559 3.28549 18.5225 3.26951C18.4859 3.25353 18.4462 3.24522 18.406 3.24517H16.4747C16.3265 3.24517 16.2004 3.3472 16.1774 3.48566L16.1143 3.86522C16.1143 3.86522 15.271 2.9932 13.7296 2.99864ZM13.7928 5.22588C14.0145 5.22588 14.2174 5.25486 14.3994 5.31021C15.2327 5.56338 15.7052 6.32109 15.5684 7.14239C15.3998 8.15368 14.5236 8.89831 13.3998 8.89831C13.1783 8.89831 12.9754 8.86953 12.7932 8.81418C11.9601 8.56101 11.4847 7.8033 11.6214 6.982C11.79 5.97071 12.669 5.22588 13.7928 5.22588Z" fill="#D2D2D2"/>
<path d="M29.8286 0C29.6804 0 29.5545 0.101833 29.5314 0.240495L27.8159 10.5375C27.8096 10.5751 27.8121 10.6136 27.823 10.6502C27.834 10.6868 27.8532 10.7208 27.8794 10.7497C27.9055 10.7786 27.938 10.8019 27.9745 10.8178C28.011 10.8337 28.0508 10.842 28.091 10.842H30.1254C30.2734 10.842 30.3995 10.74 30.4227 10.6015L30.9266 7.5777C30.9496 7.43924 31.0757 7.3372 31.2239 7.3372H33.0735C35.2347 7.3372 37.069 5.84473 37.4039 3.82236C37.742 1.78288 36.0588 0.00442752 33.6729 0H29.8286ZM31.8063 2.29869H33.2862C34.5045 2.29869 34.9013 2.97912 34.7759 3.73159C34.6504 4.48568 34.0344 5.04113 32.8556 5.04113H31.3493L31.8063 2.29869ZM41.5419 2.99864C41.0282 3.00045 40.4371 3.10007 39.7735 3.36169C38.2513 3.96223 37.5202 5.20334 37.2098 6.10816C37.2098 6.10816 36.2221 8.86872 38.4545 10.3853C38.4545 10.3853 40.5245 11.8454 42.8553 10.2954L42.8151 10.5375C42.8089 10.5751 42.8113 10.6136 42.8223 10.6502C42.8333 10.6868 42.8525 10.7208 42.8786 10.7497C42.9048 10.7786 42.9372 10.8019 42.9738 10.8178C43.0103 10.8337 43.05 10.842 43.0903 10.842H45.0214C45.1696 10.842 45.2955 10.74 45.3186 10.6015L46.4938 3.55006C46.5001 3.51242 46.4977 3.47393 46.4868 3.43725C46.4759 3.40057 46.4567 3.36656 46.4305 3.33758C46.4044 3.3086 46.3719 3.28533 46.3353 3.26938C46.2987 3.25343 46.2589 3.24517 46.2187 3.24517H44.2874C44.1392 3.24517 44.0131 3.3472 43.9901 3.48566L43.927 3.86522C43.927 3.86522 43.0833 2.9932 41.5419 2.99864ZM41.6051 5.22588C41.8268 5.22588 42.0297 5.25486 42.2117 5.31021C43.045 5.56338 43.5174 6.32109 43.3807 7.14239C43.2121 8.15368 42.3359 8.89831 41.2121 8.89831C40.9906 8.89831 40.7877 8.86953 40.6055 8.81418C39.7724 8.56101 39.297 7.8033 39.4337 6.982C39.6023 5.97071 40.4813 5.22588 41.6051 5.22588Z" fill="#D2D2D2"/>
<path d="M19.5972 3.2452C19.4441 3.2452 19.3353 3.38668 19.3821 3.52453L21.4994 9.74339L19.5849 12.674C19.492 12.8163 19.6 13 19.7767 13H22.0395C22.1042 13 22.1678 12.9841 22.2242 12.954C22.2805 12.9239 22.3277 12.8806 22.3612 12.8282L28.2746 3.56921C28.3654 3.42693 28.257 3.245 28.0813 3.245H25.8188C25.7534 3.24505 25.6892 3.2612 25.6325 3.29187C25.5757 3.32253 25.5284 3.36665 25.4951 3.41988L23.1675 7.1394L21.9859 3.44745C21.9474 3.32731 21.8303 3.245 21.6978 3.245L19.5972 3.2452Z" fill="#D2D2D2"/>
<path d="M48.6865 0C48.5385 0 48.4124 0.102034 48.3893 0.240495L46.6734 10.5371C46.667 10.5747 46.6695 10.6132 46.6804 10.6499C46.6913 10.6866 46.7105 10.7206 46.7367 10.7496C46.7628 10.7786 46.7953 10.8018 46.8319 10.8178C46.8684 10.8337 46.9082 10.842 46.9485 10.842H48.9829C49.1309 10.842 49.257 10.74 49.2802 10.6015L50.9957 0.304493C51.0019 0.266913 50.9995 0.228502 50.9885 0.191898C50.9776 0.155294 50.9584 0.121363 50.9323 0.0924355C50.9062 0.0635079 50.8738 0.0402684 50.8373 0.0243126C50.8008 0.00835689 50.7611 6.31721e-05 50.721 0H48.6865Z" fill="#D2D2D2"/>
</svg>
