<svg width="26" height="26" viewBox="0 0 26 26" fill="none" xmlns="http://www.w3.org/2000/svg">
<path d="M18.5 12C18.5 13.0878 18.1774 14.1512 17.5731 15.0556C16.9687 15.9601 16.1098 16.6651 15.1048 17.0813C14.0998 17.4976 12.9939 17.6065 11.927 17.3943C10.8601 17.1821 9.88011 16.6583 9.11092 15.8891C8.34173 15.1199 7.81791 14.1399 7.60569 13.073C7.39347 12.0061 7.50239 10.9002 7.91867 9.89524C8.33495 8.89025 9.0399 8.03127 9.94437 7.42692C10.8488 6.82257 11.9122 6.5 13 6.5C14.4582 6.50165 15.8562 7.08165 16.8873 8.11274C17.9184 9.14383 18.4984 10.5418 18.5 12ZM26 13C26 15.5712 25.2376 18.0846 23.8091 20.2224C22.3807 22.3603 20.3503 24.0265 17.9749 25.0104C15.5995 25.9944 12.9856 26.2518 10.4638 25.7502C7.94208 25.2486 5.6257 24.0105 3.80762 22.1924C1.98953 20.3743 0.751405 18.0579 0.249797 15.5362C-0.251811 13.0144 0.0056327 10.4006 0.989572 8.02512C1.97351 5.64968 3.63975 3.61935 5.77759 2.1909C7.91543 0.762437 10.4288 0 13 0C16.4467 0.00363977 19.7512 1.37445 22.1884 3.81163C24.6256 6.24882 25.9964 9.5533 26 13ZM24 13C23.9984 11.5194 23.6982 10.0544 23.1174 8.69245C22.5366 7.33054 21.6871 6.09974 20.6198 5.07367C19.5524 4.04759 18.289 3.24732 16.9053 2.7207C15.5215 2.19408 14.0457 1.95194 12.5663 2.00875C6.67876 2.23625 1.98376 7.14 2.00001 13.0312C2.00565 15.7132 2.99478 18.2998 4.78001 20.3013C5.50703 19.2468 6.43056 18.3423 7.50001 17.6375C7.59119 17.5773 7.69958 17.5486 7.80862 17.5558C7.91765 17.563 8.02132 17.6058 8.10376 17.6775C9.46273 18.8529 11.1995 19.4998 12.9963 19.4998C14.793 19.4998 16.5298 18.8529 17.8888 17.6775C17.9712 17.6058 18.0749 17.563 18.1839 17.5558C18.2929 17.5486 18.4013 17.5773 18.4925 17.6375C19.5633 18.342 20.4881 19.2464 21.2163 20.3013C23.0103 18.2925 24.0013 15.6932 24 13Z" fill="#121211" fill-opacity="0.8"/>
</svg>
