<svg width="135" height="53" viewBox="0 0 135 53" fill="none" xmlns="http://www.w3.org/2000/svg">
<g filter="url(#filter0_d_909_7143)">
<path d="M31.1688 29.4491C31.0032 27.0429 29.9245 24.7887 28.1505 23.1416C26.3766 21.4945 24.0395 20.5772 21.611 20.5747C21.3974 20.5747 21.1864 20.5747 20.9781 20.596V18.5193C22.2882 18.2818 23.4732 17.5958 24.327 16.5807C25.1808 15.5656 25.6494 14.2855 25.6515 12.9628C25.6515 12.8859 25.6515 12.8063 25.6515 12.7321C25.5895 11.6052 25.1025 10.5429 24.2874 9.75656C23.4724 8.97021 22.3891 8.51749 21.2531 8.48851H20.9861C20.6669 8.51048 20.3566 8.60222 20.0773 8.7572C19.798 8.91217 19.5566 9.12654 19.3704 9.38497C19.1034 9.75354 18.9596 10.196 18.9592 10.6501V16.6627C18.8443 16.6627 18.7268 16.6813 18.6093 16.6972C17.7961 16.7902 16.9949 16.968 16.2192 17.2276C13.6148 18.0856 11.3883 19.8099 9.91578 22.1095C8.44328 24.409 7.81501 27.1428 8.13707 29.8491C8.45914 32.5554 9.7118 35.0684 11.6835 36.9637C13.6552 38.8589 16.2251 40.0203 18.9592 40.2516C18.9592 40.8144 18.7341 41.3541 18.3334 41.752C17.9328 42.1499 17.3893 42.3734 16.8227 42.3734C16.7702 42.3761 16.7177 42.3761 16.6652 42.3734C16.0443 42.3009 15.4442 42.1061 14.8999 41.8005V43.9223C15.5329 44.2499 16.2402 44.41 16.9536 44.3872C17.667 44.3644 18.3624 44.1595 18.9729 43.7923C19.5834 43.425 20.0883 42.9078 20.4391 42.2905C20.7898 41.6731 20.9745 40.9764 20.9754 40.2675H20.9941C23.028 40.0957 24.9824 39.403 26.6663 38.2572C27.1475 37.9325 27.6028 37.5716 28.0283 37.1777L28.2152 37.008L28.3835 36.8435C28.493 36.7374 28.5944 36.6287 28.6986 36.5173C29.1212 36.066 29.5078 35.5827 29.8549 35.0718V34.9631C30.7308 33.4985 31.1921 31.8262 31.1902 30.1228C31.1929 29.8735 31.1875 29.6586 31.1688 29.4491ZM20.9781 10.7456C20.9781 10.6808 21.004 10.6188 21.05 10.573C21.0961 10.5273 21.1586 10.5016 21.2238 10.5016C21.847 10.5232 22.4394 10.776 22.8843 11.2099C23.3292 11.6439 23.5943 12.2277 23.6273 12.8461C23.6273 12.8886 23.6273 12.931 23.6273 12.9761C23.6273 13.0212 23.6273 13.061 23.6273 13.1034C23.5993 13.8694 23.3287 14.607 22.854 15.2113C22.3793 15.8156 21.7247 16.2558 20.9834 16.4691L20.9781 10.7456ZM18.9511 33.5282C18.0444 33.3501 17.2016 32.9361 16.5089 32.3283C15.8161 31.7206 15.2984 30.941 15.0085 30.0694C14.7187 29.1977 14.6671 28.2652 14.8592 27.3673C15.0513 26.4694 15.4801 25.6382 16.1017 24.9589L16.2699 24.7865L16.3661 24.6937L16.4595 24.6061C17.1804 23.936 18.027 23.4133 18.9511 23.0678V33.5282ZM18.9511 20.9487C17.583 21.3442 16.3212 22.0384 15.2578 22.9803L15.2311 23.0042C15.2044 23.028 15.175 23.0493 15.1483 23.0758C15.1216 23.1023 15.0522 23.1607 15.0041 23.2057C14.9053 23.2986 14.8118 23.3914 14.7157 23.4895C14.6783 23.5293 14.6382 23.5691 14.6008 23.6115C13.717 24.5796 13.1154 25.7685 12.8606 27.0505C12.6058 28.3325 12.7075 29.6593 13.1548 30.8882C13.602 32.1172 14.3779 33.2019 15.3992 34.0259C16.4204 34.8499 17.6483 35.382 18.9511 35.5651V38.2174C16.4944 37.997 14.2095 36.872 12.5456 35.0635C10.8816 33.2549 9.959 30.8937 9.959 28.4439C9.959 25.9941 10.8816 23.6328 12.5456 21.8243C14.2095 20.0158 16.4944 18.8908 18.9511 18.6704V20.9487ZM27.2138 35.1196C27.131 35.2098 27.0455 35.2999 26.9467 35.3848C26.904 35.4299 26.8586 35.4723 26.8132 35.5148C26.7941 35.5355 26.7735 35.555 26.7518 35.5731L26.6476 35.6686C25.0819 37.1044 23.0899 37.9977 20.9701 38.2147V35.5625C22.3838 35.3669 23.7068 34.7575 24.7702 33.812L24.9705 33.629L25.0774 33.5256L25.259 33.3373C25.8167 32.7273 26.2325 32.0029 26.4767 31.2155H24.2895C24.1592 31.4649 23.9997 31.6982 23.8142 31.9104L23.6459 32.0907C23.6005 32.1332 23.5578 32.1782 23.5098 32.2207C22.8002 32.8768 21.9209 33.3241 20.9701 33.5123V22.6116C21.1784 22.5957 21.3893 22.5851 21.603 22.5851C22.8648 22.5837 24.1067 22.8984 25.2136 23.5001C26.8024 24.3614 28.0289 25.7583 28.6719 27.4387C28.9181 28.0844 29.0727 28.7611 29.1312 29.4491C29.1499 29.6613 29.1579 29.8735 29.1579 30.0883C29.1629 31.9467 28.4707 33.7404 27.2165 35.1196H27.2138Z" fill="url(#paint0_linear_909_7143)"/>
</g>
<g clip-path="url(#clip0_909_7143)">
<path d="M49.2339 26.039L47.7465 25.4554C46.6713 25.0305 46.0275 24.7355 45.8404 24.5738C45.4439 24.2344 45.2505 23.8158 45.2505 23.2924C45.2505 22.1665 46.1892 21.38 47.5308 21.38C48.1207 21.38 48.6282 21.5417 49.0849 21.8716C49.3608 22.0714 49.6621 22.4234 49.9793 22.915L50.0903 23.0895L52.4277 21.8494L52.3167 21.6496C51.2606 19.753 49.6716 18.792 47.5974 18.792C46.2495 18.792 45.1109 19.1916 44.115 20.0131C43.0653 20.8694 42.5324 22.008 42.5324 23.3908C42.5324 25.2334 43.6266 26.5909 45.7801 27.425L47.4198 28.0783C48.4823 28.4811 49.1864 28.8363 49.5162 29.1345C49.8048 29.4104 49.9475 29.7878 49.9475 30.2921C49.9475 30.8376 49.7668 31.3228 49.3989 31.7668C48.9326 32.3092 48.2952 32.5724 47.4483 32.5724C46.7347 32.5724 46.1734 32.4012 45.7325 32.0523C45.279 31.6907 44.8255 31.0437 44.3941 30.1272L44.3022 29.9337L41.7998 30.9866L41.8791 31.1896C42.9099 33.8569 44.7525 35.208 47.35 35.208C48.8343 35.208 50.1029 34.764 51.121 33.8823C52.2628 32.8801 52.8178 31.6685 52.8178 30.1716C52.8178 28.2432 51.7458 27.0063 49.2339 26.039Z" fill="#D2D2D2"/>
<path d="M61.9711 18.792C60.6391 18.792 59.38 19.1409 58.2319 19.8259C57.0108 20.5649 56.072 21.5639 55.3616 22.8865C54.7114 24.1329 54.3848 25.4999 54.3848 26.9493C54.3848 29.0901 55.0381 30.9613 56.3226 32.5027C57.81 34.2978 59.7732 35.2048 62.1583 35.2048C65.1332 35.2048 67.6038 33.7522 69.1167 31.1167L69.2435 30.8978L66.6555 29.8037L66.5572 29.9781C65.5708 31.7098 64.1246 32.5534 62.1424 32.5534C61.1719 32.5534 60.341 32.3155 59.5925 31.8208C58.7615 31.2848 58.1462 30.5331 57.7561 29.5816C57.5912 29.1979 57.4675 28.7634 57.3787 28.2591H69.4211L69.4306 28.0466C69.4465 27.6914 69.4465 27.4345 69.4465 27.2854C69.4465 24.837 68.7424 22.7882 67.3533 21.1929C65.9673 19.6008 64.1563 18.7952 61.9743 18.7952L61.9711 18.792ZM66.1576 24.3962C66.3193 24.7958 66.443 25.2398 66.5223 25.725H57.3755C57.6102 24.431 58.1113 23.432 58.9042 22.6708C59.7606 21.8462 60.7691 21.4466 61.9902 21.4466C62.8814 21.4466 63.6933 21.6876 64.4005 22.1602C65.1871 22.6994 65.7611 23.432 66.1576 24.3993V24.3962Z" fill="#D2D2D2"/>
<path d="M78.2283 26.039L76.7409 25.4554C75.6657 25.0304 75.0219 24.7354 74.8348 24.5737C74.4383 24.2343 74.2448 23.8157 74.2448 23.2924C74.2448 22.1665 75.1836 21.3799 76.5252 21.3799C77.1151 21.3799 77.6225 21.5417 78.0793 21.8715C78.3552 22.0713 78.6565 22.4234 78.9736 22.915L79.0846 23.0894L81.4221 21.8493L81.3111 21.6495C80.2518 19.7561 78.6628 18.7951 76.5886 18.7951C75.2407 18.7951 74.1021 19.1947 73.1063 20.0162C72.0533 20.8757 71.5205 22.0143 71.5205 23.3971C71.5205 25.2397 72.6147 26.5972 74.7681 27.4313L76.4078 28.0846C77.4703 28.4874 78.1744 28.8426 78.5042 29.1407C78.7929 29.4167 78.9356 29.7941 78.9356 30.2984C78.9356 30.8439 78.7548 31.3291 78.3901 31.7731C77.9238 32.3155 77.2864 32.5787 76.4396 32.5787C75.726 32.5787 75.1646 32.4074 74.7237 32.0586C74.2702 31.697 73.8167 31.05 73.3853 30.1334L73.2934 29.94L70.791 30.9929L70.8703 31.1959C71.9011 33.8632 73.7437 35.2143 76.3412 35.2143C77.8255 35.2143 79.0942 34.7703 80.1122 33.8886C81.254 32.8864 81.809 31.6748 81.809 30.1778C81.809 28.2495 80.737 27.0126 78.2251 26.0453L78.2283 26.039Z" fill="#D2D2D2"/>
<path d="M90.5779 26.039L89.0905 25.4554C88.0153 25.0304 87.3715 24.7354 87.1844 24.5737C86.7879 24.2343 86.5945 23.8157 86.5945 23.2924C86.5945 22.1665 87.5332 21.3799 88.8748 21.3799C89.4647 21.3799 89.9722 21.5417 90.4289 21.8715C90.7048 22.0713 91.0061 22.4234 91.3232 22.915L91.4342 23.0894L93.7717 21.8493L93.6607 21.6495C92.6014 19.7561 91.0124 18.7951 88.9382 18.7951C87.5903 18.7951 86.4517 19.1947 85.4559 20.0162C84.4029 20.8757 83.8701 22.0143 83.8701 23.3971C83.8701 25.2397 84.9643 26.5972 87.1178 27.4313L88.7575 28.0846C89.8199 28.4874 90.524 28.8426 90.8539 29.1407C91.1425 29.4167 91.2852 29.7941 91.2852 30.2984C91.2852 30.8439 91.1044 31.3291 90.7397 31.7731C90.2735 32.3155 89.636 32.5787 88.7892 32.5787C88.0756 32.5787 87.5142 32.4074 87.0734 32.0586C86.6198 31.697 86.1663 31.05 85.735 30.1334L85.643 29.94L83.1406 30.9929L83.2199 31.1959C84.2507 33.8632 86.0933 35.2143 88.6909 35.2143C90.1751 35.2143 91.4438 34.7703 92.4618 33.8886C93.6036 32.8864 94.1586 31.6748 94.1586 30.1778C94.1586 28.2495 93.0866 27.0126 90.5748 26.0453L90.5779 26.039Z" fill="#D2D2D2"/>
<path d="M99.6146 19.1916H96.7285V34.8052H99.6146V19.1916Z" fill="#D2D2D2"/>
<path d="M110.354 18.792C108.184 18.792 106.329 19.4866 104.841 20.8535C103.088 22.4552 102.196 24.5008 102.196 26.9302C102.196 29.0964 102.885 30.9771 104.239 32.5217C105.796 34.3009 107.807 35.2048 110.22 35.2048C112.31 35.2048 114.128 34.5102 115.615 33.1433C117.369 31.5417 118.26 29.4675 118.26 26.981C118.26 24.8687 117.572 23.0165 116.218 21.472C114.645 19.6927 112.672 18.792 110.354 18.792ZM110.22 32.5534C108.809 32.5534 107.597 32.0586 106.621 31.0818C105.612 30.0732 105.098 28.6968 105.098 26.9968C105.098 25.5284 105.476 24.3105 106.218 23.3781C107.236 22.0873 108.514 21.4593 110.135 21.4593C111.644 21.4593 112.862 21.9414 113.852 22.9309C114.851 23.9299 115.355 25.281 115.355 26.9493C115.355 28.4431 114.994 29.6514 114.248 30.6378C113.249 31.9286 111.93 32.5534 110.217 32.5534H110.22Z" fill="#D2D2D2"/>
<path d="M132.741 20.7869C131.539 19.4644 129.953 18.792 128.031 18.792C126.268 18.792 124.812 19.3756 123.696 20.5268V19.1916H120.81V34.8052H123.696V27C123.696 25.0241 124 23.6572 124.596 22.9341C125.348 22.0238 126.401 21.5798 127.812 21.5798C128.945 21.5798 129.823 21.935 130.502 22.6581C131.212 23.432 131.479 24.5198 131.479 26.6638V34.8052H134.365V26.3657C134.365 23.6445 133.892 22.0302 132.738 20.7869H132.741Z" fill="#D2D2D2"/>
</g>
<defs>
<filter id="filter0_d_909_7143" x="0.0546875" y="0.48851" width="39.1357" height="51.9008" filterUnits="userSpaceOnUse" color-interpolation-filters="sRGB">
<feFlood flood-opacity="0" result="BackgroundImageFix"/>
<feColorMatrix in="SourceAlpha" type="matrix" values="0 0 0 0 0 0 0 0 0 0 0 0 0 0 0 0 0 0 127 0" result="hardAlpha"/>
<feOffset/>
<feGaussianBlur stdDeviation="4"/>
<feComposite in2="hardAlpha" operator="out"/>
<feColorMatrix type="matrix" values="0 0 0 0 0.631373 0 0 0 0 0.917647 0 0 0 0 0.0156863 0 0 0 0.4 0"/>
<feBlend mode="normal" in2="BackgroundImageFix" result="effect1_dropShadow_909_7143"/>
<feBlend mode="normal" in="SourceGraphic" in2="effect1_dropShadow_909_7143" result="shape"/>
</filter>
<linearGradient id="paint0_linear_909_7143" x1="31.1929" y1="26.4202" x2="8.05002" y2="26.4202" gradientUnits="userSpaceOnUse">
<stop stop-color="#A1EA04"/>
<stop offset="1" stop-color="#DAEB02"/>
</linearGradient>
<clipPath id="clip0_909_7143">
<rect width="92.5714" height="16.416" fill="white" transform="translate(41.7998 18.792)"/>
</clipPath>
</defs>
</svg>
