<svg width="93" height="41" viewBox="0 0 93 41" fill="none" xmlns="http://www.w3.org/2000/svg">
<g filter="url(#filter0_d_901_1171)">
<path d="M24.1128 22.6327C24.0024 21.0286 23.2832 19.5258 22.1006 18.4277C20.918 17.3297 19.3599 16.7181 17.7409 16.7165C17.5985 16.7165 17.4578 16.7165 17.319 16.7306V15.3461C18.1924 15.1878 18.9824 14.7305 19.5516 14.0538C20.1208 13.3771 20.4332 12.5236 20.4346 11.6419C20.4346 11.5906 20.4346 11.5375 20.4346 11.488C20.3932 10.7368 20.0686 10.0286 19.5252 9.50435C18.9818 8.98011 18.2596 8.6783 17.5023 8.65898H17.3243C17.1115 8.67363 16.9046 8.73479 16.7184 8.83811C16.5322 8.94142 16.3713 9.08434 16.2472 9.25662C16.0692 9.50233 15.9733 9.79733 15.973 10.1V14.1084C15.8965 14.1084 15.8181 14.1208 15.7398 14.1314C15.1976 14.1934 14.6635 14.312 14.1464 14.4851C12.4101 15.057 10.9258 16.2066 9.9441 17.7396C8.96243 19.2726 8.54358 21.0952 8.75829 22.8994C8.973 24.7036 9.80811 26.3789 11.1226 27.6424C12.437 28.9059 14.1503 29.6802 15.973 29.8344C15.973 30.2096 15.823 30.5693 15.5559 30.8346C15.2887 31.0999 14.9265 31.2489 14.5487 31.2489C14.5137 31.2507 14.4787 31.2507 14.4437 31.2489C14.0298 31.2006 13.6297 31.0707 13.2669 30.867V32.2815C13.6889 32.4999 14.1604 32.6066 14.636 32.5914C15.1115 32.5763 15.5752 32.4397 15.9822 32.1948C16.3892 31.95 16.7258 31.6052 16.9596 31.1936C17.1935 30.782 17.3166 30.3176 17.3172 29.845H17.3296C18.6856 29.7304 19.9885 29.2686 21.1111 28.5047C21.4319 28.2883 21.7354 28.0477 22.0191 27.7851L22.1437 27.6719L22.2559 27.5623C22.3289 27.4916 22.3965 27.4191 22.466 27.3448C22.7477 27.0439 23.0054 26.7218 23.2369 26.3812V26.3087C23.8208 25.3323 24.1283 24.2174 24.127 23.0818C24.1288 22.9156 24.1253 22.7724 24.1128 22.6327ZM17.319 10.1637C17.319 10.1205 17.3362 10.0792 17.3669 10.0487C17.3977 10.0182 17.4393 10.001 17.4828 10.001C17.8982 10.0155 18.2932 10.184 18.5898 10.4733C18.8864 10.7626 19.0631 11.1518 19.0851 11.5641C19.0851 11.5923 19.0851 11.6206 19.0851 11.6507C19.0851 11.6808 19.0851 11.7073 19.0851 11.7356C19.0664 12.2462 18.886 12.738 18.5696 13.1408C18.2531 13.5437 17.8167 13.8372 17.3225 13.9794L17.319 10.1637ZM15.9677 25.3521C15.3632 25.2334 14.8013 24.9573 14.3395 24.5522C13.8777 24.147 13.5325 23.6273 13.3392 23.0462C13.146 22.4651 13.1117 21.8434 13.2397 21.2448C13.3678 20.6462 13.6536 20.0921 14.068 19.6392L14.1802 19.5243L14.2443 19.4624L14.3066 19.4041C14.7872 18.9573 15.3516 18.6088 15.9677 18.3785V25.3521ZM15.9677 16.9658C15.0556 17.2295 14.2144 17.6922 13.5054 18.3202L13.4876 18.3361C13.4698 18.352 13.4503 18.3661 13.4325 18.3838C13.4146 18.4015 13.3684 18.4404 13.3363 18.4705C13.2704 18.5324 13.2081 18.5942 13.144 18.6597C13.1191 18.6862 13.0924 18.7127 13.0675 18.741C12.4782 19.3864 12.0771 20.1789 11.9073 21.0336C11.7374 21.8883 11.8052 22.7728 12.1034 23.5921C12.4016 24.4114 12.9189 25.1346 13.5997 25.6839C14.2805 26.2332 15.0991 26.588 15.9677 26.7101V28.4782C14.3299 28.3313 12.8066 27.5813 11.6973 26.3756C10.588 25.1699 9.97291 23.5958 9.97291 21.9626C9.97291 20.3294 10.588 18.7552 11.6973 17.5495C12.8066 16.3438 14.3299 15.5938 15.9677 15.4469V16.9658ZM21.4761 26.413C21.4209 26.4731 21.3639 26.5333 21.2981 26.5898C21.2696 26.6199 21.2393 26.6482 21.209 26.6765C21.1963 26.6903 21.1826 26.7033 21.1681 26.7154L21.0987 26.779C20.0548 27.7362 18.7269 28.3318 17.3136 28.4765V26.7083C18.2561 26.5779 19.1381 26.1716 19.8471 25.5413L19.9806 25.4193L20.0518 25.3504L20.1729 25.2248C20.5447 24.8182 20.8219 24.3353 20.9847 23.8103H19.5266C19.4397 23.9766 19.3334 24.1321 19.2097 24.2736L19.0975 24.3938C19.0673 24.4221 19.0388 24.4521 19.0067 24.4804C18.5337 24.9179 17.9475 25.216 17.3136 25.3415V18.0744C17.4525 18.0638 17.5931 18.0567 17.7356 18.0567C18.5768 18.0558 19.4047 18.2656 20.1426 18.6667C21.2018 19.2409 22.0195 20.1722 22.4482 21.2924C22.6123 21.7229 22.7154 22.174 22.7544 22.6327C22.7669 22.7742 22.7722 22.9156 22.7722 23.0588C22.7755 24.2978 22.3141 25.4936 21.4779 26.413H21.4761Z" fill="url(#paint0_linear_901_1171)"/>
</g>
<g clip-path="url(#clip0_901_1171)">
<path d="M36.156 20.3593L35.1644 19.9703C34.4476 19.687 34.0184 19.4903 33.8937 19.3825C33.6294 19.1563 33.5004 18.8772 33.5004 18.5283C33.5004 17.7777 34.1262 17.2533 35.0206 17.2533C35.4139 17.2533 35.7522 17.3612 36.0567 17.5811C36.2406 17.7143 36.4415 17.949 36.6529 18.2767L36.7269 18.393L38.2852 17.5663L38.2112 17.433C37.5071 16.1687 36.4478 15.528 35.065 15.528C34.1664 15.528 33.4074 15.7944 32.7434 16.342C32.0436 16.9129 31.6884 17.672 31.6884 18.5938C31.6884 19.8223 32.4178 20.7272 33.8535 21.2833L34.9466 21.7189C35.6549 21.9874 36.1243 22.2242 36.3442 22.423C36.5366 22.6069 36.6318 22.8585 36.6318 23.1947C36.6318 23.5584 36.5113 23.8819 36.266 24.1779C35.9552 24.5395 35.5302 24.7149 34.9656 24.7149C34.4899 24.7149 34.1157 24.6008 33.8218 24.3682C33.5194 24.1272 33.2171 23.6958 32.9295 23.0848L32.8682 22.9558L31.2 23.6578L31.2528 23.7931C31.94 25.5713 33.1684 26.472 34.9001 26.472C35.8896 26.472 36.7354 26.176 37.4141 25.5882C38.1753 24.92 38.5453 24.1123 38.5453 23.1144C38.5453 21.8288 37.8306 21.0042 36.156 20.3593Z" fill="#D2D2D2"/>
<path d="M44.6473 15.528C43.7593 15.528 42.9199 15.7606 42.1545 16.2173C41.3404 16.7099 40.7146 17.376 40.2409 18.2577C39.8075 19.0886 39.5897 19.9999 39.5897 20.9662C39.5897 22.3934 40.0253 23.6408 40.8816 24.6684C41.8732 25.8652 43.182 26.4699 44.772 26.4699C46.7553 26.4699 48.4024 25.5015 49.411 23.7444L49.4956 23.5986L47.7702 22.8691L47.7047 22.9854C47.0471 24.1398 46.083 24.7023 44.7615 24.7023C44.1145 24.7023 43.5605 24.5437 43.0615 24.2138C42.5076 23.8565 42.0974 23.3554 41.8373 22.7211C41.7274 22.4653 41.6449 22.1756 41.5857 21.8394H49.614L49.6203 21.6977C49.6309 21.4609 49.6309 21.2897 49.6309 21.1903C49.6309 19.558 49.1615 18.1921 48.2354 17.1286C47.3114 16.0672 46.1041 15.5301 44.6494 15.5301L44.6473 15.528ZM47.4383 19.2641C47.5461 19.5305 47.6286 19.8265 47.6814 20.15H41.5836C41.74 19.2874 42.0741 18.6213 42.6027 18.1139C43.1736 17.5641 43.846 17.2977 44.66 17.2977C45.2541 17.2977 45.7954 17.4584 46.2669 17.7735C46.7913 18.1329 47.174 18.6213 47.4383 19.2662V19.2641Z" fill="#D2D2D2"/>
<path d="M55.4857 20.3593L54.494 19.9703C53.7773 19.687 53.348 19.4903 53.2233 19.3825C52.959 19.1563 52.83 18.8772 52.83 18.5283C52.83 17.7777 53.4559 17.2533 54.3502 17.2533C54.7435 17.2533 55.0818 17.3612 55.3863 17.5811C55.5702 17.7143 55.7711 17.949 55.9825 18.2767L56.0565 18.393L57.6148 17.5663L57.5408 17.4331C56.8346 16.1708 55.7753 15.5301 54.3925 15.5301C53.4939 15.5301 52.7349 15.7965 52.071 16.3442C51.369 16.9171 51.0138 17.6762 51.0138 18.5981C51.0138 19.8265 51.7432 20.7315 53.1789 21.2876L54.272 21.7231C54.9803 21.9916 55.4497 22.2285 55.6696 22.4272C55.862 22.6112 55.9572 22.8628 55.9572 23.1989C55.9572 23.5626 55.8367 23.8861 55.5935 24.1821C55.2827 24.5437 54.8577 24.7192 54.2932 24.7192C53.8174 24.7192 53.4432 24.605 53.1493 24.3724C52.8469 24.1314 52.5446 23.7001 52.257 23.089L52.1957 22.96L50.5275 23.662L50.5803 23.7973C51.2675 25.5755 52.4959 26.4762 54.2276 26.4762C55.2171 26.4762 56.0629 26.1802 56.7416 25.5924C57.5028 24.9243 57.8728 24.1166 57.8728 23.1186C57.8728 21.8331 57.1581 21.0085 55.4836 20.3636L55.4857 20.3593Z" fill="#D2D2D2"/>
<path d="M63.7189 20.3593L62.7273 19.9703C62.0105 19.687 61.5813 19.4903 61.4566 19.3825C61.1923 19.1563 61.0633 18.8772 61.0633 18.5283C61.0633 17.7777 61.6891 17.2533 62.5835 17.2533C62.9768 17.2533 63.3151 17.3612 63.6196 17.5811C63.8035 17.7143 64.0044 17.949 64.2158 18.2767L64.2898 18.393L65.8481 17.5663L65.7741 17.4331C65.0679 16.1708 64.0086 15.5301 62.6258 15.5301C61.7272 15.5301 60.9681 15.7965 60.3042 16.3442C59.6023 16.9171 59.247 17.6762 59.247 18.5981C59.247 19.8265 59.9765 20.7315 61.4122 21.2876L62.5053 21.7231C63.2136 21.9916 63.683 22.2285 63.9029 22.4272C64.0953 22.6112 64.1904 22.8628 64.1904 23.1989C64.1904 23.5626 64.0699 23.8861 63.8268 24.1821C63.516 24.5437 63.091 24.7192 62.5264 24.7192C62.0507 24.7192 61.6765 24.605 61.3826 24.3724C61.0802 24.1314 60.7779 23.7001 60.4903 23.089L60.429 22.96L58.7607 23.662L58.8136 23.7973C59.5008 25.5755 60.7292 26.4762 62.4609 26.4762C63.4504 26.4762 64.2962 26.1802 64.9749 25.5924C65.7361 24.9243 66.1061 24.1166 66.1061 23.1186C66.1061 21.8331 65.3914 21.0085 63.7168 20.3636L63.7189 20.3593Z" fill="#D2D2D2"/>
<path d="M69.7428 15.7944H67.8187V26.2035H69.7428V15.7944Z" fill="#D2D2D2"/>
<path d="M76.9022 15.528C75.4559 15.528 74.219 15.991 73.2274 16.9023C72.0581 17.9701 71.464 19.3339 71.464 20.9535C71.464 22.3976 71.9228 23.6514 72.8256 24.6811C73.8638 25.8673 75.2043 26.4699 76.8134 26.4699C78.2067 26.4699 79.4183 26.0068 80.4099 25.0955C81.5791 24.0278 82.1733 22.645 82.1733 20.9873C82.1733 19.5791 81.7145 18.3443 80.8116 17.3146C79.7629 16.1285 78.4478 15.528 76.9022 15.528ZM76.8134 24.7023C75.8725 24.7023 75.0648 24.3724 74.4135 23.7212C73.7412 23.0488 73.3986 22.1312 73.3986 20.9979C73.3986 20.0189 73.6503 19.207 74.145 18.5854C74.8237 17.7248 75.6758 17.3062 76.7563 17.3062C77.7627 17.3062 78.5746 17.6276 79.2343 18.2873C79.9003 18.9533 80.2365 19.854 80.2365 20.9662C80.2365 21.962 79.9955 22.7676 79.4986 23.4252C78.8326 24.2857 77.953 24.7023 76.8112 24.7023H76.8134Z" fill="#D2D2D2"/>
<path d="M91.8274 16.8579C91.0261 15.9762 89.9689 15.528 88.6876 15.528C87.512 15.528 86.5415 15.917 85.7972 16.6846V15.7944H83.8732V26.2035H85.7972V21C85.7972 19.6827 86.0002 18.7714 86.3977 18.2894C86.8988 17.6825 87.6008 17.3865 88.5417 17.3865C89.2965 17.3865 89.8822 17.6233 90.3347 18.1054C90.8083 18.6213 90.9859 19.3466 90.9859 20.7759V26.2035H92.91V20.5771C92.91 18.763 92.595 17.6868 91.8253 16.8579H91.8274Z" fill="#D2D2D2"/>
</g>
<defs>
<filter id="filter0_d_901_1171" x="0.703369" y="0.658981" width="31.4241" height="39.9339" filterUnits="userSpaceOnUse" color-interpolation-filters="sRGB">
<feFlood flood-opacity="0" result="BackgroundImageFix"/>
<feColorMatrix in="SourceAlpha" type="matrix" values="0 0 0 0 0 0 0 0 0 0 0 0 0 0 0 0 0 0 127 0" result="hardAlpha"/>
<feOffset/>
<feGaussianBlur stdDeviation="4"/>
<feComposite in2="hardAlpha" operator="out"/>
<feColorMatrix type="matrix" values="0 0 0 0 0.631373 0 0 0 0 0.917647 0 0 0 0 0.0156863 0 0 0 0.4 0"/>
<feBlend mode="normal" in2="BackgroundImageFix" result="effect1_dropShadow_901_1171"/>
<feBlend mode="normal" in="SourceGraphic" in2="effect1_dropShadow_901_1171" result="shape"/>
</filter>
<linearGradient id="paint0_linear_901_1171" x1="24.1288" y1="20.6135" x2="8.70026" y2="20.6135" gradientUnits="userSpaceOnUse">
<stop stop-color="#A1EA04"/>
<stop offset="1" stop-color="#DAEB02"/>
</linearGradient>
<clipPath id="clip0_901_1171">
<rect width="61.7143" height="10.944" fill="white" transform="translate(31.2 15.528)"/>
</clipPath>
</defs>
</svg>
