<svg width="28" height="28" viewBox="0 0 28 28" fill="none" xmlns="http://www.w3.org/2000/svg">
<g filter="url(#filter0_d_148_21414)">
<path fill-rule="evenodd" clip-rule="evenodd" d="M8.50175 17.5921C8.24301 18.8341 9.19109 20 10.4597 20H17.5405C18.8091 20 19.7572 18.8341 19.4985 17.5921L17.8318 9.59209C17.6386 8.66465 16.8212 8 15.8738 8H12.1264C11.179 8 10.3616 8.66465 10.1684 9.59209L8.50175 17.5921ZM13.9763 12C14.5286 12 14.9763 11.5523 14.9763 11C14.9763 10.4477 14.5286 10 13.9763 10C13.424 10 12.9763 10.4477 12.9763 11C12.9763 11.5523 13.424 12 13.9763 12ZM14.0001 14C13.1717 14 12.5001 14.6716 12.5001 15.5C12.5001 16.3284 13.1717 17 14.0001 17C14.8285 17 15.5001 16.3284 15.5001 15.5C15.5001 14.6716 14.8285 14 14.0001 14ZM11.5001 15.5C11.5001 14.1193 12.6194 13 14.0001 13C15.3808 13 16.5001 14.1193 16.5001 15.5C16.5001 16.8807 15.3808 18 14.0001 18C12.6194 18 11.5001 16.8807 11.5001 15.5Z" fill="url(#paint0_linear_148_21414)"/>
</g>
<defs>
<filter id="filter0_d_148_21414" x="0.458984" y="0" width="27.082" height="28" filterUnits="userSpaceOnUse" color-interpolation-filters="sRGB">
<feFlood flood-opacity="0" result="BackgroundImageFix"/>
<feColorMatrix in="SourceAlpha" type="matrix" values="0 0 0 0 0 0 0 0 0 0 0 0 0 0 0 0 0 0 127 0" result="hardAlpha"/>
<feOffset/>
<feGaussianBlur stdDeviation="4"/>
<feComposite in2="hardAlpha" operator="out"/>
<feColorMatrix type="matrix" values="0 0 0 0 0.631373 0 0 0 0 0.917647 0 0 0 0 0.0156863 0 0 0 0.4 0"/>
<feBlend mode="normal" in2="BackgroundImageFix" result="effect1_dropShadow_148_21414"/>
<feBlend mode="normal" in="SourceGraphic" in2="effect1_dropShadow_148_21414" result="shape"/>
</filter>
<linearGradient id="paint0_linear_148_21414" x1="19.5435" y1="13.995" x2="8.45785" y2="13.995" gradientUnits="userSpaceOnUse">
<stop stop-color="#A1EA04"/>
<stop offset="1" stop-color="#DAEB02"/>
</linearGradient>
</defs>
</svg>
