<svg width="28" height="28" viewBox="0 0 28 28" fill="none" xmlns="http://www.w3.org/2000/svg">
<path d="M24.0685 19.0929C23.6915 19.9489 23.2452 20.7368 22.7281 21.4612C22.0233 22.4487 21.4462 23.1323 21.0015 23.5119C20.3121 24.1349 19.5734 24.454 18.7824 24.4722C18.2145 24.4722 17.5297 24.3134 16.7325 23.9913C15.9328 23.6707 15.1978 23.5119 14.5257 23.5119C13.8209 23.5119 13.065 23.6707 12.2565 23.9913C11.4467 24.3134 10.7943 24.4813 10.2956 24.4979C9.53705 24.5297 8.78098 24.2015 8.0263 23.5119C7.54462 23.099 6.94214 22.3913 6.22038 21.3886C5.446 20.3179 4.80936 19.0763 4.31059 17.6608C3.77644 16.1319 3.50867 14.6513 3.50867 13.218C3.50867 11.5761 3.8697 10.1599 4.59283 8.97323C5.16115 8.02003 5.91722 7.26812 6.8635 6.71613C7.80977 6.16414 8.83223 5.88285 9.93332 5.86485C10.5358 5.86485 11.3259 6.04799 12.3077 6.40792C13.2868 6.76906 13.9154 6.9522 14.191 6.9522C14.3971 6.9522 15.0954 6.73805 16.2793 6.31113C17.3989 5.91521 18.3438 5.75128 19.1179 5.81585C21.2154 5.98221 22.7912 6.79477 23.8392 8.25867C21.9633 9.37566 21.0353 10.9401 21.0538 12.9471C21.0707 14.5104 21.6478 15.8112 22.782 16.8441C23.296 17.3235 23.87 17.6941 24.5087 17.9572C24.3702 18.3519 24.224 18.73 24.0685 19.0929V19.0929ZM19.2579 0.49014C19.2579 1.71542 18.8024 2.85946 17.8944 3.91837C16.7987 5.17721 15.4734 5.90463 14.0362 5.78984C14.0179 5.64285 14.0073 5.48814 14.0073 5.32557C14.0073 4.1493 14.5284 2.89046 15.4537 1.86119C15.9157 1.34005 16.5032 0.906733 17.2158 0.561066C17.9267 0.220556 18.5992 0.0322471 19.2317 0C19.2502 0.163801 19.2579 0.327612 19.2579 0.490124V0.49014Z" fill="white"/>
</svg>
