<svg width="28" height="28" viewBox="0 0 28 28" fill="none" xmlns="http://www.w3.org/2000/svg">
<path d="M13.9647 11.7727V16.5168H20.5574C20.2679 18.0425 19.3992 19.3343 18.0962 20.2029L22.0719 23.2877C24.3882 21.1496 25.7246 18.0091 25.7246 14.2785C25.7246 13.4099 25.6467 12.5746 25.5019 11.7728L13.9647 11.7727Z" fill="#4285F4"/>
<path d="M7.09948 16.3316L6.20282 17.018L3.0289 19.4902C5.04458 23.4881 9.17586 26.25 13.9645 26.25C17.2719 26.25 20.0448 25.1586 22.0717 23.2877L18.096 20.2029C17.0046 20.9379 15.6126 21.3834 13.9645 21.3834C10.7795 21.3834 8.07342 19.2341 7.10449 16.3386L7.09948 16.3316Z" fill="#34A853"/>
<path d="M3.02889 8.5098C2.19371 10.1579 1.7149 12.0177 1.7149 13.9999C1.7149 15.9822 2.19371 17.842 3.02889 19.4901C3.02889 19.5012 7.10487 16.3274 7.10487 16.3274C6.85987 15.5924 6.71506 14.8129 6.71506 13.9998C6.71506 13.1868 6.85987 12.4073 7.10487 11.6723L3.02889 8.5098Z" fill="#FBBC05"/>
<path d="M13.9647 6.62772C15.7688 6.62772 17.3724 7.25134 18.6531 8.45409L22.161 4.94618C20.034 2.96394 17.2723 1.75 13.9647 1.75C9.17611 1.75 5.04458 4.50068 3.0289 8.50978L7.10475 11.6725C8.07356 8.77702 10.7797 6.62772 13.9647 6.62772Z" fill="#EA4335"/>
</svg>
