<svg width="40" height="38" viewBox="0 0 40 38" fill="none" xmlns="http://www.w3.org/2000/svg">
<g filter="url(#filter0_d_157_101190)">
<path fill-rule="evenodd" clip-rule="evenodd" d="M25.625 9.6875C25.625 9.16973 25.2053 8.75 24.6875 8.75C24.1697 8.75 23.75 9.16973 23.75 9.6875V10.625H16.25V9.6875C16.25 9.16973 15.8303 8.75 15.3125 8.75C14.7947 8.75 14.375 9.16973 14.375 9.6875V10.625H11.75C10.0931 10.625 8.75 11.9681 8.75 13.625V26.375C8.75 28.0319 10.0931 29.375 11.75 29.375H28.25C29.9069 29.375 31.25 28.0319 31.25 26.375V13.625C31.25 11.9681 29.9069 10.625 28.25 10.625H25.625V9.6875ZM15.3125 13.4375C14.7947 13.4375 14.375 13.0178 14.375 12.5H11.75C11.1287 12.5 10.625 13.0037 10.625 13.625V15.3125H29.375V13.625C29.375 13.0037 28.8713 12.5 28.25 12.5H25.625C25.625 13.0178 25.2053 13.4375 24.6875 13.4375C24.1697 13.4375 23.75 13.0178 23.75 12.5H16.25C16.25 13.0178 15.8303 13.4375 15.3125 13.4375Z" fill="url(#paint0_linear_157_101190)"/>
</g>
<g clip-path="url(#clip0_157_101190)">
<path d="M17.3586 21.599H17.9855C18.2989 21.599 18.5416 21.552 18.7242 21.4619C18.9902 21.3304 19.1737 21.0196 19.1737 20.6985C19.1737 20.1462 18.7305 19.7828 18.0446 19.7828C17.7724 19.7828 17.5476 19.841 17.3649 19.9509C17.1813 20.0665 16.9861 20.2769 16.7676 20.5821L15.5668 20.0043C15.8507 19.5724 16.1346 19.2568 16.4184 19.0624C16.8679 18.7515 17.4061 18.5938 18.0383 18.5938C18.7242 18.5938 19.2982 18.7619 19.7648 19.099C20.3146 19.5039 20.5868 20.0251 20.5868 20.6674C20.5868 21.2308 20.3441 21.7098 19.8597 22.1043C20.1435 22.3202 20.3504 22.5362 20.4749 22.741C20.6701 23.0518 20.765 23.4041 20.765 23.7882C20.765 24.5357 20.4578 25.1247 19.8364 25.5566C19.3215 25.9144 18.7072 26.0938 18.0034 26.0938C17.1581 26.0938 16.4892 25.8467 15.9868 25.3462C15.8149 25.1781 15.685 24.9988 15.591 24.8091C15.4961 24.625 15.4021 24.3564 15.3134 24.009L16.7094 23.6878C16.8097 24.0512 16.9163 24.3086 17.0291 24.4616C17.2306 24.7509 17.561 24.8936 18.0285 24.8936C18.4126 24.8936 18.726 24.7939 18.9687 24.5883C19.2114 24.3827 19.3296 24.1197 19.3296 23.7938C19.3296 23.1148 18.8621 22.7625 17.9873 22.7625H17.3604V21.5998L17.3586 21.599Z" fill="#1A1A18"/>
<path d="M24.2188 25.936H22.7878V20.2777L21.7706 20.7933L21.0909 19.7565L23.0771 18.7516H24.2188V25.936Z" fill="#1A1A18"/>
</g>
<defs>
<filter id="filter0_d_157_101190" x="0.75" y="0.75" width="38.5" height="36.625" filterUnits="userSpaceOnUse" color-interpolation-filters="sRGB">
<feFlood flood-opacity="0" result="BackgroundImageFix"/>
<feColorMatrix in="SourceAlpha" type="matrix" values="0 0 0 0 0 0 0 0 0 0 0 0 0 0 0 0 0 0 127 0" result="hardAlpha"/>
<feOffset/>
<feGaussianBlur stdDeviation="4"/>
<feComposite in2="hardAlpha" operator="out"/>
<feColorMatrix type="matrix" values="0 0 0 0 0.631373 0 0 0 0 0.917647 0 0 0 0 0.0156863 0 0 0 0.4 0"/>
<feBlend mode="normal" in2="BackgroundImageFix" result="effect1_dropShadow_157_101190"/>
<feBlend mode="normal" in="SourceGraphic" in2="effect1_dropShadow_157_101190" result="shape"/>
</filter>
<linearGradient id="paint0_linear_157_101190" x1="31.2546" y1="19.0539" x2="8.74769" y2="19.0539" gradientUnits="userSpaceOnUse">
<stop stop-color="#A1EA04"/>
<stop offset="1" stop-color="#DAEB02"/>
</linearGradient>
<clipPath id="clip0_157_101190">
<rect width="8.90625" height="7.5" fill="white" transform="translate(15.3125 18.5938)"/>
</clipPath>
</defs>
</svg>
