<svg width="26" height="32" viewBox="0 0 26 32" fill="none" xmlns="http://www.w3.org/2000/svg">
<g filter="url(#filter0_d_4006_360)">
<path d="M17.865 17.3505C17.7911 16.2772 17.3099 15.2718 16.5187 14.5371C15.7274 13.8025 14.685 13.3933 13.6018 13.3922C13.5065 13.3922 13.4124 13.3922 13.3195 13.4017V12.4754C13.9039 12.3694 14.4324 12.0635 14.8133 11.6107C15.1941 11.1579 15.4031 10.587 15.4041 9.99699C15.4041 9.96269 15.4041 9.9272 15.4041 9.89407C15.3764 9.39146 15.1592 8.91762 14.7956 8.56688C14.4321 8.21614 13.9489 8.01421 13.4422 8.00128H13.3231C13.1807 8.01108 13.0423 8.052 12.9177 8.12113C12.7931 8.19025 12.6855 8.28587 12.6024 8.40113C12.4834 8.56553 12.4192 8.7629 12.419 8.96543V11.6473C12.3678 11.6473 12.3154 11.6556 12.263 11.6627C11.9002 11.7041 11.5429 11.7834 11.1969 11.8993C10.0352 12.2819 9.04211 13.0511 8.38532 14.0767C7.72853 15.1024 7.4483 16.3218 7.59195 17.5289C7.73561 18.736 8.29434 19.8569 9.17379 20.7023C10.0532 21.5476 11.1995 22.0656 12.419 22.1688C12.419 22.4198 12.3186 22.6605 12.1399 22.838C11.9612 23.0155 11.7188 23.1152 11.4661 23.1152C11.4427 23.1164 11.4192 23.1164 11.3958 23.1152C11.1189 23.0829 10.8512 22.996 10.6084 22.8597V23.8061C10.8908 23.9522 11.2062 24.0236 11.5244 24.0134C11.8426 24.0033 12.1528 23.9119 12.4251 23.7481C12.6974 23.5843 12.9227 23.3536 13.0791 23.0782C13.2356 22.8028 13.3179 22.4921 13.3183 22.1759H13.3267C14.2339 22.0993 15.1056 21.7903 15.8567 21.2792C16.0713 21.1344 16.2744 20.9734 16.4642 20.7977L16.5476 20.722L16.6226 20.6487C16.6714 20.6014 16.7167 20.5529 16.7632 20.5032C16.9516 20.3019 17.1241 20.0863 17.2789 19.8584V19.8099C17.6696 19.1567 17.8754 18.4108 17.8745 17.651C17.8757 17.5398 17.8733 17.4439 17.865 17.3505ZM13.3195 9.00801C13.3195 8.97915 13.3311 8.95147 13.3516 8.93106C13.3722 8.91065 13.4 8.89918 13.4291 8.89918C13.7071 8.90885 13.9713 9.02157 14.1698 9.21514C14.3682 9.40872 14.4864 9.66909 14.5012 9.94494C14.5012 9.96387 14.5012 9.9828 14.5012 10.0029C14.5012 10.023 14.5012 10.0408 14.5012 10.0597C14.4887 10.4013 14.368 10.7304 14.1562 10.9999C13.9445 11.2694 13.6525 11.4658 13.3219 11.5609L13.3195 9.00801ZM12.4154 19.1699C12.011 19.0905 11.6351 18.9058 11.3261 18.6347C11.0171 18.3637 10.7862 18.0159 10.6569 17.6271C10.5276 17.2384 10.5046 16.8224 10.5903 16.4219C10.676 16.0214 10.8672 15.6507 11.1445 15.3477L11.2195 15.2708L11.2624 15.2294L11.3041 15.1903C11.6256 14.8914 12.0032 14.6583 12.4154 14.5042V19.1699ZM12.4154 13.559C11.8052 13.7354 11.2424 14.045 10.7681 14.4652L10.7562 14.4758C10.7442 14.4865 10.7311 14.4959 10.7192 14.5078C10.7073 14.5196 10.6763 14.5456 10.6549 14.5657C10.6108 14.6071 10.5691 14.6485 10.5263 14.6923C10.5096 14.71 10.4917 14.7278 10.475 14.7467C10.0808 15.1785 9.81245 15.7088 9.69881 16.2806C9.58517 16.8525 9.63053 17.4442 9.83003 17.9924C10.0295 18.5406 10.3756 19.0244 10.8311 19.3919C11.2866 19.7594 11.8343 19.9968 12.4154 20.0785V21.2615C11.3196 21.1632 10.3005 20.6614 9.55832 19.8547C8.81614 19.048 8.4046 17.9948 8.4046 16.9021C8.4046 15.8094 8.81614 14.7562 9.55832 13.9496C10.3005 13.1429 11.3196 12.6411 12.4154 12.5428V13.559ZM16.1009 19.8797C16.064 19.92 16.0258 19.9602 15.9818 19.998C15.9627 20.0181 15.9425 20.0371 15.9222 20.056C15.9137 20.0653 15.9045 20.074 15.8948 20.082L15.8484 20.1246C15.15 20.765 14.2615 21.1635 13.316 21.2603V20.0773C13.9465 19.9901 14.5366 19.7182 15.011 19.2965L15.1003 19.2149L15.148 19.1688L15.229 19.0848C15.4777 18.8127 15.6632 18.4896 15.7721 18.1384H14.7966C14.7384 18.2496 14.6673 18.3537 14.5845 18.4483L14.5095 18.5287C14.4892 18.5477 14.4702 18.5678 14.4487 18.5867C14.1323 18.8794 13.74 19.0789 13.316 19.1628V14.3007C13.4089 14.2936 13.503 14.2889 13.5983 14.2889C14.1611 14.2883 14.715 14.4286 15.2087 14.697C15.9174 15.0812 16.4644 15.7042 16.7513 16.4538C16.8611 16.7418 16.93 17.0436 16.9561 17.3505C16.9645 17.4451 16.968 17.5398 16.968 17.6356C16.9703 18.4645 16.6615 19.2646 16.1021 19.8797H16.1009Z" fill="url(#paint0_linear_4006_360)"/>
</g>
<defs>
<filter id="filter0_d_4006_360" x="0.3294" y="0.775476" width="24.7712" height="30.4647" filterUnits="userSpaceOnUse" color-interpolation-filters="sRGB">
<feFlood flood-opacity="0" result="BackgroundImageFix"/>
<feColorMatrix in="SourceAlpha" type="matrix" values="0 0 0 0 0 0 0 0 0 0 0 0 0 0 0 0 0 0 127 0" result="hardAlpha"/>
<feOffset/>
<feGaussianBlur stdDeviation="3.6129"/>
<feComposite in2="hardAlpha" operator="out"/>
<feColorMatrix type="matrix" values="0 0 0 0 0.631373 0 0 0 0 0.917647 0 0 0 0 0.0156863 0 0 0 0.4 0"/>
<feBlend mode="normal" in2="BackgroundImageFix" result="effect1_dropShadow_4006_360"/>
<feBlend mode="normal" in="SourceGraphic" in2="effect1_dropShadow_4006_360" result="shape"/>
</filter>
<linearGradient id="paint0_linear_4006_360" x1="17.8757" y1="15.9995" x2="7.55313" y2="15.9995" gradientUnits="userSpaceOnUse">
<stop stop-color="#A1EA04"/>
<stop offset="1" stop-color="#DAEB02"/>
</linearGradient>
</defs>
</svg>
