<svg width="32" height="31" viewBox="0 0 32 31" fill="none" xmlns="http://www.w3.org/2000/svg">
<g filter="url(#filter0_d_442_4371)">
<path fill-rule="evenodd" clip-rule="evenodd" d="M19.75 9.125C19.75 8.77982 19.4702 8.5 19.125 8.5C18.7798 8.5 18.5 8.77982 18.5 9.125V9.75H13.5V9.125C13.5 8.77982 13.2202 8.5 12.875 8.5C12.5298 8.5 12.25 8.77982 12.25 9.125V9.75H10.5C9.39543 9.75 8.5 10.6454 8.5 11.75V20.25C8.5 21.3546 9.39543 22.25 10.5 22.25H21.5C22.6046 22.25 23.5 21.3546 23.5 20.25V11.75C23.5 10.6454 22.6046 9.75 21.5 9.75H19.75V9.125ZM12.875 11.625C12.5298 11.625 12.25 11.3452 12.25 11H10.5C10.0858 11 9.75 11.3358 9.75 11.75V12.875H22.25V11.75C22.25 11.3358 21.9142 11 21.5 11H19.75C19.75 11.3452 19.4702 11.625 19.125 11.625C18.7798 11.625 18.5 11.3452 18.5 11H13.5C13.5 11.3452 13.2202 11.625 12.875 11.625Z" fill="url(#paint0_linear_442_4371)"/>
</g>
<g clip-path="url(#clip0_442_4371)">
<path d="M14.2391 17.066H14.657C14.866 17.066 15.0277 17.0347 15.1495 16.9746C15.3268 16.887 15.4492 16.6798 15.4492 16.4656C15.4492 16.0975 15.1537 15.8552 14.6964 15.8552C14.5149 15.8552 14.3651 15.894 14.2433 15.9673C14.1209 16.0443 13.9908 16.1846 13.8451 16.3881L13.0446 16.0029C13.2338 15.7149 13.4231 15.5045 13.6123 15.3749C13.912 15.1677 14.2708 15.0625 14.6922 15.0625C15.1495 15.0625 15.5322 15.1746 15.8432 15.3993C16.2097 15.6692 16.3912 16.0167 16.3912 16.4449C16.3912 16.8205 16.2294 17.1399 15.9065 17.4028C16.0957 17.5468 16.2336 17.6908 16.3166 17.8273C16.4467 18.0346 16.51 18.2694 16.51 18.5255C16.51 19.0238 16.3053 19.4164 15.891 19.7044C15.5477 19.943 15.1382 20.0625 14.669 20.0625C14.1054 20.0625 13.6595 19.8978 13.3246 19.5641C13.2099 19.452 13.1234 19.3325 13.0607 19.2061C12.9974 19.0833 12.9347 18.9043 12.8756 18.6726L13.8063 18.4585C13.8732 18.7008 13.9442 18.8724 14.0194 18.9744C14.1538 19.1673 14.374 19.2624 14.6857 19.2624C14.9418 19.2624 15.1507 19.196 15.3125 19.0589C15.4743 18.9218 15.5531 18.7465 15.5531 18.5292C15.5531 18.0765 15.2415 17.8417 14.6582 17.8417H14.2403V17.0665L14.2391 17.066Z" fill="#1A1A18"/>
<path d="M18.8125 19.9573H17.8585V16.1851L17.1804 16.5289L16.7273 15.8377L18.0514 15.1677H18.8125V19.9573Z" fill="#1A1A18"/>
</g>
<defs>
<filter id="filter0_d_442_4371" x="0.5" y="0.5" width="31" height="29.75" filterUnits="userSpaceOnUse" color-interpolation-filters="sRGB">
<feFlood flood-opacity="0" result="BackgroundImageFix"/>
<feColorMatrix in="SourceAlpha" type="matrix" values="0 0 0 0 0 0 0 0 0 0 0 0 0 0 0 0 0 0 127 0" result="hardAlpha"/>
<feOffset/>
<feGaussianBlur stdDeviation="4"/>
<feComposite in2="hardAlpha" operator="out"/>
<feColorMatrix type="matrix" values="0 0 0 0 0.631373 0 0 0 0 0.917647 0 0 0 0 0.0156863 0 0 0 0.4 0"/>
<feBlend mode="normal" in2="BackgroundImageFix" result="effect1_dropShadow_442_4371"/>
<feBlend mode="normal" in="SourceGraphic" in2="effect1_dropShadow_442_4371" result="shape"/>
</filter>
<linearGradient id="paint0_linear_442_4371" x1="23.503" y1="15.3693" x2="8.49846" y2="15.3693" gradientUnits="userSpaceOnUse">
<stop stop-color="#A1EA04"/>
<stop offset="1" stop-color="#DAEB02"/>
</linearGradient>
<clipPath id="clip0_442_4371">
<rect width="5.9375" height="5" fill="white" transform="translate(12.875 15.0625)"/>
</clipPath>
</defs>
</svg>
