<svg width="20" height="20" viewBox="0 0 20 20" fill="none" xmlns="http://www.w3.org/2000/svg">
<path fill-rule="evenodd" clip-rule="evenodd" d="M13.75 3.125C13.75 2.77982 13.4702 2.5 13.125 2.5C12.7798 2.5 12.5 2.77982 12.5 3.125V3.75H7.5V3.125C7.5 2.77982 7.22018 2.5 6.875 2.5C6.52982 2.5 6.25 2.77982 6.25 3.125V3.75H4.5C3.39543 3.75 2.5 4.64543 2.5 5.75V14.25C2.5 15.3546 3.39543 16.25 4.5 16.25H15.5C16.6046 16.25 17.5 15.3546 17.5 14.25V5.75C17.5 4.64543 16.6046 3.75 15.5 3.75H13.75V3.125ZM6.875 5.625C6.52982 5.625 6.25 5.34518 6.25 5H4.5C4.08579 5 3.75 5.33579 3.75 5.75V6.875H16.25V5.75C16.25 5.33579 15.9142 5 15.5 5H13.75C13.75 5.34518 13.4702 5.625 13.125 5.625C12.7798 5.625 12.5 5.34518 12.5 5H7.5C7.5 5.34518 7.22018 5.625 6.875 5.625ZM16.25 8.125H3.75V14.25C3.75 14.6642 4.08579 15 4.5 15H15.5C15.9142 15 16.25 14.6642 16.25 14.25V8.125ZM8.23913 11.066H8.65702C8.86596 11.066 9.02774 11.0347 9.14952 10.9746C9.32682 10.887 9.4492 10.6798 9.4492 10.4656C9.4492 10.0975 9.1537 9.85519 8.69642 9.85519C8.51494 9.85519 8.3651 9.89397 8.24331 9.96729C8.12093 10.0443 7.99079 10.1846 7.84513 10.3881L7.04459 10.0029C7.23383 9.71493 7.42307 9.50454 7.61231 9.3749C7.91199 9.1677 8.27077 9.0625 8.69224 9.0625C9.14952 9.0625 9.53218 9.1746 9.8432 9.39934C10.2097 9.66924 10.3912 10.0167 10.3912 10.4449C10.3912 10.8205 10.2294 11.1399 9.90648 11.4028C10.0957 11.5468 10.2336 11.6908 10.3166 11.8273C10.4467 12.0346 10.51 12.2694 10.51 12.5255C10.51 13.0238 10.3053 13.4164 9.89096 13.7044C9.5477 13.943 9.13818 14.0625 8.66895 14.0625C8.10541 14.0625 7.65947 13.8978 7.32457 13.5641C7.20995 13.452 7.12339 13.3325 7.06071 13.2061C6.99743 13.0833 6.93475 12.9043 6.87565 12.6726L7.80633 12.4585C7.87319 12.7008 7.94423 12.8724 8.01945 12.9744C8.15377 13.1673 8.37405 13.2624 8.68567 13.2624C8.94177 13.2624 9.15071 13.196 9.31249 13.0589C9.47427 12.9218 9.55307 12.7465 9.55307 12.5292C9.55307 12.0765 9.24145 11.8417 8.65821 11.8417H8.24033V11.0665L8.23913 11.066ZM11.8585 13.9573H12.8125V9.1677H12.0514L10.7273 9.83766L11.1804 10.5289L11.8585 10.1851V13.9573Z" fill="#8C8C8C"/>
</svg>
