<svg width="12" height="12" viewBox="0 0 12 12" fill="none" xmlns="http://www.w3.org/2000/svg">
<path d="M4.125 7.5C5.47119 7.5 6.5625 6.40869 6.5625 5.0625C6.5625 3.71631 5.47119 2.625 4.125 2.625C2.77881 2.625 1.6875 3.71631 1.6875 5.0625C1.6875 6.40869 2.77881 7.5 4.125 7.5Z" stroke="#8C8C8C" stroke-miterlimit="10"/>
<path d="M7.28436 2.71406C7.49984 2.65562 7.72204 2.62568 7.9453 2.625C8.59177 2.625 9.21175 2.88181 9.66887 3.33893C10.126 3.79605 10.3828 4.41603 10.3828 5.0625C10.3828 5.70897 10.126 6.32895 9.66887 6.78607C9.21175 7.24319 8.59177 7.5 7.9453 7.5" stroke="#8C8C8C" stroke-linecap="round" stroke-linejoin="round"/>
<path d="M0.75 9.25329C1.1306 8.71169 1.63595 8.26964 2.22338 7.96447C2.8108 7.65931 3.46304 7.5 4.125 7.5C4.78696 7.5 5.4392 7.65931 6.02662 7.96447C6.61405 8.26964 7.1194 8.71169 7.5 9.25329" stroke="#8C8C8C" stroke-linecap="round" stroke-linejoin="round"/>
<path d="M7.94531 7.5C8.60733 7.49959 9.2597 7.6587 9.84718 7.96387C10.4347 8.26904 10.94 8.71127 11.3203 9.25313" stroke="#8C8C8C" stroke-linecap="round" stroke-linejoin="round"/>
</svg>
