<svg width="20" height="20" viewBox="0 0 20 20" fill="none" xmlns="http://www.w3.org/2000/svg">
<path d="M10.75 4.375H15.5C16.2594 4.375 16.875 4.99061 16.875 5.75V6.75C16.875 7.50939 16.2594 8.125 15.5 8.125H10.75C9.99061 8.125 9.375 7.50939 9.375 6.75V5.75C9.375 4.99061 9.99061 4.375 10.75 4.375Z" stroke="#8C8C8C" stroke-width="1.25" stroke-linecap="round" stroke-linejoin="round"/>
<path d="M4.5 4.375H5.5C6.25939 4.375 6.875 4.99061 6.875 5.75V14.25C6.875 15.0094 6.25939 15.625 5.5 15.625H4.5C3.74061 15.625 3.125 15.0094 3.125 14.25V5.75C3.125 4.99061 3.74061 4.375 4.5 4.375Z" stroke="#8C8C8C" stroke-width="1.25" stroke-linecap="round" stroke-linejoin="round"/>
<path d="M10.75 10.625H15.5C16.2594 10.625 16.875 11.2406 16.875 12V14.25C16.875 15.0094 16.2594 15.625 15.5 15.625H10.75C9.99061 15.625 9.375 15.0094 9.375 14.25V12C9.375 11.2406 9.99061 10.625 10.75 10.625Z" stroke="#8C8C8C" stroke-width="1.25" stroke-linecap="round" stroke-linejoin="round"/>
</svg>
