<svg width="20" height="24" viewBox="0 0 20 24" fill="none" xmlns="http://www.w3.org/2000/svg">
<g filter="url(#filter0_d_4013_2229)">
<path d="M13.6487 13.0128C13.5933 12.2079 13.2324 11.4538 12.639 10.9028C12.0456 10.3518 11.2637 10.0449 10.4513 10.0441C10.3799 10.0441 10.3093 10.0441 10.2396 10.0512V9.35648C10.6779 9.27703 11.0743 9.04757 11.3599 8.70799C11.6455 8.36841 11.8023 7.94017 11.803 7.4977C11.803 7.47197 11.803 7.44535 11.803 7.42051C11.7823 7.04355 11.6193 6.68817 11.3467 6.42511C11.074 6.16206 10.7116 6.01061 10.3316 6.00092H10.2423C10.1355 6.00826 10.0317 6.03896 9.93827 6.0908C9.84483 6.14264 9.76409 6.21436 9.70181 6.30081C9.61249 6.4241 9.56437 6.57213 9.56423 6.72402V8.73541C9.52582 8.73541 9.48651 8.74162 9.4472 8.74694C9.17515 8.77806 8.90715 8.83754 8.64764 8.92439C7.77638 9.2114 7.03156 9.78825 6.53897 10.5575C6.04638 11.3268 5.8362 12.2413 5.94394 13.1466C6.05168 14.052 6.47073 14.8926 7.13032 15.5267C7.78991 16.1607 8.64961 16.5492 9.56423 16.6266C9.56423 16.8148 9.48894 16.9954 9.3549 17.1285C9.22087 17.2616 9.03909 17.3364 8.84954 17.3364C8.83198 17.3373 8.81439 17.3373 8.79683 17.3364C8.58912 17.3121 8.38837 17.247 8.20631 17.1447V17.8545C8.41806 17.9641 8.65466 18.0177 8.89331 18.01C9.13195 18.0024 9.3646 17.9339 9.56883 17.811C9.77305 17.6882 9.94197 17.5151 10.0593 17.3086C10.1766 17.1021 10.2384 16.869 10.2387 16.6319H10.245C10.9254 16.5744 11.5792 16.3427 12.1425 15.9594C12.3035 15.8508 12.4558 15.73 12.5981 15.5983L12.6606 15.5415L12.7169 15.4865C12.7536 15.451 12.7875 15.4146 12.8223 15.3773C12.9637 15.2263 13.093 15.0647 13.2092 14.8938V14.8574C13.5022 14.3675 13.6565 13.808 13.6559 13.2382C13.6568 13.1548 13.655 13.0829 13.6487 13.0128ZM10.2396 6.75596C10.2396 6.73431 10.2483 6.71355 10.2637 6.69825C10.2791 6.68294 10.3 6.67434 10.3218 6.67434C10.5303 6.68159 10.7285 6.76613 10.8773 6.91131C11.0261 7.05649 11.1148 7.25177 11.1258 7.45866C11.1258 7.47286 11.1258 7.48705 11.1258 7.50213C11.1258 7.51722 11.1258 7.53053 11.1258 7.54473C11.1165 7.80096 11.026 8.04772 10.8672 8.24988C10.7084 8.45204 10.4894 8.59929 10.2414 8.67064L10.2396 6.75596ZM9.56155 14.3774C9.25822 14.3178 8.97627 14.1793 8.74454 13.976C8.5128 13.7727 8.33959 13.5119 8.24263 13.2203C8.14567 12.9287 8.12843 12.6168 8.19269 12.3164C8.25694 12.016 8.40038 11.738 8.60833 11.5107L8.66461 11.453L8.69677 11.422L8.72804 11.3927C8.9692 11.1685 9.25241 10.9937 9.56155 10.8781V14.3774ZM9.56155 10.1692C9.10388 10.3015 8.68176 10.5337 8.32603 10.8488L8.31709 10.8568C8.30816 10.8648 8.29833 10.8719 8.2894 10.8808C8.28046 10.8896 8.25724 10.9092 8.24115 10.9242C8.2081 10.9553 8.17683 10.9864 8.14467 11.0192C8.13216 11.0325 8.11876 11.0458 8.10625 11.06C7.81058 11.3838 7.60932 11.7815 7.52408 12.2104C7.43885 12.6393 7.47288 13.0831 7.6225 13.4942C7.77212 13.9054 8.03168 14.2682 8.37331 14.5439C8.71494 14.8195 9.12573 14.9976 9.56155 15.0588V15.9461C8.73971 15.8723 7.97535 15.496 7.41871 14.891C6.86208 14.286 6.55343 13.4961 6.55343 12.6766C6.55343 11.857 6.86208 11.0671 7.41871 10.4621C7.97535 9.85712 8.73971 9.48077 9.56155 9.40705V10.1692ZM12.3256 14.9098C12.2979 14.9399 12.2694 14.9701 12.2363 14.9985C12.222 15.0136 12.2068 15.0278 12.1916 15.042C12.1852 15.0489 12.1784 15.0554 12.1711 15.0615L12.1362 15.0934C11.6125 15.5737 10.9461 15.8726 10.2369 15.9452V15.0579C10.7099 14.9925 11.1524 14.7886 11.5082 14.4723L11.5752 14.4111L11.6109 14.3765L11.6717 14.3135C11.8583 14.1095 11.9974 13.8671 12.0791 13.6037H11.3474C11.3038 13.6872 11.2504 13.7652 11.1884 13.8362L11.1321 13.8965C11.1169 13.9107 11.1026 13.9258 11.0865 13.94C10.8492 14.1595 10.555 14.3091 10.2369 14.3721V10.7255C10.3066 10.7202 10.3772 10.7166 10.4487 10.7166C10.8708 10.7161 11.2862 10.8214 11.6565 11.0227C12.188 11.3109 12.5983 11.7781 12.8134 12.3403C12.8958 12.5563 12.9475 12.7827 12.9671 13.0128C12.9733 13.0838 12.976 13.1548 12.976 13.2266C12.9777 13.8483 12.7461 14.4484 12.3265 14.9098H12.3256Z" fill="url(#paint0_linear_4013_2229)"/>
</g>
<defs>
<filter id="filter0_d_4013_2229" x="0.497027" y="0.581561" width="18.5784" height="22.8485" filterUnits="userSpaceOnUse" color-interpolation-filters="sRGB">
<feFlood flood-opacity="0" result="BackgroundImageFix"/>
<feColorMatrix in="SourceAlpha" type="matrix" values="0 0 0 0 0 0 0 0 0 0 0 0 0 0 0 0 0 0 127 0" result="hardAlpha"/>
<feOffset/>
<feGaussianBlur stdDeviation="2.70968"/>
<feComposite in2="hardAlpha" operator="out"/>
<feColorMatrix type="matrix" values="0 0 0 0 0.631373 0 0 0 0 0.917647 0 0 0 0 0.0156863 0 0 0 0.4 0"/>
<feBlend mode="normal" in2="BackgroundImageFix" result="effect1_dropShadow_4013_2229"/>
<feBlend mode="normal" in="SourceGraphic" in2="effect1_dropShadow_4013_2229" result="shape"/>
</filter>
<linearGradient id="paint0_linear_4013_2229" x1="13.6568" y1="11.9996" x2="5.91482" y2="11.9996" gradientUnits="userSpaceOnUse">
<stop stop-color="#A1EA04"/>
<stop offset="1" stop-color="#DAEB02"/>
</linearGradient>
</defs>
</svg>
