<svg width="30" height="30" viewBox="0 0 30 30" fill="none" xmlns="http://www.w3.org/2000/svg">
<g filter="url(#filter0_d_4013_2276)">
<path d="M19.4242 15.875C19.4255 16.0544 19.3709 16.2298 19.268 16.3768C19.1651 16.5238 19.019 16.6351 18.85 16.6953L15.9953 17.7453L14.9453 20.6C14.8831 20.7675 14.7712 20.9119 14.6246 21.0139C14.4779 21.1158 14.3036 21.1705 14.125 21.1705C13.9464 21.1705 13.772 21.1158 13.6254 21.0139C13.4787 20.9119 13.3668 20.7675 13.3047 20.6L12.2547 17.7453L9.39998 16.6953C9.23253 16.6332 9.0881 16.5212 8.98612 16.3746C8.88413 16.228 8.82947 16.0536 8.82947 15.875C8.82947 15.6964 8.88413 15.522 8.98612 15.3754C9.0881 15.2288 9.23253 15.1168 9.39998 15.0547L12.2547 14.0047L13.3047 11.15C13.3668 10.9825 13.4787 10.8381 13.6254 10.7361C13.772 10.6342 13.9464 10.5795 14.125 10.5795C14.3036 10.5795 14.4779 10.6342 14.6246 10.7361C14.7712 10.8381 14.8831 10.9825 14.9453 11.15L15.9953 14.0047L18.85 15.0547C19.019 15.1149 19.1651 15.2262 19.268 15.3732C19.3709 15.5202 19.4255 15.6956 19.4242 15.875V15.875ZM16.3125 10.625H17.1875V11.5C17.1875 11.616 17.2336 11.7273 17.3156 11.8094C17.3977 11.8914 17.5089 11.9375 17.625 11.9375C17.741 11.9375 17.8523 11.8914 17.9343 11.8094C18.0164 11.7273 18.0625 11.616 18.0625 11.5V10.625H18.9375C19.0535 10.625 19.1648 10.5789 19.2468 10.4969C19.3289 10.4148 19.375 10.3035 19.375 10.1875C19.375 10.0715 19.3289 9.96019 19.2468 9.87814C19.1648 9.79609 19.0535 9.75 18.9375 9.75H18.0625V8.875C18.0625 8.75897 18.0164 8.64769 17.9343 8.56564C17.8523 8.48359 17.741 8.4375 17.625 8.4375C17.5089 8.4375 17.3977 8.48359 17.3156 8.56564C17.2336 8.64769 17.1875 8.75897 17.1875 8.875V9.75H16.3125C16.1964 9.75 16.0852 9.79609 16.0031 9.87814C15.9211 9.96019 15.875 10.0715 15.875 10.1875C15.875 10.3035 15.9211 10.4148 16.0031 10.4969C16.0852 10.5789 16.1964 10.625 16.3125 10.625ZM21.125 12.375H20.6875V11.9375C20.6875 11.8215 20.6414 11.7102 20.5593 11.6281C20.4773 11.5461 20.366 11.5 20.25 11.5C20.1339 11.5 20.0227 11.5461 19.9406 11.6281C19.8586 11.7102 19.8125 11.8215 19.8125 11.9375V12.375H19.375C19.2589 12.375 19.1477 12.4211 19.0656 12.5031C18.9836 12.5852 18.9375 12.6965 18.9375 12.8125C18.9375 12.9285 18.9836 13.0398 19.0656 13.1219C19.1477 13.2039 19.2589 13.25 19.375 13.25H19.8125V13.6875C19.8125 13.8035 19.8586 13.9148 19.9406 13.9969C20.0227 14.0789 20.1339 14.125 20.25 14.125C20.366 14.125 20.4773 14.0789 20.5593 13.9969C20.6414 13.9148 20.6875 13.8035 20.6875 13.6875V13.25H21.125C21.241 13.25 21.3523 13.2039 21.4343 13.1219C21.5164 13.0398 21.5625 12.9285 21.5625 12.8125C21.5625 12.6965 21.5164 12.5852 21.4343 12.5031C21.3523 12.4211 21.241 12.375 21.125 12.375Z" fill="url(#paint0_linear_4013_2276)"/>
</g>
<defs>
<filter id="filter0_d_4013_2276" x="0.829468" y="0.4375" width="28.733" height="28.733" filterUnits="userSpaceOnUse" color-interpolation-filters="sRGB">
<feFlood flood-opacity="0" result="BackgroundImageFix"/>
<feColorMatrix in="SourceAlpha" type="matrix" values="0 0 0 0 0 0 0 0 0 0 0 0 0 0 0 0 0 0 127 0" result="hardAlpha"/>
<feOffset/>
<feGaussianBlur stdDeviation="4"/>
<feComposite in2="hardAlpha" operator="out"/>
<feColorMatrix type="matrix" values="0 0 0 0 1 0 0 0 0 0.415686 0 0 0 0 0.164706 0 0 0 0.6 0"/>
<feBlend mode="normal" in2="BackgroundImageFix" result="effect1_dropShadow_4013_2276"/>
<feBlend mode="normal" in="SourceGraphic" in2="effect1_dropShadow_4013_2276" result="shape"/>
</filter>
<linearGradient id="paint0_linear_4013_2276" x1="8.82947" y1="14.8456" x2="21.8121" y2="14.8456" gradientUnits="userSpaceOnUse">
<stop stop-color="#FF6A2B"/>
<stop offset="1" stop-color="#FF442B"/>
</linearGradient>
</defs>
</svg>
