<svg width="66" height="80" viewBox="0 0 66 80" fill="none" xmlns="http://www.w3.org/2000/svg">
<g filter="url(#filter0_d_4006_757)">
<path d="M46.7706 43.5449C46.5766 40.7276 45.3136 38.0883 43.2366 36.1598C41.1596 34.2313 38.4232 33.1572 35.5798 33.1543C35.3297 33.1543 35.0827 33.1543 34.8388 33.1792V30.7477C36.3728 30.4696 37.7601 29.6665 38.7598 28.478C39.7595 27.2894 40.3082 25.7906 40.3106 24.2419C40.3106 24.1519 40.3106 24.0587 40.3106 23.9718C40.238 22.6524 39.6678 21.4086 38.7135 20.4879C37.7592 19.5672 36.4908 19.0371 35.1608 19.0032H34.8481C34.4744 19.0289 34.1111 19.1363 33.784 19.3178C33.457 19.4992 33.1744 19.7502 32.9564 20.0528C32.6438 20.4844 32.4754 21.0025 32.4749 21.5341V28.5739C32.3405 28.5739 32.2029 28.5957 32.0653 28.6143C31.1131 28.7232 30.1751 28.9314 29.2668 29.2354C26.2174 30.2399 23.6106 32.2589 21.8865 34.9513C20.1624 37.6437 19.4268 40.8445 19.8039 44.0132C20.181 47.1819 21.6477 50.1243 23.9562 52.3433C26.2648 54.5624 29.2737 55.9222 32.4749 56.193C32.4749 56.8519 32.2114 57.4838 31.7423 57.9497C31.2731 58.4156 30.6369 58.6773 29.9735 58.6773C29.912 58.6804 29.8505 58.6804 29.789 58.6773C29.062 58.5924 28.3594 58.3643 27.7222 58.0065V60.4908C28.4633 60.8743 29.2914 61.0618 30.1267 61.0351C30.9619 61.0085 31.7762 60.7686 32.491 60.3386C33.2058 59.9086 33.797 59.303 34.2077 58.5802C34.6183 57.8573 34.8346 57.0416 34.8356 56.2116H34.8575C37.239 56.0104 39.5272 55.1994 41.4988 53.8578C42.0622 53.4777 42.5953 53.0551 43.0935 52.5939L43.3124 52.3952L43.5094 52.2026C43.6376 52.0784 43.7564 51.9511 43.8783 51.8207C44.3731 51.2922 44.8258 50.7264 45.2322 50.1282V50.0009C46.2577 48.2861 46.7979 46.3281 46.7956 44.3336C46.7987 44.0417 46.7925 43.7902 46.7706 43.5449ZM34.8388 21.6459C34.8388 21.5701 34.8691 21.4974 34.923 21.4439C34.977 21.3903 35.0501 21.3602 35.1264 21.3602C35.8561 21.3856 36.5498 21.6815 37.0707 22.1896C37.5916 22.6977 37.9019 23.3812 37.9405 24.1053C37.9405 24.155 37.9405 24.2047 37.9405 24.2575C37.9405 24.3103 37.9405 24.3569 37.9405 24.4065C37.9078 25.3034 37.591 26.167 37.0352 26.8746C36.4793 27.5821 35.7129 28.0975 34.845 28.3472L34.8388 21.6459ZM32.4655 48.3209C31.4039 48.1124 30.4171 47.6276 29.606 46.916C28.7949 46.2044 28.1887 45.2917 27.8493 44.2711C27.5099 43.2505 27.4496 42.1587 27.6745 41.1074C27.8994 40.0561 28.4014 39.0829 29.1292 38.2875L29.3262 38.0856L29.4388 37.977L29.5482 37.8745C30.3923 37.0899 31.3835 36.4779 32.4655 36.0734V48.3209ZM32.4655 33.5922C30.8637 34.0553 29.3863 34.868 28.1412 35.9709L28.1099 35.9988C28.0786 36.0268 28.0443 36.0516 28.013 36.0827C27.9817 36.1137 27.9004 36.1821 27.8441 36.2348C27.7284 36.3435 27.619 36.4522 27.5064 36.5671C27.4627 36.6137 27.4158 36.6603 27.372 36.71C26.3371 37.8434 25.6327 39.2354 25.3344 40.7365C25.0361 42.2375 25.1552 43.791 25.6788 45.2299C26.2025 46.6688 27.111 47.9388 28.3067 48.9036C29.5024 49.8684 30.9401 50.4914 32.4655 50.7058V53.8112C29.5891 53.5532 26.9138 52.236 24.9656 50.1184C23.0174 48.0009 21.9371 45.2363 21.9371 42.3679C21.9371 39.4996 23.0174 36.7349 24.9656 34.6174C26.9138 32.4999 29.5891 31.1827 32.4655 30.9247V33.5922ZM42.1398 50.1841C42.0429 50.2897 41.9428 50.3953 41.8271 50.4947C41.7771 50.5475 41.724 50.5972 41.6708 50.6468C41.6484 50.6712 41.6244 50.694 41.5989 50.7151L41.4769 50.8269C39.6437 52.508 37.3114 53.554 34.8294 53.8081V50.7027C36.4846 50.4737 38.0336 49.7602 39.2788 48.6532L39.5133 48.4389L39.6384 48.3178L39.851 48.0973C40.5041 47.3832 40.9908 46.535 41.2768 45.613H38.716C38.5634 45.9051 38.3766 46.1782 38.1594 46.4266L37.9624 46.6378C37.9093 46.6875 37.8592 46.7403 37.803 46.79C36.9722 47.5582 35.9426 48.0819 34.8294 48.3023V35.5392C35.0733 35.5206 35.3203 35.5082 35.5704 35.5082C37.0479 35.5065 38.5019 35.875 39.7979 36.5796C41.6581 37.588 43.0942 39.2235 43.847 41.191C44.1353 41.9471 44.3163 42.7393 44.3849 43.5449C44.4067 43.7933 44.4161 44.0417 44.4161 44.2933C44.4219 46.4692 43.6115 48.5693 42.143 50.1841H42.1398Z" fill="url(#paint0_linear_4006_757)"/>
</g>
<defs>
<filter id="filter0_d_4006_757" x="0.739687" y="0.0354633" width="65.0244" height="79.9699" filterUnits="userSpaceOnUse" color-interpolation-filters="sRGB">
<feFlood flood-opacity="0" result="BackgroundImageFix"/>
<feColorMatrix in="SourceAlpha" type="matrix" values="0 0 0 0 0 0 0 0 0 0 0 0 0 0 0 0 0 0 127 0" result="hardAlpha"/>
<feOffset/>
<feGaussianBlur stdDeviation="9.48387"/>
<feComposite in2="hardAlpha" operator="out"/>
<feColorMatrix type="matrix" values="0 0 0 0 0.631373 0 0 0 0 0.917647 0 0 0 0 0.0156863 0 0 0 0.4 0"/>
<feBlend mode="normal" in2="BackgroundImageFix" result="effect1_dropShadow_4006_757"/>
<feBlend mode="normal" in="SourceGraphic" in2="effect1_dropShadow_4006_757" result="shape"/>
</filter>
<linearGradient id="paint0_linear_4006_757" x1="46.7987" y1="39.9985" x2="19.702" y2="39.9985" gradientUnits="userSpaceOnUse">
<stop stop-color="#A1EA04"/>
<stop offset="1" stop-color="#DAEB02"/>
</linearGradient>
</defs>
</svg>
