<svg width="16" height="16" viewBox="0 0 16 16" fill="none" xmlns="http://www.w3.org/2000/svg">
<path fill-rule="evenodd" clip-rule="evenodd" d="M1.00165 13.0921C0.742907 14.3341 1.69098 15.5 2.95961 15.5H13.0404C14.309 15.5 15.2571 14.3341 14.9984 13.0921L12.7067 2.09209C12.5135 1.16465 11.6961 0.5 10.7487 0.5H5.25128C4.30392 0.5 3.48653 1.16465 3.29332 2.09209L1.00165 13.0921ZM7.97021 5.5C8.66056 5.5 9.22021 4.94036 9.22021 4.25C9.22021 3.55964 8.66056 3 7.97021 3C7.27985 3 6.72021 3.55964 6.72021 4.25C6.72021 4.94036 7.27985 5.5 7.97021 5.5ZM8 8C6.96447 8 6.125 8.83947 6.125 9.875C6.125 10.9105 6.96447 11.75 8 11.75C9.03553 11.75 9.875 10.9105 9.875 9.875C9.875 8.83947 9.03553 8 8 8ZM4.875 9.875C4.875 8.14911 6.27411 6.75 8 6.75C9.72589 6.75 11.125 8.14911 11.125 9.875C11.125 11.6009 9.72589 13 8 13C6.27411 13 4.875 11.6009 4.875 9.875Z" fill="url(#paint0_linear_2376_3353)"/>
<defs>
<linearGradient id="paint0_linear_2376_3353" x1="15.044" y1="7.99377" x2="0.957438" y2="7.99377" gradientUnits="userSpaceOnUse">
<stop stop-color="#A1EA04"/>
<stop offset="1" stop-color="#DAEB02"/>
</linearGradient>
</defs>
</svg>
