<svg width="20" height="20" viewBox="0 0 20 20" fill="none" xmlns="http://www.w3.org/2000/svg">
<path d="M15.0404 16.875H4.95961C4.08743 16.875 3.43563 16.0734 3.61351 15.2196L5.90518 4.21956C6.03801 3.58195 6.59997 3.125 7.25127 3.125H12.7487C13.4 3.125 13.962 3.58195 14.0948 4.21956L16.3865 15.2196C16.5644 16.0734 15.9126 16.875 15.0404 16.875Z" stroke="#8C8C8C" stroke-width="1.25" stroke-linecap="round"/>
<path d="M9.97021 7.5C10.6606 7.5 11.2202 6.94036 11.2202 6.25C11.2202 5.55964 10.6606 5 9.97021 5C9.27985 5 8.72021 5.55964 8.72021 6.25C8.72021 6.94036 9.27985 7.5 9.97021 7.5Z" fill="#8C8C8C"/>
<path d="M10 14.375C11.3807 14.375 12.5 13.2557 12.5 11.875C12.5 10.4943 11.3807 9.375 10 9.375C8.61929 9.375 7.5 10.4943 7.5 11.875C7.5 13.2557 8.61929 14.375 10 14.375Z" stroke="#8C8C8C" stroke-width="1.25" stroke-linecap="round" stroke-linejoin="round"/>
</svg>
