<svg width="24" height="24" viewBox="0 0 24 24" fill="none" xmlns="http://www.w3.org/2000/svg">
<path d="M9 21H15" stroke="#8C8C8C" stroke-width="2" stroke-linecap="round" stroke-linejoin="round"/>
<path d="M5.26873 9.75C5.26748 8.86085 5.44216 7.98025 5.78269 7.1589C6.12323 6.33755 6.6229 5.59169 7.25293 4.96428C7.88296 4.33687 8.63089 3.8403 9.45364 3.50318C10.2764 3.16606 11.1577 2.99505 12.0469 3C15.7594 3.02812 18.7312 6.1125 18.7312 9.83437V10.5C18.7312 13.8562 19.4344 15.8062 20.0531 16.875C20.1188 16.9888 20.1535 17.1179 20.1536 17.2493C20.1537 17.3808 20.1193 17.5099 20.0538 17.6239C19.9883 17.7378 19.894 17.8325 19.7803 17.8985C19.6667 17.9645 19.5377 17.9995 19.4062 18H4.59373C4.4623 17.9995 4.33331 17.9645 4.21966 17.8985C4.10601 17.8325 4.01171 17.7378 3.94619 17.6239C3.88068 17.5099 3.84626 17.3808 3.84637 17.2493C3.84649 17.1179 3.88114 16.9888 3.94686 16.875C4.56561 15.8062 5.26873 13.8562 5.26873 10.5V9.75Z" stroke="#8C8C8C" stroke-width="2" stroke-linecap="round" stroke-linejoin="round"/>
</svg>
