<svg width="38" height="46" viewBox="0 0 38 46" fill="none" xmlns="http://www.w3.org/2000/svg">
<g filter="url(#filter0_d_361_31932)">
<path d="M26.2976 25.0258C26.1867 23.4159 25.465 21.9077 24.2781 20.8057C23.0912 19.7037 21.5276 19.0899 19.9028 19.0883C19.7599 19.0883 19.6187 19.0883 19.4794 19.1025V17.7131C20.3559 17.5542 21.1487 17.0953 21.72 16.4161C22.2912 15.7369 22.6048 14.8805 22.6062 13.9955C22.6062 13.9441 22.6062 13.8908 22.6062 13.8411C22.5646 13.0872 22.2388 12.3765 21.6935 11.8503C21.1482 11.3242 20.4234 11.0213 19.6634 11.002H19.4847C19.2712 11.0166 19.0635 11.078 18.8767 11.1817C18.6898 11.2854 18.5283 11.4288 18.4037 11.6017C18.2251 11.8483 18.1289 12.1444 18.1286 12.4482V16.4709C18.0518 16.4709 17.9731 16.4834 17.8945 16.494C17.3504 16.5562 16.8144 16.6752 16.2954 16.8489C14.5529 17.4229 13.0632 18.5766 12.0781 20.1151C11.0929 21.6537 10.6725 23.4827 10.888 25.2934C11.1035 27.1041 11.9416 28.7854 13.2608 30.0534C14.5799 31.3215 16.2993 32.0985 18.1286 32.2533C18.1286 32.6298 17.978 32.9908 17.7099 33.2571C17.4419 33.5233 17.0783 33.6729 16.6992 33.6729C16.6641 33.6747 16.6289 33.6747 16.5938 33.6729C16.1784 33.6243 15.7769 33.494 15.4127 33.2896V34.7092C15.8362 34.9283 16.3094 35.0354 16.7867 35.0202C17.264 35.005 17.7293 34.8679 18.1378 34.6222C18.5462 34.3765 18.8841 34.0304 19.1187 33.6174C19.3534 33.2043 19.477 32.7382 19.4776 32.2639H19.4901C20.8509 32.1489 22.1585 31.6855 23.2851 30.9188C23.607 30.7016 23.9117 30.4602 24.1963 30.1966L24.3214 30.0831L24.434 29.9731C24.5072 29.9021 24.5751 29.8293 24.6448 29.7548C24.9275 29.4528 25.1862 29.1295 25.4185 28.7877V28.7149C26.0045 27.735 26.3131 26.6162 26.3118 25.4765C26.3136 25.3097 26.3101 25.166 26.2976 25.0258ZM19.4794 12.512C19.4794 12.4687 19.4967 12.4272 19.5275 12.3966C19.5583 12.366 19.6001 12.3488 19.6437 12.3488C20.0607 12.3633 20.4571 12.5324 20.7547 12.8227C21.0524 13.1131 21.2297 13.5037 21.2518 13.9174C21.2518 13.9458 21.2518 13.9742 21.2518 14.0044C21.2518 14.0346 21.2518 14.0612 21.2518 14.0896C21.2331 14.602 21.052 15.0956 20.7344 15.4999C20.4168 15.9042 19.9789 16.1987 19.4829 16.3414L19.4794 12.512ZM18.1232 27.7549C17.5166 27.6358 16.9527 27.3587 16.4892 26.9521C16.0257 26.5455 15.6793 26.0239 15.4854 25.4408C15.2915 24.8576 15.257 24.2337 15.3855 23.6329C15.514 23.0322 15.8009 22.4761 16.2168 22.0216L16.3293 21.9062L16.3937 21.8441L16.4562 21.7855C16.9385 21.3372 17.5049 20.9875 18.1232 20.7563V27.7549ZM18.1232 19.3385C17.2079 19.6032 16.3636 20.0676 15.6522 20.6978L15.6343 20.7137C15.6164 20.7297 15.5968 20.7439 15.5789 20.7617C15.561 20.7794 15.5146 20.8184 15.4824 20.8486C15.4163 20.9107 15.3538 20.9728 15.2895 21.0385C15.2645 21.0651 15.2376 21.0917 15.2126 21.1201C14.6213 21.7678 14.2188 22.5632 14.0483 23.421C13.8778 24.2787 13.9459 25.1664 14.2451 25.9886C14.5444 26.8109 15.0635 27.5366 15.7467 28.0879C16.43 28.6392 17.2516 28.9952 18.1232 29.1177V30.8922C16.4795 30.7448 14.9508 29.9921 13.8376 28.7821C12.7243 27.5721 12.107 25.9923 12.107 24.3532C12.107 22.7142 12.7243 21.1344 13.8376 19.9244C14.9508 18.7144 16.4795 17.9617 18.1232 17.8142V19.3385ZM23.6514 28.8196C23.596 28.88 23.5388 28.9403 23.4727 28.9971C23.4441 29.0272 23.4138 29.0556 23.3834 29.084C23.3706 29.0979 23.3568 29.111 23.3423 29.1231L23.2726 29.1869C22.2251 30.1476 20.8923 30.7453 19.474 30.8905V29.116C20.4198 28.9851 21.305 28.5774 22.0165 27.9448L22.1505 27.8224L22.222 27.7532L22.3435 27.6272C22.7167 27.2191 22.9948 26.7344 23.1583 26.2076H21.6949C21.6077 26.3745 21.501 26.5305 21.3769 26.6725L21.2643 26.7932C21.2339 26.8215 21.2054 26.8517 21.1732 26.8801C20.6985 27.3191 20.1101 27.6183 19.474 27.7443V20.4511C19.6134 20.4405 19.7545 20.4334 19.8975 20.4334C20.7417 20.4324 21.5726 20.643 22.3131 21.0456C23.3761 21.6218 24.1967 22.5564 24.627 23.6807C24.7917 24.1127 24.8951 24.5654 24.9343 25.0258C24.9468 25.1677 24.9521 25.3097 24.9521 25.4534C24.9555 26.6968 24.4924 27.8969 23.6532 28.8196H23.6514Z" fill="url(#paint0_linear_361_31932)"/>
</g>
<defs>
<filter id="filter0_d_361_31932" x="-0.00582314" y="0.163244" width="37.1568" height="45.6971" filterUnits="userSpaceOnUse" color-interpolation-filters="sRGB">
<feFlood flood-opacity="0" result="BackgroundImageFix"/>
<feColorMatrix in="SourceAlpha" type="matrix" values="0 0 0 0 0 0 0 0 0 0 0 0 0 0 0 0 0 0 127 0" result="hardAlpha"/>
<feOffset/>
<feGaussianBlur stdDeviation="5.41935"/>
<feComposite in2="hardAlpha" operator="out"/>
<feColorMatrix type="matrix" values="0 0 0 0 0.631373 0 0 0 0 0.917647 0 0 0 0 0.0156863 0 0 0 0.4 0"/>
<feBlend mode="normal" in2="BackgroundImageFix" result="effect1_dropShadow_361_31932"/>
<feBlend mode="normal" in="SourceGraphic" in2="effect1_dropShadow_361_31932" result="shape"/>
</filter>
<linearGradient id="paint0_linear_361_31932" x1="26.3136" y1="22.9993" x2="10.8298" y2="22.9993" gradientUnits="userSpaceOnUse">
<stop stop-color="#A1EA04"/>
<stop offset="1" stop-color="#DAEB02"/>
</linearGradient>
</defs>
</svg>
