<svg width="22" height="22" viewBox="0 0 22 22" fill="none" xmlns="http://www.w3.org/2000/svg">
<g filter="url(#filter0_d_4013_2259)">
<path d="M14.3181 11.6563C14.3191 11.7908 14.2782 11.9224 14.201 12.0326C14.1238 12.1429 14.0142 12.2263 13.8875 12.2715L11.7464 13.059L10.9589 15.2C10.9123 15.3256 10.8284 15.4339 10.7184 15.5104C10.6084 15.5869 10.4777 15.6279 10.3437 15.6279C10.2097 15.6279 10.079 15.5869 9.96901 15.5104C9.85903 15.4339 9.77509 15.3256 9.72847 15.2L8.94097 13.059L6.79996 12.2715C6.67436 12.2249 6.56605 12.1409 6.48956 12.0309C6.41307 11.921 6.37207 11.7902 6.37207 11.6563C6.37207 11.5223 6.41307 11.3915 6.48956 11.2816C6.56605 11.1716 6.67436 11.0876 6.79996 11.041L8.94097 10.2535L9.72847 8.1125C9.77509 7.98691 9.85903 7.87859 9.96901 7.8021C10.079 7.72561 10.2097 7.68462 10.3437 7.68462C10.4777 7.68462 10.6084 7.72561 10.7184 7.8021C10.8284 7.87859 10.9123 7.98691 10.9589 8.1125L11.7464 10.2535L13.8875 11.041C14.0142 11.0862 14.1238 11.1696 14.201 11.2799C14.2782 11.3901 14.3191 11.5217 14.3181 11.6563V11.6563ZM11.9843 7.71875H12.6406V8.375C12.6406 8.46202 12.6752 8.54548 12.7367 8.60702C12.7982 8.66855 12.8817 8.70313 12.9687 8.70313C13.0557 8.70313 13.1392 8.66855 13.2007 8.60702C13.2623 8.54548 13.2968 8.46202 13.2968 8.375V7.71875H13.9531C14.0401 7.71875 14.1236 7.68418 14.1851 7.62264C14.2466 7.56111 14.2812 7.47765 14.2812 7.39063C14.2812 7.3036 14.2466 7.22014 14.1851 7.15861C14.1236 7.09707 14.0401 7.0625 13.9531 7.0625H13.2968V6.40625C13.2968 6.31923 13.2623 6.23577 13.2007 6.17423C13.1392 6.1127 13.0557 6.07812 12.9687 6.07812C12.8817 6.07812 12.7982 6.1127 12.7367 6.17423C12.6752 6.23577 12.6406 6.31923 12.6406 6.40625V7.0625H11.9843C11.8973 7.0625 11.8138 7.09707 11.7523 7.15861C11.6908 7.22014 11.6562 7.3036 11.6562 7.39063C11.6562 7.47765 11.6908 7.56111 11.7523 7.62264C11.8138 7.68418 11.8973 7.71875 11.9843 7.71875ZM15.5937 9.03125H15.2656V8.70313C15.2656 8.6161 15.231 8.53264 15.1695 8.47111C15.1079 8.40957 15.0245 8.375 14.9375 8.375C14.8504 8.375 14.767 8.40957 14.7054 8.47111C14.6439 8.53264 14.6093 8.6161 14.6093 8.70313V9.03125H14.2812C14.1942 9.03125 14.1107 9.06582 14.0492 9.12736C13.9877 9.18889 13.9531 9.27235 13.9531 9.35938C13.9531 9.4464 13.9877 9.52986 14.0492 9.59139C14.1107 9.65293 14.1942 9.6875 14.2812 9.6875H14.6093V10.0156C14.6093 10.1026 14.6439 10.1861 14.7054 10.2476C14.767 10.3092 14.8504 10.3438 14.9375 10.3438C15.0245 10.3438 15.1079 10.3092 15.1695 10.2476C15.231 10.1861 15.2656 10.1026 15.2656 10.0156V9.6875H15.5937C15.6807 9.6875 15.7642 9.65293 15.8257 9.59139C15.8873 9.52986 15.9218 9.4464 15.9218 9.35938C15.9218 9.27235 15.8873 9.18889 15.8257 9.12736C15.7642 9.06582 15.6807 9.03125 15.5937 9.03125Z" fill="url(#paint0_linear_4013_2259)"/>
</g>
<defs>
<filter id="filter0_d_4013_2259" x="0.37207" y="0.078125" width="21.5497" height="21.5498" filterUnits="userSpaceOnUse" color-interpolation-filters="sRGB">
<feFlood flood-opacity="0" result="BackgroundImageFix"/>
<feColorMatrix in="SourceAlpha" type="matrix" values="0 0 0 0 0 0 0 0 0 0 0 0 0 0 0 0 0 0 127 0" result="hardAlpha"/>
<feOffset/>
<feGaussianBlur stdDeviation="3"/>
<feComposite in2="hardAlpha" operator="out"/>
<feColorMatrix type="matrix" values="0 0 0 0 1 0 0 0 0 0.415686 0 0 0 0 0.164706 0 0 0 0.6 0"/>
<feBlend mode="normal" in2="BackgroundImageFix" result="effect1_dropShadow_4013_2259"/>
<feBlend mode="normal" in="SourceGraphic" in2="effect1_dropShadow_4013_2259" result="shape"/>
</filter>
<linearGradient id="paint0_linear_4013_2259" x1="6.37207" y1="10.8842" x2="16.1091" y2="10.8842" gradientUnits="userSpaceOnUse">
<stop stop-color="#FF6A2B"/>
<stop offset="1" stop-color="#FF442B"/>
</linearGradient>
</defs>
</svg>
