<svg width="20" height="20" viewBox="0 0 20 20" fill="none" xmlns="http://www.w3.org/2000/svg">
<path d="M10.625 6.875V10" stroke="#8C8C8C" stroke-width="1.25" stroke-linecap="round" stroke-linejoin="round"/>
<path d="M13.75 11.875L10.625 10" stroke="#8C8C8C" stroke-width="1.25" stroke-linecap="round" stroke-linejoin="round"/>
<path d="M6.875 8.125H3.125V4.375" stroke="#8C8C8C" stroke-width="1.25" stroke-linecap="round" stroke-linejoin="round"/>
<path d="M5.6623 14.4176C6.58052 15.2922 7.75066 15.888 9.02471 16.1295C10.2988 16.3711 11.6195 16.2476 12.8198 15.7747C14.0201 15.3018 15.046 14.5008 15.7679 13.4728C16.4897 12.4449 16.875 11.2363 16.875 10C16.875 8.76365 16.4897 7.55508 15.7679 6.52716C15.046 5.49924 14.0201 4.69817 12.8198 4.22527C11.6195 3.75237 10.2988 3.6289 9.02471 3.87047C7.75066 4.11204 6.58052 4.7078 5.6623 5.58239L3.125 7.99006" stroke="#8C8C8C" stroke-width="1.25" stroke-linecap="round" stroke-linejoin="round"/>
</svg>
