<svg width="30" height="34" viewBox="0 0 30 34" fill="none" xmlns="http://www.w3.org/2000/svg">
<g filter="url(#filter0_d_518_8947)">
<path d="M19.95 23.875H10.05C9.90413 23.875 9.76424 23.8146 9.66109 23.7072C9.55795 23.5998 9.5 23.454 9.5 23.3021V10.6979C9.5 10.546 9.55795 10.4002 9.66109 10.2928C9.76424 10.1854 9.90413 10.125 10.05 10.125H15.7123C16.3114 10.125 16.8845 10.3693 17.2994 10.8014L19.8871 13.4969C20.2804 13.9066 20.5 14.4526 20.5 15.0205V23.3021C20.5 23.454 20.4421 23.5998 20.3389 23.7072C20.2358 23.8146 20.0959 23.875 19.95 23.875Z" fill="url(#paint0_linear_518_8947)"/>
<path d="M19.95 23.875H10.05C9.90413 23.875 9.76424 23.8146 9.66109 23.7072C9.55795 23.5998 9.5 23.454 9.5 23.3021V10.6979C9.5 10.546 9.55795 10.4002 9.66109 10.2928C9.76424 10.1854 9.90413 10.125 10.05 10.125H15.7123C16.3114 10.125 16.8845 10.3693 17.2994 10.8014L19.8871 13.4969C20.2804 13.9066 20.5 14.4526 20.5 15.0205V23.3021C20.5 23.454 20.4421 23.5998 20.3389 23.7072C20.2358 23.8146 20.0959 23.875 19.95 23.875Z" stroke="url(#paint1_linear_518_8947)" stroke-width="1.25" stroke-linecap="round" stroke-linejoin="round"/>
</g>
<path d="M15 10.125V13.425C15 14.64 15.985 15.625 17.2 15.625H20.5" stroke="#1A1A18" stroke-width="1.25" stroke-linecap="square" stroke-linejoin="round"/>
<path d="M12.7083 18.375H17.2917" stroke="#1A1A18" stroke-width="1.25" stroke-linecap="round" stroke-linejoin="round"/>
<path d="M12.7083 21.125H17.2917" stroke="#1A1A18" stroke-width="1.25" stroke-linecap="round" stroke-linejoin="round"/>
<defs>
<filter id="filter0_d_518_8947" x="0.0749998" y="0.7" width="29.85" height="32.6" filterUnits="userSpaceOnUse" color-interpolation-filters="sRGB">
<feFlood flood-opacity="0" result="BackgroundImageFix"/>
<feColorMatrix in="SourceAlpha" type="matrix" values="0 0 0 0 0 0 0 0 0 0 0 0 0 0 0 0 0 0 127 0" result="hardAlpha"/>
<feOffset/>
<feGaussianBlur stdDeviation="4.4"/>
<feComposite in2="hardAlpha" operator="out"/>
<feColorMatrix type="matrix" values="0 0 0 0 0.631373 0 0 0 0 0.917647 0 0 0 0 0.0156863 0 0 0 0.4 0"/>
<feBlend mode="normal" in2="BackgroundImageFix" result="effect1_dropShadow_518_8947"/>
<feBlend mode="normal" in="SourceGraphic" in2="effect1_dropShadow_518_8947" result="shape"/>
</filter>
<linearGradient id="paint0_linear_518_8947" x1="20.5022" y1="16.9943" x2="9.49887" y2="16.9943" gradientUnits="userSpaceOnUse">
<stop stop-color="#A1EA04"/>
<stop offset="1" stop-color="#DAEB02"/>
</linearGradient>
<linearGradient id="paint1_linear_518_8947" x1="20.5022" y1="16.9943" x2="9.49887" y2="16.9943" gradientUnits="userSpaceOnUse">
<stop stop-color="#A1EA04"/>
<stop offset="1" stop-color="#DAEB02"/>
</linearGradient>
</defs>
</svg>
