<svg width="20" height="20" viewBox="0 0 20 20" fill="none" xmlns="http://www.w3.org/2000/svg">
<path d="M14.95 16.875H5.05C4.90413 16.875 4.76424 16.8146 4.66109 16.7072C4.55795 16.5998 4.5 16.454 4.5 16.3021V3.69792C4.5 3.54597 4.55795 3.40025 4.66109 3.2928C4.76424 3.18536 4.90413 3.125 5.05 3.125H10.7123C11.3114 3.125 11.8845 3.36928 12.2994 3.80143L14.8871 6.49693C15.2804 6.90663 15.5 7.45256 15.5 8.0205V16.3021C15.5 16.454 15.4421 16.5998 15.3389 16.7072C15.2358 16.8146 15.0959 16.875 14.95 16.875Z" stroke="#8C8C8C" stroke-width="1.25" stroke-linecap="round" stroke-linejoin="round"/>
<path d="M10 3.125V6.425C10 7.64003 10.985 8.625 12.2 8.625H15.5" stroke="#8C8C8C" stroke-width="1.25" stroke-linecap="round" stroke-linejoin="round"/>
<path d="M7.70834 11.375H12.2917" stroke="#8C8C8C" stroke-width="1.25" stroke-linecap="round" stroke-linejoin="round"/>
<path d="M7.70834 14.125H12.2917" stroke="#8C8C8C" stroke-width="1.25" stroke-linecap="round" stroke-linejoin="round"/>
</svg>
