<svg width="47" height="70" viewBox="0 0 47 70" fill="none" xmlns="http://www.w3.org/2000/svg">
<g filter="url(#filter0_d_160_25266)">
<path d="M32.1631 38.3764C31.9784 35.6933 30.7755 33.1797 28.7974 31.343C26.8193 29.5064 24.2132 28.4834 21.5052 28.4807C21.267 28.4807 21.0317 28.4807 20.7995 28.5044V26.1886C22.2604 25.9238 23.5817 25.1589 24.5338 24.027C25.4859 22.8951 26.0085 21.4676 26.0108 19.9927C26.0108 19.9069 26.0108 19.8182 26.0108 19.7354C25.9416 18.4789 25.3985 17.2943 24.4897 16.4174C23.5808 15.5406 22.3729 15.0357 21.1062 15.0034H20.8084C20.4525 15.0279 20.1064 15.1302 19.795 15.303C19.4835 15.4758 19.2144 15.7149 19.0068 16.003C18.709 16.414 18.5486 16.9075 18.5482 17.4138V24.1184C18.4201 24.1184 18.2891 24.1391 18.1581 24.1568C17.2512 24.2606 16.3579 24.4588 15.4929 24.7483C12.5887 25.705 10.1059 27.6279 8.46396 30.1921C6.82199 32.7563 6.1214 35.8047 6.48054 38.8225C6.83967 41.8403 8.23651 44.6425 10.4351 46.7559C12.6338 48.8693 15.4994 50.1643 18.5482 50.4223C18.5482 51.0498 18.2972 51.6516 17.8504 52.0953C17.4036 52.539 16.7977 52.7883 16.1659 52.7883C16.1073 52.7913 16.0487 52.7913 15.9902 52.7883C15.2978 52.7074 14.6286 52.4902 14.0218 52.1495V54.5154C14.7276 54.8807 15.5163 55.0592 16.3118 55.0338C17.1072 55.0084 17.8827 54.78 18.5635 54.3704C19.2442 53.9609 19.8073 53.3842 20.1984 52.6958C20.5895 52.0073 20.7955 51.2305 20.7965 50.44H20.8173C23.0854 50.2484 25.2646 49.476 27.1424 48.1982C27.6789 47.8362 28.1867 47.4338 28.6611 46.9945L28.8696 46.8053L29.0572 46.6219C29.1793 46.5036 29.2924 46.3823 29.4086 46.2581C29.8798 45.7549 30.3109 45.2159 30.698 44.6463V44.5251C31.6747 42.8919 32.1891 41.0271 32.1869 39.1276C32.1899 38.8496 32.184 38.6101 32.1631 38.3764ZM20.7995 17.5202C20.7995 17.4481 20.8283 17.3789 20.8797 17.3279C20.9311 17.2768 21.0008 17.2482 21.0734 17.2482C21.7684 17.2723 22.429 17.5541 22.9251 18.0381C23.4212 18.522 23.7167 19.1729 23.7535 19.8626C23.7535 19.9099 23.7535 19.9572 23.7535 20.0075C23.7535 20.0578 23.7535 20.1021 23.7535 20.1495C23.7224 21.0036 23.4206 21.8261 22.8913 22.5C22.3619 23.1738 21.632 23.6647 20.8054 23.9025L20.7995 17.5202ZM18.5392 42.9251C17.5281 42.7265 16.5883 42.2647 15.8159 41.587C15.0434 40.9094 14.466 40.0401 14.1428 39.0681C13.8196 38.0961 13.7622 37.0563 13.9764 36.055C14.1905 35.0538 14.6687 34.127 15.3618 33.3694L15.5494 33.1772L15.6566 33.0737L15.7609 32.9761C16.5647 32.2288 17.5088 31.646 18.5392 31.2607V42.9251ZM18.5392 28.8977C17.0137 29.3388 15.6066 30.1128 14.4208 31.1631L14.391 31.1897C14.3613 31.2164 14.3285 31.24 14.2987 31.2696C14.2689 31.2992 14.1915 31.3642 14.1379 31.4145C14.0277 31.518 13.9235 31.6215 13.8163 31.731C13.7746 31.7753 13.7299 31.8197 13.6882 31.867C12.7027 32.9465 12.0318 34.2722 11.7477 35.7018C11.4636 37.1313 11.577 38.6108 12.0757 39.9812C12.5745 41.3516 13.4397 42.5612 14.5784 43.48C15.7172 44.3988 17.0865 44.9922 18.5392 45.1964V48.1539C15.7998 47.9082 13.2519 46.6537 11.3964 44.637C9.541 42.6203 8.51216 39.9873 8.51216 37.2555C8.51216 34.5238 9.541 31.8908 11.3964 29.8741C13.2519 27.8574 15.7998 26.6029 18.5392 26.3572V28.8977ZM27.7529 44.6996C27.6605 44.8001 27.5652 44.9007 27.4551 44.9953C27.4074 45.0456 27.3568 45.0929 27.3062 45.1402C27.2848 45.1634 27.2619 45.1851 27.2377 45.2053L27.1215 45.3117C25.3756 46.9128 23.1544 47.9089 20.7905 48.1509V45.1934C22.3669 44.9753 23.8422 44.2958 25.0281 43.2415L25.2514 43.0374L25.3705 42.9221L25.573 42.7121C26.195 42.032 26.6586 41.2242 26.931 40.3461H24.4921C24.3467 40.6243 24.1688 40.8843 23.962 41.121L23.7744 41.3221C23.7238 41.3694 23.6761 41.4197 23.6225 41.467C22.8313 42.1987 21.8508 42.6974 20.7905 42.9073V30.752C21.0228 30.7343 21.2581 30.7225 21.4963 30.7225C22.9034 30.7209 24.2881 31.0718 25.5224 31.7428C27.2941 32.7032 28.6618 34.2608 29.3788 36.1347C29.6533 36.8547 29.8257 37.6092 29.891 38.3764C29.9118 38.613 29.9208 38.8496 29.9208 39.0892C29.9263 41.1615 29.1545 43.1616 27.7558 44.6996H27.7529Z" fill="url(#paint0_linear_160_25266)"/>
</g>
<defs>
<filter id="filter0_d_160_25266" x="-8.06294" y="0.551805" width="54.7022" height="68.936" filterUnits="userSpaceOnUse" color-interpolation-filters="sRGB">
<feFlood flood-opacity="0" result="BackgroundImageFix"/>
<feColorMatrix in="SourceAlpha" type="matrix" values="0 0 0 0 0 0 0 0 0 0 0 0 0 0 0 0 0 0 127 0" result="hardAlpha"/>
<feOffset/>
<feGaussianBlur stdDeviation="7.22581"/>
<feComposite in2="hardAlpha" operator="out"/>
<feColorMatrix type="matrix" values="0 0 0 0 0.631373 0 0 0 0 0.917647 0 0 0 0 0.0156863 0 0 0 0.4 0"/>
<feBlend mode="normal" in2="BackgroundImageFix" result="effect1_dropShadow_160_25266"/>
<feBlend mode="normal" in="SourceGraphic" in2="effect1_dropShadow_160_25266" result="shape"/>
</filter>
<linearGradient id="paint0_linear_160_25266" x1="32.1899" y1="34.999" x2="6.38347" y2="34.999" gradientUnits="userSpaceOnUse">
<stop stop-color="#A1EA04"/>
<stop offset="1" stop-color="#DAEB02"/>
</linearGradient>
</defs>
</svg>
