<svg width="22" height="22" viewBox="0 0 22 22" fill="none" xmlns="http://www.w3.org/2000/svg">
<path fill-rule="evenodd" clip-rule="evenodd" d="M2.45027 1.03612C2.05975 0.645594 1.42658 0.645594 1.03606 1.03612C0.645533 1.42664 0.645533 2.05981 1.03606 2.45033L9.5857 11L1.03621 19.5495C0.645686 19.94 0.645686 20.5731 1.03621 20.9637C1.42673 21.3542 2.0599 21.3542 2.45042 20.9637L10.9999 12.4142L19.5494 20.9637C19.9399 21.3542 20.5731 21.3542 20.9636 20.9637C21.3541 20.5731 21.3541 19.94 20.9636 19.5495L12.4141 11L20.9638 2.45033C21.3543 2.05981 21.3543 1.42664 20.9638 1.03612C20.5732 0.645594 19.9401 0.645594 19.5496 1.03612L10.9999 9.58576L2.45027 1.03612Z" fill="#F3436D"/>
</svg>
