<svg width="44" height="44" viewBox="0 0 44 44" fill="none" xmlns="http://www.w3.org/2000/svg">
<g filter="url(#filter0_d_518_12048)">
<path d="M28.6363 23.3125C28.6383 23.5816 28.5564 23.8447 28.4021 24.0652C28.2477 24.2857 28.0286 24.4527 27.775 24.543L23.493 26.118L21.918 30.4C21.8247 30.6512 21.6569 30.8678 21.4369 31.0208C21.2169 31.1738 20.9554 31.2558 20.6875 31.2558C20.4196 31.2558 20.1581 31.1738 19.9381 31.0208C19.7181 30.8678 19.5503 30.6512 19.457 30.4L17.882 26.118L13.6 24.543C13.3488 24.4497 13.1322 24.2819 12.9792 24.0619C12.8262 23.8419 12.7442 23.5804 12.7442 23.3125C12.7442 23.0446 12.8262 22.7831 12.9792 22.5631C13.1322 22.3431 13.3488 22.1753 13.6 22.082L17.882 20.507L19.457 16.225C19.5503 15.9738 19.7181 15.7572 19.9381 15.6042C20.1581 15.4512 20.4196 15.3692 20.6875 15.3692C20.9554 15.3692 21.2169 15.4512 21.4369 15.6042C21.6569 15.7572 21.8247 15.9738 21.918 16.225L23.493 20.507L27.775 22.082C28.0286 22.1723 28.2477 22.3393 28.4021 22.5598C28.5564 22.7803 28.6383 23.0434 28.6363 23.3125ZM23.9688 15.4375H25.2813V16.75C25.2813 16.924 25.3504 17.091 25.4735 17.214C25.5965 17.3371 25.7635 17.4063 25.9375 17.4063C26.1116 17.4063 26.2785 17.3371 26.4015 17.214C26.5246 17.091 26.5938 16.924 26.5938 16.75V15.4375H27.9063C28.0803 15.4375 28.2472 15.3684 28.3703 15.2453C28.4934 15.1222 28.5625 14.9553 28.5625 14.7813C28.5625 14.6072 28.4934 14.4403 28.3703 14.3172C28.2472 14.1941 28.0803 14.125 27.9063 14.125H26.5938V12.8125C26.5938 12.6385 26.5246 12.4715 26.4015 12.3485C26.2785 12.2254 26.1116 12.1562 25.9375 12.1562C25.7635 12.1562 25.5965 12.2254 25.4735 12.3485C25.3504 12.4715 25.2813 12.6385 25.2813 12.8125V14.125H23.9688C23.7947 14.125 23.6278 14.1941 23.5047 14.3172C23.3816 14.4403 23.3125 14.6072 23.3125 14.7813C23.3125 14.9553 23.3816 15.1222 23.5047 15.2453C23.6278 15.3684 23.7947 15.4375 23.9688 15.4375ZM31.1875 18.0625H30.5313V17.4063C30.5313 17.2322 30.4621 17.0653 30.339 16.9422C30.216 16.8191 30.0491 16.75 29.875 16.75C29.701 16.75 29.534 16.8191 29.411 16.9422C29.2879 17.0653 29.2188 17.2322 29.2188 17.4063V18.0625H28.5625C28.3885 18.0625 28.2215 18.1316 28.0985 18.2547C27.9754 18.3778 27.9063 18.5447 27.9063 18.7188C27.9063 18.8928 27.9754 19.0597 28.0985 19.1828C28.2215 19.3059 28.3885 19.375 28.5625 19.375H29.2188V20.0313C29.2188 20.2053 29.2879 20.3722 29.411 20.4953C29.534 20.6184 29.701 20.6875 29.875 20.6875C30.0491 20.6875 30.216 20.6184 30.339 20.4953C30.4621 20.3722 30.5313 20.2053 30.5313 20.0313V19.375H31.1875C31.3616 19.375 31.5285 19.3059 31.6515 19.1828C31.7746 19.0597 31.8438 18.8928 31.8438 18.7188C31.8438 18.5447 31.7746 18.3778 31.6515 18.2547C31.5285 18.1316 31.3616 18.0625 31.1875 18.0625Z" fill="url(#paint0_linear_518_12048)"/>
</g>
<defs>
<filter id="filter0_d_518_12048" x="0.744232" y="0.15625" width="43.0995" height="43.0995" filterUnits="userSpaceOnUse" color-interpolation-filters="sRGB">
<feFlood flood-opacity="0" result="BackgroundImageFix"/>
<feColorMatrix in="SourceAlpha" type="matrix" values="0 0 0 0 0 0 0 0 0 0 0 0 0 0 0 0 0 0 127 0" result="hardAlpha"/>
<feOffset/>
<feGaussianBlur stdDeviation="6"/>
<feComposite in2="hardAlpha" operator="out"/>
<feColorMatrix type="matrix" values="0 0 0 0 1 0 0 0 0 0.415686 0 0 0 0 0.164706 0 0 0 0.6 0"/>
<feBlend mode="normal" in2="BackgroundImageFix" result="effect1_dropShadow_518_12048"/>
<feBlend mode="normal" in="SourceGraphic" in2="effect1_dropShadow_518_12048" result="shape"/>
</filter>
<linearGradient id="paint0_linear_518_12048" x1="12.7442" y1="21.7684" x2="32.2183" y2="21.7684" gradientUnits="userSpaceOnUse">
<stop stop-color="#FF6A2B"/>
<stop offset="1" stop-color="#FF442B"/>
</linearGradient>
</defs>
</svg>
