<svg width="24" height="23" viewBox="0 0 24 23" fill="none" xmlns="http://www.w3.org/2000/svg">
<g filter="url(#filter0_d_4033_2433)">
<path d="M11.8314 14.0163C13.3597 14.0163 14.5986 12.7814 14.5986 11.2581C14.5986 9.73486 13.3597 8.5 11.8314 8.5C10.3031 8.5 9.06421 9.73486 9.06421 11.2581C9.06421 12.7814 10.3031 14.0163 11.8314 14.0163Z" fill="url(#paint0_linear_4033_2433)"/>
<path d="M11.8314 14.0163C13.3597 14.0163 14.5986 12.7814 14.5986 11.2581C14.5986 9.73486 13.3597 8.5 11.8314 8.5C10.3031 8.5 9.06421 9.73486 9.06421 11.2581C9.06421 12.7814 10.3031 14.0163 11.8314 14.0163Z" stroke="url(#paint1_linear_4033_2433)" stroke-miterlimit="10"/>
</g>
<path d="M8 16C8.43208 15.3871 9.00578 14.8869 9.67266 14.5416C10.3395 14.1963 11.08 14.0161 11.8315 14.0161C12.583 14.0161 13.3234 14.1963 13.9903 14.5416C14.6572 14.8869 15.2309 15.3871 15.663 16" stroke="url(#paint2_linear_4033_2433)" stroke-linecap="round" stroke-linejoin="round"/>
<path fill-rule="evenodd" clip-rule="evenodd" d="M16.1684 8L16.1669 8C15.8699 8.00091 15.5743 8.04061 15.2876 8.11811C15.021 8.19017 14.8634 8.46469 14.9354 8.73126C15.0075 8.99784 15.282 9.15552 15.5486 9.08345C15.7509 9.02876 15.9595 9.0007 16.1692 9C16.7707 9.0002 17.3473 9.23849 17.7721 9.66197C18.1971 10.0856 18.4356 10.6598 18.4356 11.2581C18.4356 11.8565 18.1971 12.4307 17.7721 12.8543C17.3471 13.278 16.7702 13.5163 16.1684 13.5163C16.027 13.5163 15.8994 13.575 15.8084 13.6693C15.7216 13.7593 15.6683 13.8818 15.6683 14.0167C15.6685 14.2928 15.8925 14.5165 16.1686 14.5164C16.8402 14.5159 17.5018 14.6768 18.0976 14.9853C18.6933 15.2937 19.2055 15.7406 19.591 16.288C19.75 16.5138 20.0619 16.5679 20.2877 16.4089C20.5135 16.2499 20.5676 15.938 20.4086 15.7122C19.9305 15.0333 19.2955 14.4794 18.5573 14.0972C18.4075 14.0196 18.2542 13.9496 18.0982 13.8872C18.2322 13.7894 18.3592 13.681 18.4781 13.5626C19.091 12.9517 19.4356 12.1228 19.4356 11.2581C19.4356 10.3935 19.091 9.5646 18.4781 8.95371C17.8653 8.34287 17.0344 8 16.1684 8Z" fill="url(#paint3_linear_4033_2433)"/>
<defs>
<filter id="filter0_d_4033_2433" x="0.564209" y="0" width="22.5344" height="22.5162" filterUnits="userSpaceOnUse" color-interpolation-filters="sRGB">
<feFlood flood-opacity="0" result="BackgroundImageFix"/>
<feColorMatrix in="SourceAlpha" type="matrix" values="0 0 0 0 0 0 0 0 0 0 0 0 0 0 0 0 0 0 127 0" result="hardAlpha"/>
<feOffset/>
<feGaussianBlur stdDeviation="4"/>
<feComposite in2="hardAlpha" operator="out"/>
<feColorMatrix type="matrix" values="0 0 0 0 0.631373 0 0 0 0 0.917647 0 0 0 0 0.0156863 0 0 0 0.4 0"/>
<feBlend mode="normal" in2="BackgroundImageFix" result="effect1_dropShadow_4033_2433"/>
<feBlend mode="normal" in="SourceGraphic" in2="effect1_dropShadow_4033_2433" result="shape"/>
</filter>
<linearGradient id="paint0_linear_4033_2433" x1="14.5997" y1="11.2558" x2="9.06364" y2="11.2558" gradientUnits="userSpaceOnUse">
<stop stop-color="#A1EA04"/>
<stop offset="1" stop-color="#DAEB02"/>
</linearGradient>
<linearGradient id="paint1_linear_4033_2433" x1="14.5997" y1="11.2558" x2="9.06364" y2="11.2558" gradientUnits="userSpaceOnUse">
<stop stop-color="#A1EA04"/>
<stop offset="1" stop-color="#DAEB02"/>
</linearGradient>
<linearGradient id="paint2_linear_4033_2433" x1="15.6645" y1="15.0072" x2="7.99921" y2="15.0072" gradientUnits="userSpaceOnUse">
<stop stop-color="#A1EA04"/>
<stop offset="1" stop-color="#DAEB02"/>
</linearGradient>
<linearGradient id="paint3_linear_4033_2433" x1="20.501" y1="12.2465" x2="14.9174" y2="12.2465" gradientUnits="userSpaceOnUse">
<stop stop-color="#A1EA04"/>
<stop offset="1" stop-color="#DAEB02"/>
</linearGradient>
</defs>
</svg>
