<svg width="61" height="48" viewBox="0 0 61 48" fill="none" xmlns="http://www.w3.org/2000/svg">
<g filter="url(#filter0_d_518_10572)">
<path d="M28.2812 37.2969V34.3594C26.7083 34.151 25.4062 33.5469 24.375 32.5469C23.3542 31.5469 22.6823 30.2292 22.3594 28.5938L25.1406 27.8281C25.349 28.7031 25.5729 29.3542 25.8125 29.7812C26.1667 30.4062 26.6406 30.8906 27.2344 31.2344C27.8281 31.5677 28.4844 31.7344 29.2031 31.7344C30.3385 31.7344 31.2917 31.3594 32.0625 30.6094C32.8438 29.8594 33.2344 28.9427 33.2344 27.8594C33.2344 27.099 32.9688 26.4583 32.4375 25.9375C31.9062 25.4167 31 24.8958 29.7188 24.375L27.7344 23.5938C26.2031 23 25.0677 22.2604 24.3281 21.375C23.5885 20.4792 23.2188 19.4062 23.2188 18.1562C23.2188 16.6875 23.6667 15.4375 24.5625 14.4062C25.4688 13.375 26.7083 12.7083 28.2812 12.4062V9.45312H31.0938V12.375C32.9896 12.7604 34.5156 13.9219 35.6719 15.8594L33.375 17.3281C32.7812 16.4323 32.1979 15.8021 31.625 15.4375C31.0625 15.0729 30.375 14.8906 29.5625 14.8906C28.5729 14.8906 27.7396 15.2031 27.0625 15.8281C26.3854 16.4531 26.0469 17.2292 26.0469 18.1562C26.0469 19.4792 27.0156 20.5052 28.9531 21.2344L31.0312 22.0312C32.7708 22.7083 34.0521 23.5156 34.875 24.4531C35.7083 25.3906 36.125 26.5156 36.125 27.8281C36.125 29.3281 35.651 30.6719 34.7031 31.8594C33.7552 33.0365 32.5521 33.8021 31.0938 34.1562V37.2969H28.2812Z" fill="url(#paint0_linear_518_10572)"/>
</g>
<defs>
<filter id="filter0_d_518_10572" x="-1.64062" y="-14.5469" width="61.7656" height="75.8438" filterUnits="userSpaceOnUse" color-interpolation-filters="sRGB">
<feFlood flood-opacity="0" result="BackgroundImageFix"/>
<feColorMatrix in="SourceAlpha" type="matrix" values="0 0 0 0 0 0 0 0 0 0 0 0 0 0 0 0 0 0 127 0" result="hardAlpha"/>
<feOffset/>
<feGaussianBlur stdDeviation="12"/>
<feComposite in2="hardAlpha" operator="out"/>
<feColorMatrix type="matrix" values="0 0 0 0 0.631373 0 0 0 0 0.917647 0 0 0 0 0.0156863 0 0 0 0.6 0"/>
<feBlend mode="normal" in2="BackgroundImageFix" result="effect1_dropShadow_518_10572"/>
<feBlend mode="normal" in="SourceGraphic" in2="effect1_dropShadow_518_10572" result="shape"/>
</filter>
<linearGradient id="paint0_linear_518_10572" x1="39.0039" y1="23.9867" x2="19.9981" y2="23.9867" gradientUnits="userSpaceOnUse">
<stop stop-color="#A1EA04"/>
<stop offset="1" stop-color="#DAEB02"/>
</linearGradient>
</defs>
</svg>
