<svg width="28" height="28" viewBox="0 0 28 28" fill="none" xmlns="http://www.w3.org/2000/svg">
<g filter="url(#filter0_d_1654_28126)">
<path d="M15.7614 16.0376L14.4304 19.699C14.3976 19.7873 14.3386 19.8635 14.2612 19.9174C14.1839 19.9712 14.0919 20 13.9977 20C13.9035 20 13.8115 19.9712 13.7342 19.9174C13.6568 19.8635 13.5978 19.7873 13.565 19.699L12.2363 16.0376C12.2132 15.9746 12.1767 15.9174 12.1293 15.8699C12.0818 15.8225 12.0246 15.786 11.9617 15.7629L8.30094 14.4316C8.21261 14.3988 8.13643 14.3398 8.08263 14.2624C8.02884 14.1851 8 14.0931 8 13.9988C8 13.9046 8.02884 13.8126 8.08263 13.7353C8.13643 13.6579 8.21261 13.5988 8.30094 13.5661L11.9617 12.2371C12.0246 12.214 12.0818 12.1775 12.1293 12.1301C12.1767 12.0826 12.2132 12.0254 12.2363 11.9624L13.5673 8.301C13.6001 8.21265 13.6591 8.13646 13.7365 8.08265C13.8138 8.02884 13.9058 8 14 8C14.0942 8 14.1862 8.02884 14.2635 8.08265C14.3409 8.13646 14.3999 8.21265 14.4327 8.301L15.7637 11.9624C15.7868 12.0254 15.8233 12.0826 15.8707 12.1301C15.9182 12.1775 15.9754 12.214 16.0383 12.2371L19.6991 13.5684C19.7874 13.6012 19.8636 13.6602 19.9174 13.7376C19.9712 13.8149 20 13.9069 20 14.0012C20 14.0954 19.9712 14.1874 19.9174 14.2647C19.8636 14.3421 19.7874 14.4012 19.6991 14.4339L16.0383 15.7652C15.9752 15.7878 15.9177 15.8238 15.8698 15.8708C15.822 15.9179 15.785 15.9748 15.7614 16.0376Z" fill="url(#paint0_linear_1654_28126)"/>
</g>
<defs>
<filter id="filter0_d_1654_28126" x="0" y="0" width="28" height="28" filterUnits="userSpaceOnUse" color-interpolation-filters="sRGB">
<feFlood flood-opacity="0" result="BackgroundImageFix"/>
<feColorMatrix in="SourceAlpha" type="matrix" values="0 0 0 0 0 0 0 0 0 0 0 0 0 0 0 0 0 0 127 0" result="hardAlpha"/>
<feOffset/>
<feGaussianBlur stdDeviation="4"/>
<feComposite in2="hardAlpha" operator="out"/>
<feColorMatrix type="matrix" values="0 0 0 0 0.631373 0 0 0 0 0.917647 0 0 0 0 0.0156863 0 0 0 0.4 0"/>
<feBlend mode="normal" in2="BackgroundImageFix" result="effect1_dropShadow_1654_28126"/>
<feBlend mode="normal" in="SourceGraphic" in2="effect1_dropShadow_1654_28126" result="shape"/>
</filter>
<linearGradient id="paint0_linear_1654_28126" x1="20.0024" y1="13.995" x2="7.99877" y2="13.995" gradientUnits="userSpaceOnUse">
<stop stop-color="#A1EA04"/>
<stop offset="1" stop-color="#DAEB02"/>
</linearGradient>
</defs>
</svg>
