<svg width="20" height="20" viewBox="0 0 20 20" fill="none" xmlns="http://www.w3.org/2000/svg">
<path d="M14.6029 11.5303L14.6029 11.5303L14.5968 11.5326L11.0284 12.8451L10.7573 12.9448L10.6576 13.2159L9.34571 16.7825C9.34562 16.7827 9.34553 16.783 9.34544 16.7832C9.31209 16.8726 9.25225 16.9497 9.1739 17.0042C9.09534 17.0589 9.00195 17.0881 8.90626 17.0881C8.81057 17.0881 8.71717 17.0589 8.63861 17.0042C8.56026 16.9497 8.50041 16.8726 8.46706 16.7832C8.46697 16.783 8.46689 16.7827 8.4668 16.7825L7.15495 13.2159L7.05523 12.9448L6.78412 12.8451L3.2175 11.5332C3.21728 11.5331 3.21707 11.533 3.21686 11.533C3.12742 11.4996 3.05029 11.4398 2.99579 11.3614C2.94115 11.2828 2.91187 11.1894 2.91187 11.0938C2.91187 10.9981 2.94115 10.9047 2.99579 10.8261C3.05029 10.7477 3.12742 10.6879 3.21686 10.6545C3.21707 10.6545 3.21728 10.6544 3.2175 10.6543L6.78412 9.34244L7.05523 9.24272L7.15495 8.97161L8.4668 5.40499C8.46688 5.40478 8.46696 5.40457 8.46704 5.40435C8.50039 5.31492 8.56024 5.23779 8.63861 5.18328C8.71717 5.12864 8.81057 5.09936 8.90626 5.09936C9.00194 5.09936 9.09534 5.12864 9.1739 5.18328C9.25227 5.23779 9.31213 5.31492 9.34548 5.40436C9.34555 5.40457 9.34563 5.40478 9.34571 5.40499L10.6576 8.97161L10.7573 9.24272L11.0284 9.34244L14.5968 10.6549L14.5967 10.655L14.6029 10.6572C14.6919 10.6889 14.7688 10.7475 14.823 10.8249C14.8772 10.9023 14.906 10.9947 14.9053 11.0892H14.9052L14.9053 11.0983C14.906 11.1928 14.8772 11.2852 14.823 11.3626C14.7688 11.44 14.6919 11.4987 14.6029 11.5303Z" fill="#8C8C8C" stroke="#8C8C8C" stroke-width="1.25"/>
</svg>
