<svg width="20" height="20" viewBox="0 0 20 20" fill="none" xmlns="http://www.w3.org/2000/svg">
<g clip-path="url(#clip0_4006_801)">
<path d="M16.0812 11.6881C15.9888 10.3465 15.3874 9.0897 14.3984 8.17136C13.4093 7.25302 12.1063 6.74155 10.7523 6.74019C10.6332 6.74019 10.5155 6.74019 10.3994 6.75202V5.59416C11.1299 5.46175 11.7905 5.07932 12.2666 4.51335C12.7426 3.94738 13.0039 3.23364 13.0051 2.4962C13.0051 2.45331 13.0051 2.40895 13.0051 2.36755C12.9705 1.73928 12.6989 1.14698 12.2445 0.708553C11.7901 0.270124 11.1861 0.0177137 10.5528 0.0015564H10.4039C10.2259 0.0138033 10.0529 0.0649567 9.89715 0.151362C9.74142 0.237768 9.60685 0.35729 9.50305 0.501372C9.35418 0.706869 9.27398 0.953578 9.27375 1.20674V4.55904C9.20973 4.55904 9.14422 4.5694 9.0787 4.57827C8.62528 4.63013 8.17861 4.72926 7.74609 4.87402C6.294 5.35237 5.05263 6.31378 4.23165 7.59587C3.41066 8.87797 3.06037 10.4022 3.23993 11.9111C3.4195 13.42 4.11792 14.8211 5.21723 15.8778C6.31655 16.9345 7.74939 17.582 9.27375 17.711C9.27375 18.0247 9.14826 18.3256 8.92487 18.5475C8.70149 18.7693 8.39851 18.894 8.08259 18.894C8.05333 18.8955 8.02401 18.8955 7.99475 18.894C7.64857 18.8535 7.31398 18.745 7.01055 18.5746V19.7576C7.36347 19.9402 7.7578 20.0295 8.15554 20.0168C8.55329 20.0041 8.94103 19.8898 9.28141 19.6851C9.62179 19.4803 9.90332 19.1919 10.0989 18.8477C10.2944 18.5035 10.3974 18.1151 10.3979 17.7199H10.4083C11.5423 17.624 12.632 17.2378 13.5709 16.599C13.8391 16.418 14.093 16.2168 14.3302 15.9971L14.4344 15.9025L14.5283 15.8108C14.5893 15.7517 14.6459 15.691 14.7039 15.6289C14.9396 15.3773 15.1551 15.1078 15.3487 14.823V14.7624C15.837 13.9458 16.0942 13.0134 16.0931 12.0637C16.0946 11.9247 16.0916 11.8049 16.0812 11.6881ZM10.3994 1.25997C10.3994 1.22389 10.4138 1.18929 10.4395 1.16377C10.4652 1.13826 10.5001 1.12393 10.5364 1.12393C10.8839 1.13601 11.2142 1.27692 11.4622 1.51888C11.7102 1.76085 11.858 2.08631 11.8764 2.43113C11.8764 2.45479 11.8764 2.47845 11.8764 2.50359C11.8764 2.52873 11.8764 2.55091 11.8764 2.57457C11.8608 3.00163 11.71 3.4129 11.4453 3.74983C11.1806 4.08676 10.8157 4.33217 10.4024 4.4511L10.3994 1.25997ZM9.26929 13.9624C8.76374 13.8631 8.29382 13.6322 7.90759 13.2934C7.52136 12.9545 7.23268 12.5199 7.07108 12.0339C6.90948 11.5479 6.88075 11.028 6.98784 10.5274C7.09493 10.0267 7.334 9.56333 7.68058 9.18456L7.77438 9.08844L7.82799 9.03668L7.8801 8.98788C8.28202 8.61425 8.75405 8.32282 9.26929 8.13021V13.9624ZM9.26929 6.94869C8.5065 7.16923 7.80297 7.55624 7.21007 8.08141L7.19518 8.09472C7.18029 8.10802 7.16392 8.11986 7.14903 8.13464C7.13414 8.14943 7.09542 8.18196 7.06862 8.2071C7.01353 8.25886 6.96142 8.31061 6.90782 8.36533C6.88697 8.38751 6.86463 8.40969 6.84379 8.43335C6.35099 8.97308 6.01556 9.63593 5.87351 10.3507C5.73145 11.0655 5.78816 11.8052 6.03753 12.4904C6.28689 13.1756 6.7195 13.7804 7.28888 14.2398C7.85827 14.6993 8.54291 14.996 9.26929 15.0981V16.5768C7.89955 16.4539 6.62561 15.8267 5.69789 14.8183C4.77016 13.81 4.25574 12.4935 4.25574 11.1276C4.25574 9.76173 4.77016 8.44523 5.69789 7.4369C6.62561 6.42856 7.89955 5.80132 9.26929 5.67845V6.94869ZM13.8761 14.8496C13.8299 14.8999 13.7823 14.9502 13.7272 14.9975C13.7034 15.0226 13.6781 15.0463 13.6528 15.07C13.6421 15.0815 13.6306 15.0924 13.6185 15.1025L13.5604 15.1557C12.6875 15.9562 11.5768 16.4543 10.3949 16.5753V15.0966C11.1831 14.9875 11.9208 14.6477 12.5137 14.1206L12.6254 14.0186L12.6849 13.9609L12.7862 13.8559C13.0972 13.5158 13.329 13.1119 13.4651 12.6729H12.2457C12.173 12.812 12.0841 12.942 11.9807 13.0603L11.8869 13.1609C11.8615 13.1846 11.8377 13.2097 11.8109 13.2333C11.4153 13.5992 10.925 13.8485 10.3949 13.9535V7.87586C10.5111 7.86699 10.6287 7.86108 10.7478 7.86108C11.4514 7.86028 12.1437 8.03575 12.7609 8.37125C13.6467 8.85145 14.3306 9.63027 14.6891 10.5672C14.8263 10.9272 14.9125 11.3045 14.9452 11.6881C14.9556 11.8064 14.96 11.9247 14.96 12.0444C14.9628 13.0806 14.5769 14.0807 13.8776 14.8496H13.8761Z" fill="#8C8C8C"/>
</g>
<defs>
<clipPath id="clip0_4006_801">
<rect width="12.9032" height="20" fill="white" transform="translate(3.19125 -9.15527e-05)"/>
</clipPath>
</defs>
</svg>
