<svg width="16" height="16" viewBox="0 0 16 16" fill="none" xmlns="http://www.w3.org/2000/svg">
<path fill-rule="evenodd" clip-rule="evenodd" d="M2.16607 1.10566C1.87318 0.812763 1.39831 0.812763 1.10541 1.10566C0.812519 1.39855 0.812519 1.87342 1.10541 2.16632L6.9391 8L1.10552 13.8336C0.812625 14.1265 0.812624 14.6013 1.10552 14.8942C1.39841 15.1871 1.87328 15.1871 2.16618 14.8942L7.99976 9.06066L13.8333 14.8942C14.1262 15.1871 14.6011 15.1871 14.894 14.8942C15.1869 14.6013 15.1869 14.1265 14.894 13.8336L9.06042 8L14.8941 2.16632C15.187 1.87342 15.187 1.39855 14.8941 1.10566C14.6012 0.812763 14.1263 0.812763 13.8334 1.10566L7.99976 6.93934L2.16607 1.10566Z" fill="#8C8C8C"/>
</svg>
