<svg width="39" height="53" viewBox="0 0 39 53" fill="none" xmlns="http://www.w3.org/2000/svg">
<g filter="url(#filter0_d_480_26974)">
<path d="M30.8327 29.4188C30.6691 27.0423 29.6037 24.816 27.8516 23.1892C26.0996 21.5625 23.7913 20.6564 21.3929 20.654C21.1819 20.654 20.9735 20.654 20.7678 20.675V18.6239C22.0617 18.3893 23.232 17.7119 24.0753 16.7093C24.9186 15.7067 25.3814 14.4424 25.3835 13.1361C25.3835 13.0601 25.3835 12.9815 25.3835 12.9082C25.3222 11.7952 24.8412 10.746 24.0362 9.96939C23.2313 9.19274 22.1613 8.74562 21.0394 8.717H20.7757C20.4604 8.73869 20.1539 8.8293 19.8781 8.98237C19.6022 9.13543 19.3638 9.34715 19.1799 9.60238C18.9162 9.96641 18.7742 10.4034 18.7738 10.8519V16.7903C18.6603 16.7903 18.5443 16.8086 18.4282 16.8243C17.625 16.9162 16.8338 17.0918 16.0676 17.3482C13.4953 18.1956 11.2963 19.8986 9.84202 22.1698C8.3877 24.4409 7.76718 27.141 8.08527 29.8139C8.40336 32.4868 9.64056 34.9688 11.5879 36.8406C13.5353 38.7125 16.0734 39.8595 18.7738 40.088C18.7738 40.6438 18.5514 41.1768 18.1557 41.5698C17.76 41.9628 17.2233 42.1836 16.6637 42.1836C16.6119 42.1862 16.5599 42.1862 16.5081 42.1836C15.8949 42.1119 15.3022 41.9196 14.7647 41.6178V43.7134C15.3898 44.0369 16.0884 44.195 16.7929 44.1725C17.4975 44.15 18.1844 43.9476 18.7873 43.5849C19.3903 43.2222 19.889 42.7114 20.2354 42.1016C20.5818 41.4919 20.7642 40.8038 20.7651 40.1037H20.7836C22.7924 39.934 24.7226 39.2498 26.3858 38.1181C26.861 37.7975 27.3107 37.4411 27.7309 37.052L27.9156 36.8844L28.0817 36.722C28.1899 36.6172 28.2901 36.5098 28.393 36.3997C28.8103 35.954 29.1922 35.4767 29.535 34.9721V34.8647C30.4001 33.4182 30.8557 31.7666 30.8538 30.0842C30.8564 29.8379 30.8512 29.6258 30.8327 29.4188ZM20.7678 10.9462C20.7678 10.8823 20.7933 10.821 20.8388 10.7758C20.8843 10.7306 20.9461 10.7052 21.0104 10.7052C21.6259 10.7266 22.211 10.9762 22.6504 11.4048C23.0898 11.8335 23.3516 12.41 23.3842 13.0208C23.3842 13.0627 23.3842 13.1046 23.3842 13.1492C23.3842 13.1937 23.3842 13.233 23.3842 13.2749C23.3566 14.0314 23.0893 14.7599 22.6205 15.3568C22.1516 15.9536 21.5051 16.3884 20.773 16.599L20.7678 10.9462ZM18.7658 33.4476C17.8703 33.2717 17.0379 32.8627 16.3537 32.2625C15.6695 31.6623 15.1581 30.8923 14.8719 30.0314C14.5856 29.1705 14.5347 28.2495 14.7244 27.3627C14.9141 26.4759 15.3376 25.655 15.9516 24.984L16.1177 24.8138L16.2127 24.7221L16.305 24.6356C17.017 23.9738 17.8531 23.4575 18.7658 23.1163V33.4476ZM18.7658 21.0233C17.4146 21.414 16.1684 22.0996 15.1181 23.0299L15.0917 23.0534C15.0653 23.077 15.0363 23.098 15.01 23.1242C14.9836 23.1504 14.915 23.208 14.8675 23.2525C14.7699 23.3442 14.6776 23.4359 14.5827 23.5328C14.5457 23.5721 14.5062 23.6114 14.4692 23.6533C13.5963 24.6094 13.0021 25.7836 12.7505 27.0498C12.4988 28.316 12.5993 29.6264 13.041 30.8402C13.4827 32.054 14.2491 33.1253 15.2577 33.9391C16.2663 34.7529 17.4791 35.2785 18.7658 35.4594V38.0788C16.3394 37.8612 14.0828 36.7501 12.4394 34.9639C10.796 33.1777 9.88471 30.8456 9.88471 28.426C9.88471 26.0064 10.796 23.6744 12.4394 21.8882C14.0828 20.102 16.3394 18.9909 18.7658 18.7732V21.0233ZM26.9265 35.0193C26.8447 35.1083 26.7603 35.1974 26.6627 35.2812C26.6205 35.3258 26.5757 35.3677 26.5308 35.4096C26.5119 35.4301 26.4917 35.4494 26.4702 35.4672L26.3673 35.5615C24.8209 36.9796 22.8535 37.8619 20.7598 38.0762V35.4567C22.1561 35.2636 23.4627 34.6617 24.5131 33.7279L24.7109 33.5471L24.8164 33.445L24.9958 33.259C25.5466 32.6566 25.9573 31.9411 26.1985 31.1634H24.0383C23.9096 31.4097 23.752 31.6401 23.5688 31.8497L23.4027 32.0278C23.3578 32.0697 23.3156 32.1143 23.2682 32.1562C22.5674 32.8042 21.6989 33.2459 20.7598 33.4319V22.6658C20.9656 22.6501 21.1739 22.6396 21.3849 22.6396C22.6312 22.6382 23.8577 22.949 24.9509 23.5433C26.5201 24.394 27.7315 25.7736 28.3666 27.4332C28.6097 28.071 28.7624 28.7393 28.8202 29.4188C28.8387 29.6284 28.8466 29.8379 28.8466 30.0501C28.8515 31.8856 28.1679 33.6571 26.9291 35.0193H26.9265Z" fill="url(#paint0_linear_480_26974)"/>
</g>
<defs>
<filter id="filter0_d_480_26974" x="0.00390625" y="0.716995" width="38.8496" height="51.4576" filterUnits="userSpaceOnUse" color-interpolation-filters="sRGB">
<feFlood flood-opacity="0" result="BackgroundImageFix"/>
<feColorMatrix in="SourceAlpha" type="matrix" values="0 0 0 0 0 0 0 0 0 0 0 0 0 0 0 0 0 0 127 0" result="hardAlpha"/>
<feOffset/>
<feGaussianBlur stdDeviation="4"/>
<feComposite in2="hardAlpha" operator="out"/>
<feColorMatrix type="matrix" values="0 0 0 0 0.631373 0 0 0 0 0.917647 0 0 0 0 0.0156863 0 0 0 0.4 0"/>
<feBlend mode="normal" in2="BackgroundImageFix" result="effect1_dropShadow_480_26974"/>
<feBlend mode="normal" in="SourceGraphic" in2="effect1_dropShadow_480_26974" result="shape"/>
</filter>
<linearGradient id="paint0_linear_480_26974" x1="30.8564" y1="26.4274" x2="7.9993" y2="26.4274" gradientUnits="userSpaceOnUse">
<stop stop-color="#A1EA04"/>
<stop offset="1" stop-color="#DAEB02"/>
</linearGradient>
</defs>
</svg>
