<svg width="14" height="9" viewBox="0 0 14 9" fill="none" xmlns="http://www.w3.org/2000/svg">
<path d="M4.83164 6.51627C6.35991 6.51627 7.59882 5.28141 7.59882 3.75813C7.59882 2.23486 6.35991 1 4.83164 1C3.30336 1 2.06445 2.23486 2.06445 3.75813C2.06445 5.28141 3.30336 6.51627 4.83164 6.51627Z" stroke="#8C8C8C" stroke-miterlimit="10"/>
<path d="M8.41797 1.10078C8.66259 1.03465 8.91485 1.00077 9.1683 1C9.9022 1 10.606 1.29059 11.125 1.80784C11.6439 2.32509 11.9355 3.02663 11.9355 3.75813C11.9355 4.48964 11.6439 5.19118 11.125 5.70843C10.606 6.22568 9.9022 6.51627 9.1683 6.51627" stroke="#8C8C8C" stroke-linecap="round" stroke-linejoin="round"/>
<path d="M1 8.5C1.43208 7.88716 2.00578 7.38696 2.67266 7.04165C3.33954 6.69635 4.07999 6.51608 4.83149 6.51608C5.58298 6.51608 6.32344 6.69635 6.99031 7.04165C7.65719 7.38696 8.23089 7.88716 8.66297 8.5" stroke="#8C8C8C" stroke-linecap="round" stroke-linejoin="round"/>
<path d="M9.16797 6.51633C9.91953 6.51586 10.6601 6.69591 11.3271 7.04122C11.994 7.38652 12.5677 7.88693 12.9995 8.50006" stroke="#8C8C8C" stroke-linecap="round" stroke-linejoin="round"/>
</svg>
