<svg width="7" height="12" viewBox="0 0 7 12" fill="none" xmlns="http://www.w3.org/2000/svg">
<path fill-rule="evenodd" clip-rule="evenodd" d="M3.5 10C3.5 10 7 7.57692 7 4.46154C7 3.54348 6.63125 2.66303 5.97487 2.01386C5.3185 1.3647 4.42826 1 3.5 1C2.57174 1 1.6815 1.3647 1.02513 2.01386C0.368749 2.66303 0 3.54348 0 4.46154C0 7.57692 3.5 10 3.5 10ZM4.89998 4.4614C4.89998 5.2261 4.27317 5.84601 3.49998 5.84601C2.72678 5.84601 2.09998 5.2261 2.09998 4.4614C2.09998 3.6967 2.72678 3.07678 3.49998 3.07678C4.27317 3.07678 4.89998 3.6967 4.89998 4.4614Z" fill="#8C8C8C"/>
</svg>
