<svg width="16" height="16" viewBox="0 0 16 16" fill="none" xmlns="http://www.w3.org/2000/svg">
<path fill-rule="evenodd" clip-rule="evenodd" d="M8 2C7.52661 2 7.14286 2.38376 7.14286 2.85714V7.14286H2.85714C2.38376 7.14286 2 7.52661 2 8C2 8.47339 2.38376 8.85714 2.85714 8.85714H7.14286V13.1429C7.14286 13.6162 7.52661 14 8 14C8.47339 14 8.85714 13.6162 8.85714 13.1429V8.85714H13.1429C13.6162 8.85714 14 8.47339 14 8C14 7.52661 13.6162 7.14286 13.1429 7.14286H8.85714V2.85714C8.85714 2.38376 8.47339 2 8 2Z" fill="#D9D9D9"/>
</svg>
