<svg width="56" height="14" viewBox="0 0 56 14" fill="none" xmlns="http://www.w3.org/2000/svg">
<g clip-path="url(#clip0_968_4383)">
<path fill-rule="evenodd" clip-rule="evenodd" d="M2.33934 9.85405e-08H11.6607C12.2812 -0.000179887 12.8764 0.246205 13.3153 0.684937C13.7541 1.12367 14.0007 1.71879 14.0007 2.33934V11.66C14.0007 12.9524 12.953 14 11.6607 14H2.33934C1.04724 13.9996 0 12.9521 0 11.66V2.33934C0 1.04735 1.04735 9.85405e-08 2.33934 9.85405e-08ZM10.7185 11.4549C11.1263 11.4549 11.4569 11.1243 11.4569 10.7165L11.4549 3.28416C11.4549 2.87639 11.1243 2.54582 10.7165 2.54582H3.28485C3.08891 2.54582 2.901 2.62371 2.76252 2.76232C2.62403 2.90093 2.54633 3.08891 2.5465 3.28485V10.7165C2.5465 11.1243 2.87707 11.4549 3.28485 11.4549H10.7185Z" fill="#D2D2D2"/>
<path d="M5.51421 8.89816C5.28145 8.89631 5.09375 8.70712 5.09375 8.47434V5.50737C5.09321 5.3946 5.13763 5.28627 5.21718 5.20634C5.29672 5.12642 5.40484 5.08148 5.5176 5.08148H8.48867C8.60137 5.08166 8.70936 5.12665 8.7889 5.20654C8.86838 5.28644 8.91287 5.39466 8.91248 5.50737V8.47364C8.91287 8.58634 8.86838 8.69458 8.7889 8.77445C8.70936 8.85437 8.60137 8.89936 8.48867 8.89956L5.51421 8.89816Z" fill="#D2D2D2"/>
<path d="M21.1252 6.3761C20.6918 6.25791 20.2816 6.14652 19.963 6.00456C19.3734 5.74101 19.099 5.37557 19.099 4.85527C19.099 3.87172 20.0499 3.42885 20.9968 3.42885C21.8968 3.42885 22.6827 3.80107 23.2105 4.47625L23.2464 4.52244L24.0072 3.92742L23.9706 3.88122C23.2689 2.98869 22.2297 2.49963 21.043 2.49963C20.2531 2.49963 19.5289 2.71292 19.0053 3.10077C18.4157 3.53209 18.1046 4.15768 18.1046 4.90417C18.1046 6.63968 19.7388 7.0628 21.0525 7.40313C22.3818 7.75364 23.1962 8.01989 23.1962 9.0333C23.1962 10.0311 22.3893 10.6758 21.1408 10.6758C20.5234 10.6758 19.3802 10.5121 18.6616 9.41442L18.6283 9.36275L17.8281 9.94215L17.8594 9.98905C18.5386 11.0174 19.711 11.6077 21.0797 11.6077C22.9388 11.6077 24.1886 10.5582 24.1886 8.99734C24.1886 7.21088 22.4891 6.74831 21.1252 6.3761Z" fill="#D2D2D2"/>
<path fill-rule="evenodd" clip-rule="evenodd" d="M30.2528 6.01544V5.07604H31.1473V13.9987H30.2528V10.5127C29.742 11.2131 28.9758 11.5961 28.0751 11.5961C26.3743 11.5961 25.1855 10.2343 25.1855 8.26784C25.1855 6.30141 26.3769 4.92865 28.0751 4.92865C28.9697 4.92865 29.7359 5.31378 30.2528 6.01544ZM26.1284 8.25696C26.1284 10.0773 27.171 10.726 28.1471 10.726L28.1491 10.7267C29.4268 10.7267 30.2528 9.7486 30.2528 8.25696C30.2528 6.76532 29.4254 5.8008 28.1471 5.8008C26.6589 5.8008 26.1284 7.06963 26.1284 8.25696Z" fill="#D2D2D2"/>
<path d="M37.0604 5.07605V8.59793C37.0604 9.83082 36.216 10.7261 35.0531 10.7261C34.0873 10.7261 33.6173 10.1528 33.6173 8.97427V5.07605H32.7227V9.15697C32.7227 10.6853 33.5534 11.5975 34.9445 11.5975C35.8112 11.5975 36.5557 11.2301 37.061 10.5582V11.4521H37.9556V5.07605H37.0604Z" fill="#D2D2D2"/>
<path fill-rule="evenodd" clip-rule="evenodd" d="M39.6418 5.74576C40.3013 5.2275 41.1966 4.93066 42.0966 4.93066C43.5183 4.93066 44.3666 5.63776 44.3639 6.82372V11.4535H43.4687V10.7464C43.017 11.3122 42.3635 11.5989 41.5226 11.5989C40.1526 11.5989 39.3008 10.8496 39.3008 9.64465C39.3008 8.07761 40.7775 7.83172 41.4065 7.7271C41.509 7.71017 41.615 7.69388 41.7209 7.67753L41.7248 7.67695C42.5842 7.54465 43.4714 7.40815 43.4714 6.67907C43.4714 5.85376 42.4002 5.78991 42.0721 5.78991C41.4927 5.78991 40.6742 5.96176 40.1179 6.444L40.067 6.48816L39.5997 5.77905L39.6418 5.74576ZM40.2348 9.59438C40.2348 10.616 41.1966 10.7267 41.6103 10.7267C42.5096 10.7267 43.4728 10.2472 43.4707 8.89954V7.97706C43.0344 8.25267 42.4134 8.36035 41.8594 8.45637L41.8501 8.45803L41.5722 8.5076C40.6851 8.67197 40.2348 8.88388 40.2348 9.59438Z" fill="#D2D2D2"/>
<path d="M49.5455 5.19628C49.3329 5.04481 48.9981 4.95447 48.6489 4.95447C47.9314 4.9639 47.2601 5.30976 46.8359 5.88844V5.07334H45.9414V11.4488H46.8359V8.03895C46.8359 6.52695 47.6857 5.84972 48.5273 5.84972C48.7736 5.84643 49.0175 5.89818 49.2412 6.00119L49.3017 6.03312L49.5849 5.2221L49.5455 5.19628Z" fill="#D2D2D2"/>
<path fill-rule="evenodd" clip-rule="evenodd" d="M49.8086 8.28137C49.8086 6.30886 51.0387 4.93066 52.7973 4.93066C54.4913 4.93066 55.6752 6.15399 55.6719 7.90846C55.6713 8.061 55.6629 8.21335 55.6467 8.36493L55.6413 8.41724H50.7507C50.7731 9.82125 51.6181 10.7267 52.9148 10.7267C53.6579 10.7267 54.3018 10.4245 54.7277 9.87489L54.7664 9.82468L55.4144 10.402L55.3784 10.4455C54.9477 10.9705 54.1625 11.5968 52.8652 11.5968C51.038 11.5968 49.8086 10.2648 49.8086 8.28137ZM52.7728 5.78923C51.6799 5.78923 50.9049 6.50853 50.7839 7.62865H54.7263C54.6489 6.72795 54.0987 5.78923 52.7728 5.78923Z" fill="#D2D2D2"/>
</g>
<defs>
<clipPath id="clip0_968_4383">
<rect width="56" height="14" fill="white"/>
</clipPath>
</defs>
</svg>
