<svg width="44" height="44" viewBox="0 0 44 44" fill="none" xmlns="http://www.w3.org/2000/svg">
<g filter="url(#filter0_d_901_1541)">
<path d="M28.1362 23.3125C28.1382 23.5816 28.0563 23.8447 27.902 24.0652C27.7476 24.2857 27.5285 24.4527 27.2749 24.543L22.9929 26.118L21.4179 30.4C21.3246 30.6512 21.1568 30.8678 20.9368 31.0208C20.7168 31.1738 20.4553 31.2558 20.1874 31.2558C19.9195 31.2558 19.658 31.1738 19.438 31.0208C19.2181 30.8678 19.0502 30.6512 18.9569 30.4L17.3819 26.118L13.0999 24.543C12.8487 24.4497 12.6321 24.2819 12.4791 24.0619C12.3261 23.8419 12.2441 23.5804 12.2441 23.3125C12.2441 23.0446 12.3261 22.7831 12.4791 22.5631C12.6321 22.3431 12.8487 22.1753 13.0999 22.082L17.3819 20.507L18.9569 16.225C19.0502 15.9738 19.2181 15.7572 19.438 15.6042C19.658 15.4512 19.9195 15.3692 20.1874 15.3692C20.4553 15.3692 20.7168 15.4512 20.9368 15.6042C21.1568 15.7572 21.3246 15.9738 21.4179 16.225L22.9929 20.507L27.2749 22.082C27.5285 22.1723 27.7476 22.3393 27.902 22.5598C28.0563 22.7803 28.1382 23.0434 28.1362 23.3125ZM23.4687 15.4375H24.7812V16.75C24.7812 16.924 24.8503 17.091 24.9734 17.214C25.0964 17.3371 25.2634 17.4063 25.4374 17.4063C25.6115 17.4063 25.7784 17.3371 25.9015 17.214C26.0245 17.091 26.0937 16.924 26.0937 16.75V15.4375H27.4062C27.5802 15.4375 27.7471 15.3684 27.8702 15.2453C27.9933 15.1222 28.0624 14.9553 28.0624 14.7813C28.0624 14.6072 27.9933 14.4403 27.8702 14.3172C27.7471 14.1941 27.5802 14.125 27.4062 14.125H26.0937V12.8125C26.0937 12.6385 26.0245 12.4715 25.9015 12.3485C25.7784 12.2254 25.6115 12.1562 25.4374 12.1562C25.2634 12.1562 25.0964 12.2254 24.9734 12.3485C24.8503 12.4715 24.7812 12.6385 24.7812 12.8125V14.125H23.4687C23.2946 14.125 23.1277 14.1941 23.0046 14.3172C22.8816 14.4403 22.8124 14.6072 22.8124 14.7813C22.8124 14.9553 22.8816 15.1222 23.0046 15.2453C23.1277 15.3684 23.2946 15.4375 23.4687 15.4375ZM30.6874 18.0625H30.0312V17.4063C30.0312 17.2322 29.962 17.0653 29.839 16.9422C29.7159 16.8191 29.549 16.75 29.3749 16.75C29.2009 16.75 29.0339 16.8191 28.9109 16.9422C28.7878 17.0653 28.7187 17.2322 28.7187 17.4063V18.0625H28.0624C27.8884 18.0625 27.7214 18.1316 27.5984 18.2547C27.4753 18.3778 27.4062 18.5447 27.4062 18.7188C27.4062 18.8928 27.4753 19.0597 27.5984 19.1828C27.7214 19.3059 27.8884 19.375 28.0624 19.375H28.7187V20.0313C28.7187 20.2053 28.7878 20.3722 28.9109 20.4953C29.0339 20.6184 29.2009 20.6875 29.3749 20.6875C29.549 20.6875 29.7159 20.6184 29.839 20.4953C29.962 20.3722 30.0312 20.2053 30.0312 20.0313V19.375H30.6874C30.8615 19.375 31.0284 19.3059 31.1515 19.1828C31.2745 19.0597 31.3437 18.8928 31.3437 18.7188C31.3437 18.5447 31.2745 18.3778 31.1515 18.2547C31.0284 18.1316 30.8615 18.0625 30.6874 18.0625Z" fill="url(#paint0_linear_901_1541)"/>
</g>
<defs>
<filter id="filter0_d_901_1541" x="0.244141" y="0.15625" width="43.0996" height="43.0995" filterUnits="userSpaceOnUse" color-interpolation-filters="sRGB">
<feFlood flood-opacity="0" result="BackgroundImageFix"/>
<feColorMatrix in="SourceAlpha" type="matrix" values="0 0 0 0 0 0 0 0 0 0 0 0 0 0 0 0 0 0 127 0" result="hardAlpha"/>
<feOffset/>
<feGaussianBlur stdDeviation="6"/>
<feComposite in2="hardAlpha" operator="out"/>
<feColorMatrix type="matrix" values="0 0 0 0 1 0 0 0 0 0.415686 0 0 0 0 0.164706 0 0 0 0.6 0"/>
<feBlend mode="normal" in2="BackgroundImageFix" result="effect1_dropShadow_901_1541"/>
<feBlend mode="normal" in="SourceGraphic" in2="effect1_dropShadow_901_1541" result="shape"/>
</filter>
<linearGradient id="paint0_linear_901_1541" x1="12.2441" y1="21.7684" x2="31.7182" y2="21.7684" gradientUnits="userSpaceOnUse">
<stop stop-color="#FF6A2B"/>
<stop offset="1" stop-color="#FF442B"/>
</linearGradient>
</defs>
</svg>
