<svg width="58" height="27" viewBox="0 0 58 27" fill="none" xmlns="http://www.w3.org/2000/svg">
<path fill-rule="evenodd" clip-rule="evenodd" d="M51.3077 13.7609C51.3077 10.6544 49.771 8.20312 46.8338 8.20312C43.8842 8.20312 42.0996 10.6544 42.0996 13.7366C42.0996 17.3892 44.2064 19.2337 47.2304 19.2337C48.7052 19.2337 49.8205 18.906 50.6633 18.4449V16.018C49.8205 16.4305 48.8539 16.6854 47.627 16.6854C46.4248 16.6854 45.359 16.2728 45.2227 14.8409H51.2829C51.2829 14.6831 51.3077 14.0521 51.3077 13.7609ZM45.1855 12.6081C45.1855 11.2368 46.0406 10.6665 46.8214 10.6665C47.5774 10.6665 48.3829 11.2368 48.3829 12.6081H45.1855Z" fill="#D2D2D2"/>
<path fill-rule="evenodd" clip-rule="evenodd" d="M37.3147 8.20312C36.1002 8.20312 35.3194 8.76133 34.8857 9.14964L34.7245 8.39728H31.998V22.5465L35.0963 21.9033L35.1087 18.4692C35.5549 18.7847 36.2117 19.2337 37.3023 19.2337C39.5207 19.2337 41.5408 17.4863 41.5408 13.6395C41.5284 10.1204 39.4835 8.20312 37.3147 8.20312ZM36.5711 16.564C35.8399 16.564 35.4062 16.3092 35.1087 15.9937L35.0963 11.4917C35.4186 11.1398 35.8647 10.8971 36.5711 10.8971C37.6989 10.8971 38.4797 12.1348 38.4797 13.7245C38.4797 15.3505 37.7113 16.564 36.5711 16.564Z" fill="#D2D2D2"/>
<path fill-rule="evenodd" clip-rule="evenodd" d="M27.7344 7.48718L30.8451 6.8319V4.36853L27.7344 5.01168V7.48718Z" fill="#D2D2D2"/>
<path d="M30.8451 8.40942H27.7344V19.0274H30.8451V8.40942Z" fill="#D2D2D2"/>
<path fill-rule="evenodd" clip-rule="evenodd" d="M24.4006 9.30741L24.2023 8.40943H21.5254V19.0274H24.6237V11.8315C25.3549 10.8971 26.5942 11.067 26.9784 11.2004V8.40943C26.5818 8.26381 25.1318 7.99684 24.4006 9.30741Z" fill="#D2D2D2"/>
<path fill-rule="evenodd" clip-rule="evenodd" d="M18.2043 5.77618L15.1804 6.4072L15.168 16.1272C15.168 17.9232 16.5436 19.2458 18.3778 19.2458C19.394 19.2458 20.1376 19.0638 20.5466 18.8454V16.382C20.15 16.5398 18.1919 17.098 18.1919 15.302V10.9942H20.5466V8.40944H18.1919L18.2043 5.77618Z" fill="#D2D2D2"/>
<path fill-rule="evenodd" clip-rule="evenodd" d="M9.82688 11.4917C9.82688 11.0184 10.2235 10.8364 10.8803 10.8364C11.8222 10.8364 13.0119 11.1155 13.9538 11.613V8.76133C12.9252 8.36088 11.9089 8.20312 10.8803 8.20312C8.36448 8.20312 6.69141 9.48942 6.69141 11.6373C6.69141 14.9865 11.4008 14.4526 11.4008 15.8966C11.4008 16.4548 10.9051 16.6368 10.2111 16.6368C9.18243 16.6368 7.86876 16.2242 6.82773 15.666V18.5541C7.9803 19.0395 9.14525 19.2458 10.2111 19.2458C12.7888 19.2458 14.5611 17.9959 14.5611 15.8238C14.5487 12.2076 9.82688 12.8508 9.82688 11.4917Z" fill="#D2D2D2"/>
</svg>
