<svg width="34" height="43" viewBox="0 0 34 43" fill="none" xmlns="http://www.w3.org/2000/svg">
<g filter="url(#filter0_d_901_4015)">
<path d="M25.6255 23.8141C25.5028 22.0317 24.7037 20.362 23.3897 19.1419C22.0757 17.9218 20.3445 17.2423 18.5456 17.2405C18.3874 17.2405 18.2311 17.2405 18.0768 17.2562V15.7179C19.0473 15.542 19.925 15.0339 20.5575 14.282C21.1899 13.5301 21.5371 12.5818 21.5386 11.6021C21.5386 11.5451 21.5386 11.4861 21.5386 11.4311C21.4926 10.5964 21.1319 9.80953 20.5282 9.22705C19.9244 8.64456 19.122 8.30922 18.2805 8.28775H18.0827C17.8463 8.30402 17.6164 8.37198 17.4095 8.48678C17.2026 8.60157 17.0238 8.76037 16.8859 8.95179C16.6881 9.22481 16.5816 9.55258 16.5813 9.88892V14.3427C16.4962 14.3427 16.4092 14.3565 16.3222 14.3682C15.7197 14.4371 15.1263 14.5688 14.5517 14.7612C12.6225 15.3967 10.9732 16.674 9.88249 18.3773C8.79175 20.0807 8.32636 22.1057 8.56493 24.1104C8.8035 26.1151 9.7314 27.9766 11.1919 29.3805C12.6524 30.7844 14.5561 31.6446 16.5813 31.816C16.5813 32.2328 16.4146 32.6326 16.1178 32.9273C15.821 33.2221 15.4185 33.3877 14.9988 33.3877C14.9599 33.3897 14.9209 33.3897 14.882 33.3877C14.4221 33.334 13.9776 33.1897 13.5745 32.9633V34.535C14.0433 34.7777 14.5672 34.8962 15.0957 34.8794C15.6241 34.8625 16.1392 34.7107 16.5915 34.4387C17.0437 34.1667 17.4177 33.7835 17.6775 33.3262C17.9373 32.8689 18.0742 32.3529 18.0748 31.8278H18.0887C19.5953 31.7005 21.0429 31.1874 22.2903 30.3386C22.6467 30.0981 22.984 29.8308 23.2992 29.539L23.4376 29.4133L23.5623 29.2915C23.6434 29.2129 23.7185 29.1323 23.7957 29.0498C24.1087 28.7155 24.3951 28.3575 24.6522 27.9791V27.8985C25.301 26.8137 25.6428 25.5749 25.6413 24.3131C25.6433 24.1284 25.6394 23.9693 25.6255 23.8141ZM18.0768 9.95964C18.0768 9.9117 18.096 9.86574 18.1301 9.83184C18.1642 9.79794 18.2105 9.7789 18.2588 9.7789C18.7204 9.79496 19.1593 9.98216 19.4888 10.3036C19.8184 10.6251 20.0147 11.0575 20.0391 11.5156C20.0391 11.547 20.0391 11.5785 20.0391 11.6119C20.0391 11.6453 20.0391 11.6748 20.0391 11.7062C20.0184 12.2736 19.818 12.82 19.4663 13.2676C19.1147 13.7152 18.6298 14.0413 18.0807 14.1993L18.0768 9.95964ZM16.5754 26.8357C15.9037 26.7038 15.2794 26.397 14.7662 25.9469C14.2531 25.4967 13.8696 24.9192 13.6549 24.2736C13.4402 23.6279 13.402 22.9372 13.5443 22.272C13.6866 21.6069 14.0042 20.9912 14.4646 20.488L14.5893 20.3603L14.6605 20.2916L14.7297 20.2267C15.2637 19.7303 15.8908 19.3431 16.5754 19.0872V26.8357ZM16.5754 17.5175C15.5619 17.8105 14.6272 18.3247 13.8395 19.0224L13.8198 19.0401C13.8 19.0578 13.7782 19.0735 13.7584 19.0931C13.7387 19.1128 13.6872 19.156 13.6516 19.1894C13.5784 19.2582 13.5092 19.3269 13.438 19.3996C13.4103 19.4291 13.3806 19.4586 13.3529 19.49C12.6982 20.2071 12.2525 21.0877 12.0638 22.0374C11.8751 22.987 11.9504 23.9698 12.2817 24.8801C12.613 25.7905 13.1878 26.594 13.9443 27.2043C14.7007 27.8147 15.6103 28.2089 16.5754 28.3445V30.3091C14.7556 30.1459 13.063 29.3125 11.8305 27.9729C10.598 26.6333 9.91451 24.8842 9.91451 23.0695C9.91451 21.2548 10.598 19.5058 11.8305 18.1661C13.063 16.8265 14.7556 15.9932 16.5754 15.8299V17.5175ZM22.6958 28.0145C22.6345 28.0813 22.5712 28.1481 22.498 28.2109C22.4664 28.2443 22.4327 28.2758 22.3991 28.3072C22.3849 28.3226 22.3697 28.337 22.3536 28.3504L22.2765 28.4211C21.1167 29.4847 19.6411 30.1464 18.0709 30.3072V28.3426C19.118 28.1977 20.098 27.7463 20.8858 27.0459L21.0342 26.9103L21.1133 26.8337L21.2478 26.6942C21.661 26.2424 21.9689 25.7058 22.1499 25.1225H20.5297C20.4332 25.3073 20.315 25.4801 20.1776 25.6373L20.053 25.7709C20.0194 25.8023 19.9877 25.8357 19.9521 25.8671C19.4265 26.3532 18.7752 26.6845 18.0709 26.8239V18.7493C18.2252 18.7375 18.3814 18.7297 18.5397 18.7297C19.4744 18.7286 20.3943 18.9617 21.2142 19.4075C22.3911 20.0455 23.2996 21.0802 23.7759 22.3249C23.9583 22.8033 24.0728 23.3045 24.1162 23.8141C24.13 23.9713 24.1359 24.1284 24.1359 24.2876C24.1396 25.6642 23.6269 26.9929 22.6978 28.0145H22.6958Z" fill="url(#paint0_linear_901_4015)"/>
</g>
<defs>
<filter id="filter0_d_901_4015" x="0.503906" y="0.28775" width="33.1377" height="42.5932" filterUnits="userSpaceOnUse" color-interpolation-filters="sRGB">
<feFlood flood-opacity="0" result="BackgroundImageFix"/>
<feColorMatrix in="SourceAlpha" type="matrix" values="0 0 0 0 0 0 0 0 0 0 0 0 0 0 0 0 0 0 127 0" result="hardAlpha"/>
<feOffset/>
<feGaussianBlur stdDeviation="4"/>
<feComposite in2="hardAlpha" operator="out"/>
<feColorMatrix type="matrix" values="0 0 0 0 0.631373 0 0 0 0 0.917647 0 0 0 0 0.0156863 0 0 0 0.4 0"/>
<feBlend mode="normal" in2="BackgroundImageFix" result="effect1_dropShadow_901_4015"/>
<feBlend mode="normal" in="SourceGraphic" in2="effect1_dropShadow_901_4015" result="shape"/>
</filter>
<linearGradient id="paint0_linear_901_4015" x1="25.6433" y1="21.5705" x2="8.50045" y2="21.5705" gradientUnits="userSpaceOnUse">
<stop stop-color="#A1EA04"/>
<stop offset="1" stop-color="#DAEB02"/>
</linearGradient>
</defs>
</svg>
