<svg width="59" height="59" viewBox="0 0 59 59" fill="none" xmlns="http://www.w3.org/2000/svg">
<g filter="url(#filter0_d_626_16972)">
<path d="M37.8477 31.75C37.8503 32.1089 37.7411 32.4596 37.5353 32.7536C37.3295 33.0476 37.0373 33.2703 36.6992 33.3906L30.9899 35.4906L28.8899 41.2C28.7655 41.5349 28.5417 41.8238 28.2484 42.0277C27.9551 42.2317 27.6065 42.341 27.2492 42.341C26.892 42.341 26.5433 42.2317 26.25 42.0277C25.9567 41.8238 25.7329 41.5349 25.6086 41.2L23.5086 35.4906L17.7992 33.3906C17.4643 33.2663 17.1755 33.0425 16.9715 32.7492C16.7675 32.4559 16.6582 32.1072 16.6582 31.75C16.6582 31.3928 16.7675 31.0441 16.9715 30.7508C17.1755 30.4575 17.4643 30.2337 17.7992 30.1094L23.5086 28.0094L25.6086 22.3C25.7329 21.9651 25.9567 21.6762 26.25 21.4723C26.5433 21.2683 26.892 21.159 27.2492 21.159C27.6065 21.159 27.9551 21.2683 28.2484 21.4723C28.5417 21.6762 28.7655 21.9651 28.8899 22.3L30.9899 28.0094L36.6992 30.1094C37.0373 30.2297 37.3295 30.4524 37.5353 30.7464C37.7411 31.0404 37.8503 31.3911 37.8477 31.75ZM31.6242 21.25H33.3742V23C33.3742 23.2321 33.4664 23.4546 33.6305 23.6187C33.7946 23.7828 34.0172 23.875 34.2492 23.875C34.4813 23.875 34.7039 23.7828 34.8679 23.6187C35.032 23.4546 35.1242 23.2321 35.1242 23V21.25H36.8742C37.1063 21.25 37.3289 21.1578 37.4929 20.9937C37.657 20.8296 37.7492 20.6071 37.7492 20.375C37.7492 20.1429 37.657 19.9204 37.4929 19.7563C37.3289 19.5922 37.1063 19.5 36.8742 19.5H35.1242V17.75C35.1242 17.5179 35.032 17.2954 34.8679 17.1313C34.7039 16.9672 34.4813 16.875 34.2492 16.875C34.0172 16.875 33.7946 16.9672 33.6305 17.1313C33.4664 17.2954 33.3742 17.5179 33.3742 17.75V19.5H31.6242C31.3922 19.5 31.1696 19.5922 31.0055 19.7563C30.8414 19.9204 30.7492 20.1429 30.7492 20.375C30.7492 20.6071 30.8414 20.8296 31.0055 20.9937C31.1696 21.1578 31.3922 21.25 31.6242 21.25ZM41.2492 24.75H40.3742V23.875C40.3742 23.6429 40.282 23.4204 40.1179 23.2563C39.9539 23.0922 39.7313 23 39.4992 23C39.2672 23 39.0446 23.0922 38.8805 23.2563C38.7164 23.4204 38.6242 23.6429 38.6242 23.875V24.75H37.7492C37.5172 24.75 37.2946 24.8422 37.1305 25.0063C36.9664 25.1704 36.8742 25.3929 36.8742 25.625C36.8742 25.8571 36.9664 26.0796 37.1305 26.2437C37.2946 26.4078 37.5172 26.5 37.7492 26.5H38.6242V27.375C38.6242 27.6071 38.7164 27.8296 38.8805 27.9937C39.0446 28.1578 39.2672 28.25 39.4992 28.25C39.7313 28.25 39.9539 28.1578 40.1179 27.9937C40.282 27.8296 40.3742 27.6071 40.3742 27.375V26.5H41.2492C41.4813 26.5 41.7039 26.4078 41.8679 26.2437C42.032 26.0796 42.1242 25.8571 42.1242 25.625C42.1242 25.3929 42.032 25.1704 41.8679 25.0063C41.7039 24.8422 41.4813 24.75 41.2492 24.75Z" fill="url(#paint0_linear_626_16972)"/>
</g>
<defs>
<filter id="filter0_d_626_16972" x="0.658203" y="0.875" width="57.4658" height="57.4658" filterUnits="userSpaceOnUse" color-interpolation-filters="sRGB">
<feFlood flood-opacity="0" result="BackgroundImageFix"/>
<feColorMatrix in="SourceAlpha" type="matrix" values="0 0 0 0 0 0 0 0 0 0 0 0 0 0 0 0 0 0 127 0" result="hardAlpha"/>
<feOffset/>
<feGaussianBlur stdDeviation="8"/>
<feComposite in2="hardAlpha" operator="out"/>
<feColorMatrix type="matrix" values="0 0 0 0 1 0 0 0 0 0.415686 0 0 0 0 0.164706 0 0 0 0.6 0"/>
<feBlend mode="normal" in2="BackgroundImageFix" result="effect1_dropShadow_626_16972"/>
<feBlend mode="normal" in="SourceGraphic" in2="effect1_dropShadow_626_16972" result="shape"/>
</filter>
<linearGradient id="paint0_linear_626_16972" x1="16.6582" y1="29.6912" x2="42.6236" y2="29.6912" gradientUnits="userSpaceOnUse">
<stop stop-color="#FF6A2B"/>
<stop offset="1" stop-color="#FF442B"/>
</linearGradient>
</defs>
</svg>
