<svg width="59" height="59" viewBox="0 0 59 59" fill="none" xmlns="http://www.w3.org/2000/svg">
<g filter="url(#filter0_d_990_18726)">
<path d="M37.8496 31.75C37.8522 32.1089 37.7431 32.4596 37.5373 32.7536C37.3315 33.0476 37.0393 33.2703 36.7012 33.3906L30.9918 35.4906L28.8918 41.2C28.7675 41.5349 28.5437 41.8238 28.2504 42.0277C27.9571 42.2317 27.6084 42.341 27.2512 42.341C26.8939 42.341 26.5453 42.2317 26.252 42.0277C25.9587 41.8238 25.7349 41.5349 25.6106 41.2L23.5106 35.4906L17.8012 33.3906C17.4663 33.2663 17.1774 33.0425 16.9735 32.7492C16.7695 32.4559 16.6602 32.1072 16.6602 31.75C16.6602 31.3928 16.7695 31.0441 16.9735 30.7508C17.1774 30.4575 17.4663 30.2337 17.8012 30.1094L23.5106 28.0094L25.6106 22.3C25.7349 21.9651 25.9587 21.6762 26.252 21.4723C26.5453 21.2683 26.8939 21.159 27.2512 21.159C27.6084 21.159 27.9571 21.2683 28.2504 21.4723C28.5437 21.6762 28.7675 21.9651 28.8918 22.3L30.9918 28.0094L36.7012 30.1094C37.0393 30.2297 37.3315 30.4524 37.5373 30.7464C37.7431 31.0404 37.8522 31.3911 37.8496 31.75ZM31.6262 21.25H33.3762V23C33.3762 23.2321 33.4684 23.4546 33.6325 23.6187C33.7966 23.7828 34.0191 23.875 34.2512 23.875C34.4832 23.875 34.7058 23.7828 34.8699 23.6187C35.034 23.4546 35.1262 23.2321 35.1262 23V21.25H36.8762C37.1082 21.25 37.3308 21.1578 37.4949 20.9937C37.659 20.8296 37.7512 20.6071 37.7512 20.375C37.7512 20.1429 37.659 19.9204 37.4949 19.7563C37.3308 19.5922 37.1082 19.5 36.8762 19.5H35.1262V17.75C35.1262 17.5179 35.034 17.2954 34.8699 17.1313C34.7058 16.9672 34.4832 16.875 34.2512 16.875C34.0191 16.875 33.7966 16.9672 33.6325 17.1313C33.4684 17.2954 33.3762 17.5179 33.3762 17.75V19.5H31.6262C31.3941 19.5 31.1716 19.5922 31.0075 19.7563C30.8434 19.9204 30.7512 20.1429 30.7512 20.375C30.7512 20.6071 30.8434 20.8296 31.0075 20.9937C31.1716 21.1578 31.3941 21.25 31.6262 21.25ZM41.2512 24.75H40.3762V23.875C40.3762 23.6429 40.284 23.4204 40.1199 23.2563C39.9558 23.0922 39.7332 23 39.5012 23C39.2691 23 39.0466 23.0922 38.8825 23.2563C38.7184 23.4204 38.6262 23.6429 38.6262 23.875V24.75H37.7512C37.5191 24.75 37.2966 24.8422 37.1325 25.0063C36.9684 25.1704 36.8762 25.3929 36.8762 25.625C36.8762 25.8571 36.9684 26.0796 37.1325 26.2437C37.2966 26.4078 37.5191 26.5 37.7512 26.5H38.6262V27.375C38.6262 27.6071 38.7184 27.8296 38.8825 27.9937C39.0466 28.1578 39.2691 28.25 39.5012 28.25C39.7332 28.25 39.9558 28.1578 40.1199 27.9937C40.284 27.8296 40.3762 27.6071 40.3762 27.375V26.5H41.2512C41.4832 26.5 41.7058 26.4078 41.8699 26.2437C42.034 26.0796 42.1262 25.8571 42.1262 25.625C42.1262 25.3929 42.034 25.1704 41.8699 25.0063C41.7058 24.8422 41.4832 24.75 41.2512 24.75Z" fill="url(#paint0_linear_990_18726)"/>
</g>
<defs>
<filter id="filter0_d_990_18726" x="0.660156" y="0.875" width="57.4668" height="57.4658" filterUnits="userSpaceOnUse" color-interpolation-filters="sRGB">
<feFlood flood-opacity="0" result="BackgroundImageFix"/>
<feColorMatrix in="SourceAlpha" type="matrix" values="0 0 0 0 0 0 0 0 0 0 0 0 0 0 0 0 0 0 127 0" result="hardAlpha"/>
<feOffset/>
<feGaussianBlur stdDeviation="8"/>
<feComposite in2="hardAlpha" operator="out"/>
<feColorMatrix type="matrix" values="0 0 0 0 1 0 0 0 0 0.415686 0 0 0 0 0.164706 0 0 0 0.6 0"/>
<feBlend mode="normal" in2="BackgroundImageFix" result="effect1_dropShadow_990_18726"/>
<feBlend mode="normal" in="SourceGraphic" in2="effect1_dropShadow_990_18726" result="shape"/>
</filter>
<linearGradient id="paint0_linear_990_18726" x1="16.6602" y1="29.6912" x2="42.6255" y2="29.6912" gradientUnits="userSpaceOnUse">
<stop stop-color="#FF6A2B"/>
<stop offset="1" stop-color="#FF442B"/>
</linearGradient>
</defs>
</svg>
