<svg width="10" height="10" viewBox="0 0 10 10" fill="none" xmlns="http://www.w3.org/2000/svg">
<path d="M8.37522 5.00011C8.37522 6.86413 6.86413 8.37522 5.00011 8.37522C3.13609 8.37522 1.625 6.86413 1.625 5.00011C1.625 3.13609 3.13609 1.625 5.00011 1.625C6.86413 1.625 8.37522 3.13609 8.37522 5.00011Z" stroke="#8C8C8C" stroke-width="0.75"/>
<path d="M4.99695 2.99438C5.14343 2.99438 5.2655 3.04932 5.36316 3.15613C5.44556 3.24463 5.48523 3.35144 5.48523 3.47046C5.48523 3.60168 5.43945 3.7146 5.34485 3.80615C5.25024 3.90076 5.13123 3.94653 4.9939 3.94653C4.85962 3.94653 4.7467 3.90076 4.6521 3.80615C4.5575 3.71155 4.51172 3.59863 4.51172 3.46436C4.51172 3.33618 4.56055 3.22632 4.65515 3.13171C4.74976 3.04016 4.86572 2.99438 4.99695 2.99438ZM4.60022 4.4165H5.39978V7.1875H4.60022V4.4165Z" fill="#8C8C8C"/>
</svg>
