<svg width="12" height="12" viewBox="0 0 12 12" fill="none" xmlns="http://www.w3.org/2000/svg">
<rect width="12" height="12" rx="6" fill="#D2D2D2" fill-opacity="0.06"/>
<path fill-rule="evenodd" clip-rule="evenodd" d="M4.35355 3.64657C4.15829 3.45131 3.84171 3.45131 3.64645 3.64657C3.45118 3.84183 3.45118 4.15841 3.64645 4.35368L5.32447 6.0317L3.64645 7.70973C3.45118 7.90499 3.45118 8.22158 3.64645 8.41684C3.84171 8.6121 4.15829 8.6121 4.35355 8.41684L6.03158 6.73881L7.70958 8.41681C7.90484 8.61207 8.22143 8.61207 8.41669 8.41681C8.61195 8.22155 8.61195 7.90497 8.41669 7.7097L6.73869 6.0317L8.41669 4.3537C8.61195 4.15844 8.61195 3.84186 8.41669 3.64659C8.22143 3.45133 7.90484 3.45133 7.70958 3.64659L6.03158 5.3246L4.35355 3.64657Z" fill="#F3436D"/>
</svg>
