<svg width="12" height="12" viewBox="0 0 12 12" fill="none" xmlns="http://www.w3.org/2000/svg">
<rect width="12" height="12" rx="6" fill="#D2D2D2" fill-opacity="0.06"/>
<path d="M9.37522 6.00011C9.37522 7.86413 7.86413 9.37522 6.00011 9.37522C4.13609 9.37522 2.625 7.86413 2.625 6.00011C2.625 4.13609 4.13609 2.625 6.00011 2.625C7.86413 2.625 9.37522 4.13609 9.37522 6.00011Z" stroke="#8C8C8C" stroke-width="0.75"/>
<path d="M5.99695 3.99438C6.14343 3.99438 6.2655 4.04932 6.36316 4.15613C6.44556 4.24463 6.48523 4.35144 6.48523 4.47046C6.48523 4.60168 6.43945 4.7146 6.34485 4.80615C6.25024 4.90076 6.13123 4.94653 5.9939 4.94653C5.85962 4.94653 5.7467 4.90076 5.6521 4.80615C5.5575 4.71155 5.51172 4.59863 5.51172 4.46436C5.51172 4.33618 5.56055 4.22632 5.65515 4.13171C5.74976 4.04016 5.86572 3.99438 5.99695 3.99438ZM5.60022 5.4165H6.39978V8.1875H5.60022V5.4165Z" fill="#8C8C8C"/>
</svg>
