<svg width="24" height="24" viewBox="0 0 24 24" fill="none" xmlns="http://www.w3.org/2000/svg">
<rect width="24" height="24" rx="12" fill="#D2D2D2" fill-opacity="0.06"/>
<path fill-rule="evenodd" clip-rule="evenodd" d="M8.70711 7.29314C8.31658 6.90261 7.68342 6.90261 7.29289 7.29314C6.90237 7.68366 6.90237 8.31683 7.29289 8.70735L10.649 12.0634L7.29289 15.4195C6.90237 15.81 6.90237 16.4432 7.29289 16.8337C7.68342 17.2242 8.31658 17.2242 8.70711 16.8337L12.0632 13.4776L15.4192 16.8336C15.8097 17.2241 16.4429 17.2241 16.8334 16.8336C17.2239 16.4431 17.2239 15.8099 16.8334 15.4194L13.4774 12.0634L16.8334 8.70743C17.2239 8.31691 17.2239 7.68374 16.8334 7.29322C16.4429 6.90269 15.8097 6.90269 15.4192 7.29322L12.0632 10.6492L8.70711 7.29314Z" fill="#F3436D"/>
</svg>
